/* XPM */
static char *result[] = {
/* columns rows colors chars-per-pixel */
"50 50 53 1 ",
"  c #40475C",
". c #42495E",
"X c #454C61",
"o c #484F64",
"O c #4A5067",
"+ c #4E556B",
"@ c #50576F",
"# c #535A72",
"$ c #585F76",
"% c #595F79",
"& c #5A6177",
"* c #5C627A",
"= c #60677D",
"- c #62687F",
"; c #616783",
": c #646B82",
"> c #686F87",
", c #656C89",
"< c #686E8B",
"1 c #697087",
"2 c #6C738C",
"3 c #70768D",
"4 c #72798F",
"5 c #6C7291",
"6 c #707697",
"7 c #757B95",
"8 c #717798",
"9 c #747A9A",
"0 c #787E9E",
"q c #7C829D",
"w c #7D83A1",
"e c #80879D",
"r c #82899F",
"t c #8187A4",
"y c #868DA5",
"u c #888FA6",
"i c #858AA8",
"p c #888EAB",
"a c #8A90A7",
"s c #8E94AE",
"d c #9096AE",
"f c #9198AF",
"g c #8F95B1",
"h c #9197B2",
"j c #959BB5",
"k c #999FB7",
"l c #989EB8",
"z c #9EA4BC",
"x c #A0A6BE",
"c c #A2A8BF",
"v c #A1A7C0",
"b c #A3A9C1",
"n c None",
/* pixels */
"nnnnnnnnnnnnnnnnnnnnnnnnnnnnnnnnnnnnnnnnnnnnnnnnnn",
"nnnnnnnnnnnnnnnnnnnnnnnnnnnnnnnnnnnnnnnnnnnnnnnnnn",
"nnnnnnnnnnnnnnnnnnnnnnnnnnnnnnnnnnnnnnnnnnnnnnnnnn",
"nnnnnnnnnnnnnnnnnnnnnnnnnnnnnnnnnnnnnnnnnnnnnnnnnn",
"nnnnnnnnnnnnnnnnnnnnnnnnnnnnnnnnnnnnnnnnnnnnnnnnnn",
"nnnnnnnnnnnnnnnnnnnnnnnnnnnnnnnnnnnnnnnnnnnnnnnnnn",
"X.........X.........o....nnnnnnnnnnnnnnnnnnnnnnnnn",
"...X..X..................nnnnnnnnnnnnnnnnnnnnnnnnn",
"X..X X       .        ..o...........X..X..........",
"....XXXXXXXX.XXXXXXXX.X.......o.........X.X..X...X",
"...XXo++@@++@+@@+@#@@+oX................ .........",
"....o#*;;;;;;;;;;;;;;%@X...  . .. ....  . . .   ..",
"X...O%299888999888998>#o XXo..ooXXXXXXXXoXXXXoXXXX",
".. .O;0iiiiiiiitiiiii9*OX+##$#####################",
"X.. +1yjljhjjhjjjjjlje;OO%:<,::,,,,,,,,,,,,,,,,,:,",
".. .@3dxvzzzzzzzzzzvzu:O#,9000909q99q99q99q999q909",
".. .+3dccxxxccxxxxxbxa-+$4yppppppppippippipppppipp",
"..  +3dxcxxxxkxxzzvbxa-+&qfzkklljzzjzjjzzjzjjzzjkj",
".. .+3dxbxxxxxxxzxxvxr-+=exxxzxxzzzzzzzzxzzzzzzzzz",
"..  +3dxxxxkxzxxzxxbxa-+&excxxxxzbzbzzzzvzzzzbzbzz",
"....+3dxbxxlxxxkxzxvxu-@%ekbxzxzzzbzzzzzzzzzzvzzzz",
".. .@3dxcxxcxxxxxxxbxu-+=exbxxxzzzzzzzbzzzzzzzbzzv",
".. .O3dbbxcxxxcbxxxbxu-+%ezxxzzxczvzzczzzzzvzvzzzz",
"... @3dxxxkxxxllzzzxzy-@=ekxxxzzzzzzzzzzvzzzzzzzzz",
"....+1yfjhhhhhjhhhhjh0;O=ekccxxxzzzvzvzzzvzzzzzzbz",
"....O=0titttttttttttt6%+=exbccxxzzvzvzzzvzzzvvzzzv",
"....O*299999090909909>#O%ekxxkzkzzzzzzzzzzzzzzzzzz",
"....O%299996666688998,#o$7uhhsddsgpgsssssssssssgdg",
"XX  O%599988989898996<#O#<0t0t0twwwwwwwwwwwwwwwwww",
" X XO%599999989999999<#o@,999999989889988969989998",
"X   O%599998989899999<#o@;666666685868886866888865",
" XXXO%599999999899999<#o#;699988999988988898888989",
"XX  O*599999999899999<#O#1wwqwwwwwwwqqwwwwwwwwwwww",
"X  Xo%<98899888899598,#O&7ghdddgggggddddghspggggsa",
"X   O*299999999999799,#O*qhzzjzzjzzkkkjzzzjzzzzzzz",
".X XO=0tiiwwwiwwttttw9*O&2yauyrayyyyyuuayyyyquyquu",
"X  X+>yjjjffjhjhfjjjje-OO&--:-------:----------1-:",
" X  +1yzzjkzllllfzjzjy-O..oOOOooooooOOOXOOOooooooo",
"XX .O=7eqeeeeewqeeeeq4*o    .       .   ..        ",
"X  .X@&******=**=****&+X.  .. . . . .. ... .  . ..",
"......XX.X.o..XXXXXXX.X...........o.X..X..XX X.XX.",
"X.X... .   ..  .     ....X.X.X.X..........XXX X ..",
"...X.....................nnnnnnnnnnnnnnnnnnnnnnnnn",
".....X..........X.......Xnnnnnnnnnnnnnnnnnnnnnnnnn",
"nnnnnnnnnnnnnnnnnnnnnnnnnnnnnnnnnnnnnnnnnnnnnnnnnn",
"nnnnnnnnnnnnnnnnnnnnnnnnnnnnnnnnnnnnnnnnnnnnnnnnnn",
"nnnnnnnnnnnnnnnnnnnnnnnnnnnnnnnnnnnnnnnnnnnnnnnnnn",
"nnnnnnnnnnnnnnnnnnnnnnnnnnnnnnnnnnnnnnnnnnnnnnnnnn",
"nnnnnnnnnnnnnnnnnnnnnnnnnnnnnnnnnnnnnnnnnnnnnnnnnn",
"nnnnnnnnnnnnnnnnnnnnnnnnnnnnnnnnnnnnnnnnnnnnnnnnnn"
};
