/* XPM */
static char *result[] = {
/* columns rows colors chars-per-pixel */
"50 50 25 1 ",
"  c #351200",
". c #3A1601",
"X c #3D1A03",
"o c #3F1C08",
"O c #401700",
"+ c #431D03",
"@ c #491E03",
"# c #431E09",
"$ c #452106",
"% c #4A2205",
"& c #46220A",
"* c #4B240A",
"= c #4E280D",
"- c #512507",
"; c #51260A",
": c #532A0D",
"> c #592E0D",
", c #4A2610",
"< c #4E2A11",
"1 c #542C11",
"2 c #592F12",
"3 c #553016",
"4 c #5A3114",
"5 c #573218",
"6 c #5E3519",
/* pixels */
"%=-%O+%&+$&+&+$++*+%&++o&+Xooooo&oXXXXXoXXX oXooXX",
";2-@@O+$+$$$*$$$%=@+@@$+&$XXoo   Xo&XXX&o&oXoXoo X",
"=:%+$X$$X.$*.+X$++@O@#@Oo$oXXoo.Xooo<<$$X oo  o&o&",
"+*-*+X**+X$&.$$*@@::#,@O$$&&o&#.ooo&$&$&oooooooXXo",
"$;:>*%%*$==$*&+15<1,*%@####*o&&o&&&&$=Xo&&oooo  Xo",
":=*:*%*&$&&X&%+<1*@@*@#@*+O##,,&&,oo<<.. oXooo oo&",
"=:%:*$**++$X++*=**@@@*@**++#,=o.XXo& &.Xoo ooo XoX",
"$%$=*+$*&%X.$X%.O;@O@*@#@@+&+X.ooXXXX,..Xo X ooo&X",
"-=$+%=.=&$X$.+=*#@;@*O@@&@+*#,@#X...#&#ooooX &  XX",
"%*%:%%=&=.X$&$%&@@*#*#;%@#+1@###+XXoXXo+&&oX &XXoX",
"%:=X=$%$=$XX$$***@@@%@@***+@*+@#$oo&  ooooo$oo$ooX",
"*%$$$*&*$$X$+&=*,@@%;O+*;*@#&#+#XXo+XXoX.XXo$o<3&o",
"%*1<.*$===*+$&$$;;;@#*@++$$*++*#ooXX+$&X..+&$$3<$$",
"*..&%*XX1*3$++$$#*1;+%@*$+$X.*,*#+X +&&$+X+,&$=$XX",
"==&%+==%&X*,.X$$O#,;O%$==%$..$**+oX.ooo$o$$$&=$X$=",
"**=5+&=1=$  *X*=*O@O+=%**$=*XX&&+X.oXXX+$+++X$XX=<",
"$$*:;;@@=<=*+++**#@@*<<=*&o$$X+$X ooooo oo XX=&&::",
"%%+@-@@;=>>3&++$@##O+%&&&&$+.X&,oXX o&o &oXoX==$O+",
"=**;-->;%%%$&$+$*,%%.++X$%++$+XXooXooo oo&$<$$XX%%",
"=-@O-;4:$%=&+$$$#@&@.$$..$++++oo&o    oo<&X$=$$$=*",
"*%=1--;:$%1=+$=$OOO++**XXXX+=<$XX o<XXXo&XX$$&&&*$",
"1=**:@@-%$$*$*==@O@##*&XXXX+$&$o&&XooXXX&XX$X$$X&&",
"*@%1:@%%%$$*X+$$#+@@*%+%&$XX=&X.&&XX Xo<<&$X&&$X##",
"=-%->>;$%%$$+X+$&#@,*O.$<<$XX,&o&X X&X&=&&$XX&&$++",
"+->-:-:::X1*$$+$&%++**$$$<<*&XX+X$o.&+$X&$&.X.+$##",
"@@>>>--;-$:**$XX+*=*%*$$$=*+&+XX .X$XX$X+o$o..&,&&",
":;>-;;@@=%$$$$$$*<=%:-%$*=*&&&&$$#$&$+$+++#$&+&X.#",
">4>@;>@@>:=*$*===&*=1=-%**=&+,*&,&#=$+.XXX$.+X##.+",
";>-;;--@4=:=%*=<=***$$%%,*#+o&&&$$&3&o+$$,,&oX&&X+",
"@-->;@-O-$*%.$&%&=*O%+*%;@*#&$o+&===X+$,o$oo#+++$O",
"@;;;2%--:$%$X%+..**+-%=@1#;,&O.+&,$.$$&,o#$o.&+$*$",
">;;;>@-2>=$$X$&*%&+*%+=*1@*#+#&+ .X+$+.+X$o$o<o.$$",
"-;2;#=.*=&<@#%*@%@O+O@@;:1+++&+..$$o,oo&.o$X XX&X$",
"O@O2<<O+1.@%*+@*;;*@%%%@+*%%%$$&&oXXoX,<..&,&,&&$.",
"222O+++.1++=*+@,%:1;@@=%@+@+&&&*&&&=,+o#,o+oXX&&<&",
"@;--**1@5=@11*;;@=122;;@@+11%**&&&,=&X,=X.,+X+&$1&",
";%@>;@;*+=%-;1;;-%%-%@::1%*+O&1*$$$X.$&.,$$$&$++++",
"2;-O;@1;@1:=@;%;>%O+:*%%%@;*@+#*$X.$..&+ .$X+XX$+&",
"O>->*%;%@%%O=%%;:-@@--*;:=@*@++&$$+*&*..+&X.X++=%+",
"%@--:-:@>%;--@-:-%-%%=@%@@+*+@%*&$$X==&*X$+&$$$$+.",
"%>=>:>%%%%:-%%$->>*-$%%-+@+*@1**@%+*=@1O&$==%*%%%*",
"----$%-::::-6>%$$-$+-;*:%=@%+**;**@+%+=+$$%%+@%+@@",
"--:$>:>*%%--;:%%:>:%*;:4::%%@@@=O%=+;=@;%$+++@**++",
"*->>%%1>::%-%%%+$$-=>=**1:%O*@=;@*:2;1;;%$%$;=1,++",
":>:>-%=%-:=>-::=*$=421:%%%@%OO+-1%%6;42;%+;@1=11@#",
">4-*>:>1:=*=%=%=*%$*@-4::@%-%@+-6;%2->2;%*-+;=1*==",
"%$$->=%*--1>:=$$.&.%++%=22:@-@@@-@@%-;::;;%@*;****",
">:=+X%%>1*%$X=$4%1+@OO%@@+;1--2>1%1%;;-:%4@;%11@%+",
"+*,<$=%O+++@@O=1&+$$=%*+;@-:->>>:;@@@15:@@%%>%++%=",
"+$.&*=:==%@+#*=OX+-==O@%1%--->>>2:*-@;11:%%%--$%%%"
};
