/* XPM */
static char *result[] = {
/* columns rows colors chars-per-pixel */
"50 50 73 1 ",
"  c #3F4E65",
". c #3D526B",
"X c #3B5771",
"o c #375A77",
"O c #395873",
"+ c #365D7A",
"@ c #3F627D",
"# c #44465A",
"$ c #434A5E",
"% c #414C63",
"& c #425067",
"* c #41546A",
"= c #405A73",
"- c #40627C",
"; c #2E6789",
": c #2F698B",
"> c #326282",
", c #32698A",
"< c #3C6F8C",
"1 c #3C718E",
"2 c #2A6D92",
"3 c #25759D",
"4 c #287298",
"5 c #397291",
"6 c #3A7B9A",
"7 c #1F7EAA",
"8 c #2277A0",
"9 c #217BA6",
"0 c #2D7FA5",
"q c #207DA8",
"w c #1C81AF",
"e c #1B84B3",
"r c #1F89B7",
"t c #168CBD",
"y c #198ABA",
"u c #2182AE",
"i c #2880A9",
"p c #3A81A1",
"a c #258DB8",
"s c #3694BA",
"d c #148FC1",
"f c #188FC0",
"g c #1592C5",
"h c #1893C4",
"j c #1F98C7",
"k c #1796C9",
"l c #1C97C8",
"z c #199ACD",
"x c #149CD0",
"c c #1B9FD1",
"v c #2B9CC7",
"b c #2299C8",
"n c #349BC2",
"m c #1CA3D5",
"M c #1BA6D9",
"N c #1DAADD",
"B c #27A0CE",
"V c #33A0C8",
"C c #24ADDE",
"Z c #30ADD9",
"A c #31B0DC",
"S c #1CACE0",
"D c #20AFE2",
"F c #24B4E6",
"G c #2FB5E3",
"H c #2EB8E6",
"J c #25B7E9",
"K c #26BAEC",
"L c #30B6E3",
"P c #2CC4F5",
"I c #2CC7F8",
"U c #2DC9FA",
"Y c None",
/* pixels */
"YYYYYYYYYYYYYYYYYYYYYYYYYYYYYYYYYYYYYYYYYYYYYYYYYY",
"YYYYYYYYYYYYYYYYYYYYYYYYYYYYYYYYYYYYYYYYYYYYYYYYYY",
"YYYYYYYYYYYYYYYYYYYYYYYYYYYYYYYYYYYYYYYYYYYYYYYYYY",
"YYYYYYYYYYYYYYYYYYYYYYYYYYYYYYYYYYYYYYYYYYYYYYYYYY",
"YYYYYYYYYYYYYYYYYYYYYYYYYYYYYYYYYYYYYYYYYYYYYYYYYY",
"YYYYYYYYYYYYYYYYYYYYYYYYYYYYYYYYYYYYYYYYYYYYYYYYYY",
"YYYYYYYYYYYYYYYYYYYYYYYYYYYYYYYYYYYYYYYYYYYYYYYYYY",
"YYYYYYYYYYYYYYYYYYYYYYYYYYYYYYYYYYYYYYYYYYYYYYYYYY",
"YYYYYYYYYYYY$%$$$$$$$$$%$%$$$%$$$$$%$$YYYYYYYYYYYY",
"YYYYYYYYYYY$$$$$$%$$%$$$$$$$$$$$$$$$$$$YYYYYYYYYYY",
"YYYYYYYYYYY$$$$$$$$##$$$$$#$$$$$$$$$$$%YYYYYYYYYYY",
"YYYYYYYYY$$%$$#$$#$#$##$#$#$##$##$##$$$$$YYYYYYYYY",
"YYYYYYYY$$$$$%% %%%&% %   % &       %$$$$$YYYYYYYY",
"YYYYYYYY$%$#$.o>>>>>>>>>>>>>@>>>@>>o.$#$%$YYYYYYYY",
"YYYYYY$$$$$#$o29qq9qq9qq977977977w92o$#$$$$$YYYYYY",
"YYYYYY$%$$%%.,uhzhkhgkhhhghhghhhhkhu:.%%$$$%YYYYYY",
"YYYYYY$%#% +,ibMSSSNNNNCNNNNNDNNSSNbi,+.%$$$YYYYYY",
"YYYYYY$##%o2ubCKKKKKKKKKKKKKKKKKKKKClu:o%#$$YYYYYY",
"YYYYYY%$#%+3fMKIUIUIIIIIIIIIIIIIUUPKMf3+%#$$YYYYYY",
"YYYYYY$$#%+8gNKIUUUUUUIIUUUUIUUUUUUKNg8+%#$$YYYYYY",
"YYYYYY$$#%o3dMJPUIIIPPIPPIPIIPPPPIIKMh3+$#$$YYYYYY",
"YYYYYY$$#%+3dmDJKJJKJJKKJKJKJKKKKKFDxd3+%#$$YYYYYY",
"YYYYYY$$#%+9dxmmBmmmmBMmBMmMmMBNMMMmxh8+%#$$YYYYYY",
"YYYYYY%$#%o3ygkkzkkkkkkkkkkgkgkkkhgggy3+%#$$YYYYYY",
"YYYYYY$$#%X,8almmccccccczgdddddddddte7;O$$$$YYYYYY",
"YYYYYY%$$$%X>0BJJFFFFFFJNzdddddddgdy4+O %$$$YYYYYY",
"YYYYYY$$%$$#*5nHPPPPPPIKFcgddgddgty7> $$$$%$YYYYYY",
"YYYYYY$$$$$#%-6nGKUUIIIPFmgdddggtw3;O$#$$$$$YYYYYY",
"YYYYYYYY$%$#%&=<sGUUIIIPJMgddgggr4@.%$$$$$YYYYYYYY",
"YYYYYYYYY$$$$$$*6nGPPIIPFxgddddt9>.$$$$$%YYYYYYYYY",
"YYYYYYYYYY$$$##%-6sZPUUPFcgdgdw3;O%#$$$%YYYYYYYYYY",
"YYYYYYYYYYY%$$%%%X5sJUUPJcgddy3+.%$$$$$YYYYYYYYYYY",
"YYYYYYYYYYY$%$$$##=6VLPPFmgte7;.#$$$%$$YYYYYYYYYYY",
"YYYYYYYYYYYYY$%$##%-6sAPKMgw4;. $#$$$YYYYYYYYYYYYY",
"YYYYYYYYYYYYYY$$$$%%*1nHJMt3@.%$$$$$YYYYYYYYYYYYYY",
"YYYYYYYYYYYYYY$$$$$#$=pnva8;.##$$$$%YYYYYYYYYYYYYY",
"YYYYYYYYYYYYYYYY%$$##*-15,>O%$$$%$YYYYYYYYYYYYYYYY",
"YYYYYYYYYYYYYYYYY$$$$%%&*%%%%$$$$YYYYYYYYYYYYYYYYY",
"YYYYYYYYYYYYYYYYY$$$$$####$#$$$%$YYYYYYYYYYYYYYYYY",
"YYYYYYYYYYYYYYYYYYY$%$$$$#$$$$$YYYYYYYYYYYYYYYYYYY",
"YYYYYYYYYYYYYYYYYYYY$%$$$$$$%$YYYYYYYYYYYYYYYYYYYY",
"YYYYYYYYYYYYYYYYYYYYY$$$$%$$$YYYYYYYYYYYYYYYYYYYYY",
"YYYYYYYYYYYYYYYYYYYYYY$$$$%$YYYYYYYYYYYYYYYYYYYYYY",
"YYYYYYYYYYYYYYYYYYYYYY$%$%$$YYYYYYYYYYYYYYYYYYYYYY",
"YYYYYYYYYYYYYYYYYYYYYYYY$$YYYYYYYYYYYYYYYYYYYYYYYY",
"YYYYYYYYYYYYYYYYYYYYYYYYYYYYYYYYYYYYYYYYYYYYYYYYYY",
"YYYYYYYYYYYYYYYYYYYYYYYYYYYYYYYYYYYYYYYYYYYYYYYYYY",
"YYYYYYYYYYYYYYYYYYYYYYYYYYYYYYYYYYYYYYYYYYYYYYYYYY",
"YYYYYYYYYYYYYYYYYYYYYYYYYYYYYYYYYYYYYYYYYYYYYYYYYY",
"YYYYYYYYYYYYYYYYYYYYYYYYYYYYYYYYYYYYYYYYYYYYYYYYYY"
};
