/* XPM */
static char *result[] = {
/* columns rows colors chars-per-pixel */
"50 50 176 2 ",
"   c #3F465B",
".  c #3E495F",
"X  c #56424F",
"o  c #40475C",
"O  c #434A5F",
"+  c #584553",
"@  c #745358",
"#  c #434B61",
"$  c #4C556E",
"%  c #4E5064",
"&  c #575E71",
"*  c #5A5D72",
"=  c #7E5A61",
"-  c #675B6B",
";  c #576177",
":  c #596075",
">  c #56617E",
",  c #79626B",
"<  c #AE2C1A",
"1  c #B22F1B",
"2  c #AE301F",
"3  c #B2311E",
"4  c #B8361F",
"5  c #BC381E",
"6  c #813C3B",
"7  c #813A37",
"8  c #A53425",
"9  c #A73628",
"0  c #B43521",
"q  c #B83720",
"w  c #B53824",
"e  c #BD3E25",
"r  c #B33D2C",
"t  c #A33D35",
"y  c #BF4026",
"u  c #B7402E",
"i  c #BF4128",
"p  c #B54434",
"a  c #BF4932",
"s  c #B64A3B",
"d  c #BA4D3D",
"f  c #C34125",
"g  c #C94425",
"h  c #C3452B",
"j  c #C74A2D",
"k  c #CB4C2D",
"l  c #C94628",
"z  c #D44F2C",
"x  c #D5532E",
"c  c #CC4F30",
"v  c #C14A33",
"b  c #CE5333",
"n  c #CD573A",
"m  c #CD5838",
"M  c #D45633",
"N  c #D55835",
"B  c #D45E3E",
"V  c #D6603F",
"C  c #9B4B4A",
"Z  c #805159",
"A  c #925156",
"S  c #B74E40",
"D  c #B84F41",
"F  c #AF5846",
"G  c #A85646",
"H  c #BB5344",
"J  c #BB574A",
"K  c #B85B50",
"L  c #B56050",
"P  c #B86455",
"I  c #886573",
"U  c #93717C",
"Y  c #A16660",
"T  c #BE6E65",
"R  c #BD7166",
"E  c #A17177",
"W  c #AC7F7F",
"Q  c #CC5E42",
"!  c #CE6246",
"~  c #C16655",
"^  c #C76C57",
"/  c #C66D61",
"(  c #C17167",
")  c #CA7768",
"_  c #C8786B",
"`  c #C27B74",
"'  c #D2816F",
"]  c #D78773",
"[  c #D98770",
"{  c #D78873",
"}  c #D88873",
"|  c #D0877D",
" . c #C3847E",
".. c #5D6886",
"X. c #7B798E",
"o. c #737491",
"O. c #777E94",
"+. c #787E94",
"@. c #767A99",
"#. c #6A6B86",
"$. c #806F82",
"%. c #83758C",
"&. c #7D88A7",
"*. c #7C84A3",
"=. c #9A828C",
"-. c #868090",
";. c #88869F",
":. c #B08080",
">. c #AC939A",
",. c #888EA8",
"<. c #8287A3",
"1. c #8D93A1",
"2. c #8C92AB",
"3. c #9196AD",
"4. c #9699AF",
"5. c #9794A3",
"6. c #959AB2",
"7. c #989CB2",
"8. c #AD9CA8",
"9. c #9CA1B7",
"0. c #9EA3B8",
"q. c #A8A7B7",
"w. c #C58C85",
"e. c #CC8B84",
"r. c #C68D88",
"t. c #C68983",
"y. c #C9938F",
"u. c #D5948C",
"i. c #CA9590",
"p. c #D59C96",
"a. c #D18A81",
"s. c #D9A29C",
"d. c #CBAFB0",
"f. c #CCB3B4",
"g. c #D2B4B2",
"h. c #D7B9B5",
"j. c #DABCB7",
"k. c #A9AEC2",
"l. c #ACB1C3",
"z. c #B6BBCB",
"x. c #B9BECD",
"c. c #BCC1D0",
"v. c #D5CACD",
"b. c #D8C9CB",
"n. c #C3C9D1",
"m. c #C9CFDB",
"M. c #D6CED2",
"N. c #DACDD0",
"B. c #CDD2DB",
"V. c #D0D5DE",
"C. c #DCD1D4",
"Z. c #EDD1CE",
"A. c #E7D9D9",
"S. c #EDD2CE",
"D. c #F4E2DF",
"F. c #CDD5E0",
"G. c #D6DBE3",
"H. c #DCDEE4",
"J. c #E6DFE1",
"K. c #DEE1E5",
"L. c #DEE5EB",
"P. c #DFE8EF",
"I. c #DFE8F0",
"U. c #E8EBEF",
"Y. c #E6E7EA",
"T. c #F2E4E2",
"R. c #F7E9E7",
"E. c #F1E8E8",
"W. c #E2EBF2",
"Q. c #E8EFF3",
"!. c #EBF2F6",
"~. c #EAF5FA",
"^. c #F3F5F6",
"/. c #F4FBFE",
"(. c #FDFEFE",
"). c #F1F7FA",
/* pixels */
"O O o o & 1.n.L.W.K.f.R w < 2 2 2 2 2 2 0 < 8 < 0 2 2 2 2 2 2 2 2 2 2 2 < r R g.K.W.L.n.1.&     O O ",
"O O   o & 1.n.L.I.K.f.( u 2 2 0 3 0 0 0 0 0 0 0 0 0 0 0 0 0 0 0 0 0 0 2 < u R g.H.P.L.n.1.&     O O ",
"O O   o & 1.n.L.W.K.g._ a 5 y y i y y i i i y h e e i i h e r h y y y y 5 a _ g.K.W.L.n.1.&     O O ",
"O O   o & 1.n.L.I.K.h.' m l k k k c c b c c c k c c c c c c c c k c c k l m ' h.K.W.L.n.1.&     O O ",
"O O     & 1.n.L.I.K.j.{ V x x N b b b b c x b c c c b c c c M c b x b x x B { j.H.P.L.n.1.:     O O ",
"O O     & 1.n.L.I.K.j.{ V x M N b j h f f y f f g f f i f f h h j b N N x V { j.K.W.L.n.1.&     O O ",
"O O     & 1.n.L.P.K.j.{ V x x x j y q 0 0 q q 0 q w 0 0 w q 0 0 y j b M x V { j.H.I.P.n.1.&     O O ",
"O O     & 1.n.L.P.K.j.{ V x M b h q r p H J J J H H D K Q J p w w i M x x B { j.H.I.L.n.1.&     O O ",
"O O   o & 1.n.L.W.V.j.} V x x b i q p / u.s.p.y.y.y.i.p.s.u./ p w i M x x V { j.K.W.L.n.1.& o   O O ",
"O O   o & 1.n.L.W.K.j.} V x x b f q D u.S.Y.J.C.M.M.C.J.U.Z.u.H 4 y M M x B { j.K.P.L.n.1.& o   O O ",
"O O   o & 1.n.L.W.K.j.} V x M b f q H p.R.(./.!.I.L.I.~.).T.p.D 4 y x x x B { j.K.P.L.n.1.& o   O O ",
"O O   o & 1.n.L.W.K.j.} V x M x f q Q s.R.(.(./.!.W.L.W.~.A.u.D 4 f M M x B { j.K.I.K.n.1.& o   O O ",
"O O   o & 1.n.L.W.H.j.] V x M b e q H p.D.(.(.(.^.U.L.Y.L.M.r.S 0 f b M x V ] j.K.W.L.n.1.&     O O ",
"O O   o & 1.n.L.P.H.j.] V x x M f q H u.A.(.(.(./.^.U.W.L.v.t.S 4 f b M x V ] j.G.I.L.n.1.&     O O ",
"O O o o & ;.n.L.W.H.j.] B x M b f q S r.A.!./.(.(.(.^.!.W.b.:.H w f b M x V { h.K.W.L.n.1.& o   O O ",
"O O   o & 1.n.L.W.K.j.] B x x b i q S r.b.W.^.(.(.(.(.).Q.N.r.H 4 f b x x V { h.K.W.L.n.1.& o   O O ",
"O O     & 1.n.L.P.K.j.] V x x x f q S r.M.W.~.)./.(.(.(./.A.i.H 0 f b M x V [ j.H.W.L.n.1.&     O O ",
"O O     & 1.n.L.W.K.j.] V x M b f q S r.b.W.W.W.!./.(.(.(.T.p.H 4 f b M x V [ j.H.P.L.n.1.&     O O ",
"O O     & 1.n.L.W.K.j.] V x M b i w s W d.b.b.b.b.A.D.R.D.Z.a.d 4 y x M x V [ j.K.W.L.n.1.& o   O O ",
"O O     & 1.n.L.W.K.j.[ N x x b i 0 r Q `  . . .a.a.a.u.u.a.~ r w f b M z V [ j.K.W.L.n.1.& o   O O ",
"O O     & 1.n.L.W.G.h.] V x M b h w 0 r s s d s s d d d d a r 0 w j b M M B { j.H.W.L.n.1.& o   O O ",
"O O   . & 1.n.K.K.B.f.w.^ B B x k i q q q q q q 4 4 4 4 4 4 q w y l x N ! ^ r.f.m.K.L.n.1.& o   O O ",
"O O   o & 1.n.G.m.z.q.>.:.( ! N z k g g f g f g g g f g f l g l k x x ! R W >.q.z.m.V.n.1.& O   O O ",
"O O   o & 1.n.V.c.q.7.7.5.W P m M M b n b b b b c M n b b b b b b M N P W 5.6.6.0.c.V.n.1.& o   O O ",
"O O   o & 1.n.V.z.9.3.6.3.=.Y G F P P P P P P P P P P P P P P P L F G Y =.3.6.3.7.c.V.n.1.& o   O O ",
"O O   o & 1.n.V.z.9.6.6.3.-., @ Z I U U U U U U U U U U U U U U U @ @ , -.4.6.6.9.c.V.n.1.& o   O O ",
"O O o o : 5.n.V.z.0.6.6.3.O.& % * #.o.o.o.o.o.o.o.o.o.o.o.o.o.o.#.: % & *.1.9.3.9.c.V.n.1.: o o O O ",
"O O   o & 1.n.V.c.0.6.7.3.*.& . $ > ............................> $ # ; X.2.4.6.7.c.V.n.1.& o   O O ",
"O O   O & 1.n.V.c.9.3.6.3.+.; # # $ $ $ $ $ $ $ $ $ $ $ $ $ $ $ % # # ; *.3.6.6.9.c.B.n.1.& o   O O ",
"O O     & 1.n.V.z.9.4.6.3.+.; # . O O O # # # # # O # # # # # # O   # ; X.3.6.4.9.c.V.n.5.& o o O O ",
"O O     : 1.n.V.c.0.6.7.3.*.; .   . . . . . . . o # . . . . o . . . . & *.1.9.4.q.z.V.n.1.& o o O O ",
"O O   O & 5.n.V.c.0.4.7.2.X.; #   O O O o # # o # o # o # o # # .   O & *.2.4.3.9.c.V.n.1.& o o O O ",
"O O     & 1.n.V.c.4.2.2.2.O.- + X X + + + + + + X + + + + + + + + X + - X.,.3.3.6.z.F.n.5.* . . O O ",
"O O   o & 1.n.V.k.1.*.&.*.I @ Z 7 7 6 6 6 6 6 6 6 6 6 6 6 6 6 6 6 7 6 @ $.<.<.@.,.l.B.n.1.*     O O ",
"O O   o & 1.n.B.k.<.*.@.X.I t 8 8 8 8 8 9 8 8 9 8 8 9 8 8 8 8 8 8 2 9 C I @.@.@.,.k.m.n.1.& .   O O ",
"O O   o & 1.n.V.z.6.;.X.I A t 3 3 3 3 3 3 3 3 3 3 3 3 3 < 0 0 < 1 1 0 t A I %.<.6.z.F.n.1.& o   O O ",
"O O   o & 1.n.G.F.x.8.E C t 9 1 < 2 3 2 3 2 2 2 3 3 < 2 2 3 < 0 2 1 2 9 t C E 8.x.F.G.n.1.* o   O O ",
"O O   o & 1.n.L.W.G.d.( p 8 2 0 0 0 3 0 0 0 3 2 q 3 0 0 0 0 0 0 0 0 q 2 0 r R d.V.P.L.n.1.* o   O O ",
"O O   o & 1.n.L.W.J.j.) h 5 e e i i i i i i i y y i i e e i e i e e e w q h _ j.Y.W.L.n.1.& o   O O ",
"O O   o & 1.n.L.W.H.j._ n l l c j c j j c j c c c j j b j c j c c j c c l n _ j.K.W.L.n.1.& o   O O ",
"O O     & 1.n.L.W.H.j.] Q z x N M b N M M M b N b N M M N M N b M M M x x B } j.H.W.L.n.1.&     O O ",
"O O     & 1.n.L.W.H.j.} ! x x N N N N N N N N N N N N N N N N N N N N M x V } j.H.W.L.n.1.& o   O O ",
"O O     & 1.n.L.W.H.j.{ ! x N N N M b N N M N M N M b N M N M N M N M M x B } j.H.W.L.n.1.& o   O O ",
"O O     & 1.n.L.W.H.j.{ B z x N N N N M M N M N M N N M N M M N N M M M x B } j.H.W.L.n.1.& o   O O ",
"O O   o & 1.n.L.W.H.h.] V x N x M N M N N M N M N M N M N M N M M N M M x V } j.H.W.L.n.1.&     O O ",
"O O   o & 1.n.L.W.H.j.] B z x N N M N M M N M b M N M N M N M N N M M M x B } h.H.I.L.n.1.&     O O ",
"O O   o & 1.n.L.W.H.h.] m k M N M N N M N M M N M N N M N M N M M N M x k m ' h.H.W.L.n.1.& o   O O ",
"O O   o & 1.n.L.W.H.g.) v f z N N M M N M N N M N M N M M N b N N N M k f v _ g.H.W.L.n.1.& o   O O ",
"O O   o & 1.n.L.W.H.d.( e e k M N M M N M N M N M M N M N M N M M N M j e u ( d.H.W.Y.n.1.&     O O ",
"O O o o & 1.n.L.W.H.d.( r 4 l M N N N M N M N M N M M N M N M N N N N l 4 r ( d.H.W.L.n.1.&     O O "
};
