/* XPM */
static char *result[] = {
/* columns rows colors chars-per-pixel */
"50 50 163 2 ",
"   c #763E40",
".  c #3F465B",
"X  c #3F495F",
"o  c #3F4A60",
"O  c #40475C",
"+  c #434A5F",
"@  c #524757",
"#  c #5D4B55",
"$  c #554B59",
"%  c #534957",
"&  c #7B4243",
"*  c #70474A",
"=  c #634B53",
"-  c #7C4C50",
";  c #7E5257",
":  c #414B61",
">  c #484F65",
",  c #4C5267",
"<  c #475169",
"1  c #4C556C",
"2  c #4E596F",
"3  c #5F5467",
"4  c #575668",
"5  c #52586D",
"6  c #575769",
"7  c #4D5770",
"8  c #4E5972",
"9  c #575E71",
"0  c #5A5F72",
"q  c #555F7A",
"w  c #625565",
"e  c #775C63",
"r  c #5A6174",
"t  c #5C657E",
"y  c #6F637A",
"u  c #B22E1B",
"i  c #B6331D",
"p  c #BB371F",
"a  c #9D3429",
"s  c #AF3A26",
"d  c #A2392C",
"f  c #A83729",
"g  c #B93721",
"h  c #BC3B23",
"j  c #B23724",
"k  c #C23C21",
"l  c #924037",
"z  c #974D3F",
"x  c #9E453A",
"c  c #AD412D",
"v  c #B2472F",
"b  c #BD422A",
"n  c #AA4131",
"m  c #AA4F3A",
"M  c #B54D37",
"N  c #BC4C36",
"B  c #BC543B",
"V  c #B2533C",
"C  c #C24226",
"Z  c #CB4425",
"A  c #C44428",
"S  c #CF4E2E",
"D  c #D44B26",
"F  c #D14C2A",
"G  c #D5512D",
"H  c #DA552E",
"J  c #C24F3A",
"K  c #CE5334",
"L  c #C4573B",
"P  c #C85739",
"I  c #CE5838",
"U  c #C45132",
"Y  c #D35634",
"T  c #D35837",
"R  c #D85833",
"E  c #D15839",
"W  c #844C4A",
"Q  c #824849",
"!  c #934C40",
"~  c #89504B",
"^  c #8A4F56",
"/  c #A74D45",
"(  c #AA4F47",
")  c #AB574F",
"_  c #B1574C",
"`  c #9E615E",
"'  c #A66055",
"]  c #BB6151",
"[  c #8C5A65",
"{  c #856A76",
"}  c #9C737D",
"|  c #AE7875",
" . c #A1787F",
".. c #A87D7F",
"X. c #C25E48",
"o. c #C65945",
"O. c #D35F40",
"+. c #C1634F",
"@. c #D46749",
"#. c #D6694B",
"$. c #D46142",
"%. c #C26551",
"&. c #C36855",
"*. c #DC7157",
"=. c #DF7A60",
"-. c #D88879",
";. c #E9947C",
":. c #5F6980",
">. c #5C6581",
",. c #656C82",
"<. c #677188",
"1. c #6B758E",
"2. c #797F8F",
"3. c #7A7286",
"4. c #6B7790",
"5. c #757C97",
"6. c #897A85",
"7. c #827E97",
"8. c #A47D82",
"9. c #A97F81",
"0. c #7D859D",
"q. c #968B9B",
"w. c #AA8083",
"e. c #BD8884",
"r. c #8489A0",
"t. c #898FA6",
"y. c #8C92A0",
"u. c #8D98A7",
"i. c #8E99A8",
"p. c #9493A3",
"a. c #9C9AAD",
"s. c #9899A8",
"d. c #96A1AF",
"f. c #9BA5B2",
"g. c #DE9581",
"h. c #DE9789",
"j. c #C49794",
"k. c #E09783",
"l. c #E69E89",
"z. c #EB9982",
"x. c #ECA28D",
"c. c #EFC5BB",
"v. c #ACB5C8",
"b. c #B3B8C2",
"n. c #D6C6C7",
"m. c #DCC6C4",
"M. c #DFC9C6",
"N. c #C3C9D1",
"B. c #C8CFDB",
"V. c #CAD2DC",
"C. c #D9D0D2",
"Z. c #E0CAC7",
"A. c #F3CEC5",
"S. c #EBD6D2",
"D. c #F5DED7",
"F. c #F4DED8",
"G. c #D9DEE4",
"H. c #D2DAE0",
"J. c #DBE0E6",
"K. c #DFE4E9",
"L. c #E0E5EA",
"P. c #E3E8ED",
"I. c #E6EBF0",
/* pixels */
"+ + . O 9 y.N.K.P.J.V.v.a.} / j u u a   @ : o + + + + + + + + + + + + X . , 2.b.H.I.K.N.y.9 O . + + ",
"+ + . O 9 y.N.K.P.J.V.v.a.} ( j i i a & % : : + + + + + : + + + + + + . . , 2.b.G.I.K.N.y.9 O . + + ",
"+ + . . 9 y.N.K.P.J.V.v.a.} ) b k b n & % o : + + + + + + + + + + + + + . , 0.b.G.I.K.N.y.9 O O + + ",
"+ + . + 9 y.N.K.K.J.B.v.a.w.] U D S B W $ : o + + + + + + + + + + + + X . , 2.b.G.I.K.N.y.6 O . + + ",
"+ + . O 9 y.N.K.P.J.B.v.a.w.&.T G G B W $ + o : + + + + + + + + + + + . . , 2.b.G.I.L.N.y.0 O . + + ",
"+ O O O 9 y.N.K.P.J.B.v.a.w.&.Y D Z c & % X o + + + + + + + + + + + + . . $ 2.b.G.I.L.N.y.9 O O + + ",
"+ + O O 5 y.N.K.P.J.B.v.a.w.&.Y Z h d & % o o + + + : + + + + + + + o X . > 2.b.G.I.L.N.y.9 O O + + ",
"+ + O O r y.N.K.P.J.B.v.a.w.&.T E o.) ; $ X o + + + + + + + + + + + + . . > 2.b.G.I.L.N.y.9 O O + + ",
"+ + O O 9 y.N.K.P.J.V.v.a.w.%.$.*.x.e.} 4 O O + + + + + + : + + + + + + . , 2.b.G.I.K.N.y.9 O O + + ",
"+ + O O 9 y.N.K.P.J.B.v.a...] #.x.S.C.d.r O . + + + + + + + + + + + + . . , 2.b.G.I.K.N.y.9 O . + + ",
"+ + O O 9 y.N.K.P.J.B.v.a...%.#.x.F.J.f.r O . O + + + + + + + + + + + + . , 0.b.G.I.K.N.y.9 O . + + ",
"+ + . O 9 y.N.K.P.J.B.v.a...%.@.l.S.V.s.0 O . + + + + + + + + + + + + . . , 2.b.G.I.K.N.y.9 O . + + ",
"+ + . O 6 y.N.K.P.J.B.v.a...%.@.;.n.N.i.r O O + + + + > + + + + + + + . . , 2.b.G.I.K.N.y.9 O O + + ",
"+ + O O 9 y.N.K.P.J.B.v.a...+.@.g.n.N.u.5 O . + + + + + + + + + + + + . . 4 2.b.G.I.L.N.y.9 O . + + ",
"+ + O O 9 y.N.K.P.J.B.v.a...+.@.g.m.N.u.0 O O + + + + + + + + + + + + . . , 2.b.G.I.L.N.y.9 O . + + ",
"+ + . O 9 y.N.K.P.J.B.v.a...+.@.g.M.N.u.0 O O + + + + + + + + + + + + . . , 2.b.G.I.L.N.y.9 O O + + ",
"+ + O O 5 y.N.K.P.J.B.v.a...%.#.x.S.V.f.r X . + + + + + + + + + + + + . . , 2.b.H.I.K.N.y.9 O . + + ",
"+ + O O r y.N.K.P.J.B.v.a...+.#.x.F.J.f.r . . + + + + + + + + + + + + X . , 2.b.G.P.K.N.y.9 O . + + ",
"+ + O O r y.N.K.P.J.B.v.a...%.@.;.c.n.p.6 . . + + + + + + + + + + + + + . , 0.b.G.I.L.N.y.9 O O + + ",
"+ + O O 5 y.N.K.P.J.B.v.a.w.%.$.*.-.e.{ 4 . X + + + + + + + + + + + + . . , 2.b.G.I.L.N.y.6 O . + + ",
"+ + O O r y.N.K.P.J.B.v.a.w.] E Y L / - $ + X : + + + + + + + + + + + X . > 2.b.G.I.L.N.y.0 O . + + ",
"+ + . O 5 y.N.L.P.J.B.v.a.w.&.E Z p f Q w 2 , : + + + + + + + + + + + . . $ 2.b.G.I.L.N.y.0 O . + + ",
"+ + . O 9 y.N.K.P.J.B.v.a.w.&.Y D Z B ` 3.<.r > + + + + + + + + + + + X . > 2.b.G.I.L.N.y.9 O O + + ",
"+ O O O 9 y.N.K.P.J.B.v.a.9.&.Y H G X.| q.0.t , + . + + + + + + + + + X . > 2.b.G.I.L.N.y.9 O O + + ",
"+ + . O 9 y.N.L.P.J.B.v.a.w.&.E L V ' 8.p.r.,.> . + + + + + + + + + + . . , 2.b.G.I.K.N.y.9 O . + + ",
"+ + O O 9 y.N.K.P.J.B.v.a.w.&.P m W e 6.p.r.,., . . + + + + + + + + + + . , 2.b.G.I.K.N.y.9 O O + + ",
"+ + O O 6 y.N.K.P.J.B.v.a.w.&.P z # 5 1.t.r.,.> + . + + + + + + + + + X . , 0.b.G.I.K.N.y.9 O . + + ",
"+ + O O 9 y.N.K.P.G.B.v.a.w.&.I z # 7 4.t.r.,., . + + + + + + + + + + . . , 2.b.G.I.K.N.y.9 O . + + ",
"+ + . O 9 y.N.K.P.J.B.v.a.w.&.L z # 1 1.t.r.,., . + : + + + + + + + + + . , 2.b.G.I.K.N.y.9 O O + + ",
"+ + . O 9 y.N.K.P.J.B.v.a.w.&.L z # 1 1.t.0.,.< O + + + + + + + + + + . . $ 2.b.G.I.K.N.y.9 O O + + ",
"+ + . . 9 y.N.K.P.J.B.v.a.w.&.L z # 1 4.u.r.y > O + + + + + + + + + X . . , 2.b.G.I.P.N.y.9 O O + + ",
"+ + . + 9 y.N.K.P.J.B.b.a.w.&.L z # 2 4.u.0.,., O O + + + + + + + + + . . , 0.b.G.I.K.N.y.9 O O + + ",
"+ + . + 9 y.N.K.P.G.B.v.a.w.&.P x * w 1.r.r.,.> . O : : + + + + + + + O . , 2.b.G.P.L.N.q.9 O . + + ",
"+ + . . 9 y.N.K.P.J.B.v.a...&.P v l Q { 7.5.>.> O O + + + + + + + + : O . , 2.b.G.I.L.N.y.0 O . + + ",
"+ + . O 9 y.N.K.P.J.V.v.a.w.&.Y C s d [ 3.<.q > O O + + + + + + + + + O . , 2.b.G.I.L.N.t.9 O O + + ",
"+ + . O 9 y.N.K.P.J.B.b.a.w.&.K Z h d ^ y >.8 > + + + + + + + + + + : O . , 2.b.G.I.L.N.y.9 O . + + ",
"+ + . O 9 y.N.K.P.J.B.v.a.w.&.I Z i d - 3 8 , + + + + + + + + + + + + O O , 2.b.G.I.L.N.y.0 . . + + ",
"+ + . O 9 y.N.K.P.J.B.v.a.w.] Y Z h a & $ : : + + + + + + + + + + + + O . , 2.b.G.I.L.N.y.0 O . + + ",
"+ + O O 9 y.N.K.P.J.B.v.d.w.&.T F C n & % X X : + + + + + + + + + + + O . , 2.b.G.I.L.N.y.5 O . + + ",
"+ + . O 9 y.N.L.P.J.V.v.a.w.&.T G S M W $ X : + + + + + + + + : + + + + . , 2.b.G.I.L.N.y.0 O . + + ",
"+ + . . r y.N.K.P.J.B.v.a.w.] T H R B ~ $ : o : + + + + + + : + + + + + . , 2.b.G.I.L.N.y.0 . . + + ",
"+ + . . 5 y.N.K.P.J.B.v.a.w.&.T H R B ~ $ : X + + + + + + + + + + + + . . + 2.b.G.I.L.N.y.0 O . + + ",
"+ + . . r y.N.K.P.J.B.v.a.w.&.E H R B ~ $ : + + + + + + + + + + + + + X . , 3.b.G.I.L.N.y.r O O + + ",
"+ + . . r y.N.K.P.J.B.v.a.w.&.T H R B ~ $ : X : + + + + + + + + + + X . . , 0.b.G.I.L.N.y.5 O . + + ",
"+ + . + 9 y.N.K.P.J.B.v.a.w.&.T H R B ~ $ o : + + + + + + + + + + + + . O > 0.b.J.I.K.N.y.9 O O + + ",
"+ + . . 9 y.N.J.P.J.B.v.a.w.&.T H R B ~ $ : + + + + + + + + + + + + + . O > 6.b.J.P.L.N.y.9 O O + + ",
"+ + . + 9 y.N.K.P.J.B.v.a.w.&.I G S M W $ + : + + + : + + + + + + + + + . > 0.b.J.P.K.N.y.9 O . + + ",
"+ + . . r y.N.K.P.J.B.v.a.w.%.T D A n & $ o : + + + + + + + + + + + + . . + 0.b.J.P.P.N.y.6 O O + + ",
"+ + . O r y.N.K.P.J.B.v.a.w.&.I Z h a & @ X o + + + + + + + + + + + + + . , 0.b.G.P.P.N.y.9 . . + + ",
"+ + . O 9 y.N.K.P.J.B.v.a.w.&.K Z p a   @ X o + + + : + + + + + + + + . . , 2.b.G.P.K.N.y.9 . . + + "
};
