/* XPM */
static char *result[] = {
/* columns rows colors chars-per-pixel */
"50 50 95 2 ",
"   c #31141F",
".  c #331722",
"X  c #361A25",
"o  c #381D27",
"O  c #391E29",
"+  c #3C222D",
"@  c #3F2631",
"#  c #402732",
"$  c #422A35",
"%  c #442D39",
"&  c #46313E",
"*  c #4A343F",
"=  c #473340",
"-  c #4B3541",
";  c #4D3945",
":  c #4E3C4A",
">  c #513D49",
",  c #53414E",
"<  c #544452",
"1  c #594754",
"2  c #5A4A57",
"3  c #5D4E5B",
"4  c #5D515F",
"5  c #61515D",
"6  c #5D5666",
"7  c #5F596A",
"8  c #635563",
"9  c #675A66",
"0  c #615B6C",
"q  c #6B5E6B",
"w  c #6D606E",
"e  c #646173",
"r  c #6E6371",
"t  c #6B6778",
"y  c #6D6B7E",
"u  c #716674",
"i  c #736876",
"p  c #756C7A",
"a  c #7A717F",
"s  c #6F6E81",
"d  c #716F81",
"f  c #737183",
"g  c #7C7684",
"h  c #74768A",
"j  c #76798D",
"k  c #7B798A",
"l  c #797E93",
"z  c #807987",
"x  c #817B89",
"c  c #858291",
"v  c #8A8694",
"b  c #8C8896",
"n  c #8D8B9A",
"m  c #918F9D",
"M  c #868DA2",
"N  c #8A8DA0",
"B  c #8791A6",
"V  c #8992A7",
"C  c #8792A8",
"Z  c #8B94AA",
"A  c #9593A2",
"S  c #9B9BAA",
"D  c #8D9AB0",
"F  c #949DB1",
"G  c #9DA0B1",
"H  c #93A2BA",
"J  c #9BA5B9",
"K  c #9CA8BD",
"L  c #A1A3B3",
"P  c #A5A8B7",
"I  c #A2A7B8",
"U  c #A6AABB",
"Y  c #A9AEBD",
"T  c #9CABC1",
"R  c #A2AEC2",
"E  c #A1B0C6",
"W  c #ACB2C2",
"Q  c #ADB7C9",
"!  c #ACBACE",
"~  c #B0B7C7",
"^  c #B1B7C8",
"/  c #B4BBCB",
"(  c #ADBCD1",
")  c #B0BDD1",
"_  c #B3C0D4",
"`  c #BAC4D5",
"'  c #BBC6D9",
"]  c #BDC9DB",
"[  c #C1CDDD",
"{  c #C2CEE0",
"}  c #C5D2E3",
"|  c #C8D5E6",
" . c #C9D7E8",
".. c #CBD9EA",
"X. c None",
/* pixels */
"X.X.X.X.X.X.X.X.X.X.X.X.X.X.X.X.X.X.X.X.X.X.X.X.X.X.X.X.X.X.X.X.X.X.X.X.X.X.X.X.X.X.X.X.X.X.X.X.X.X.",
"X.X.X.X.X.X.X.X.X.X.X.X.X.X.X.X.X.X.X.X.X.X.X.X.X.X.X.X.X.X.X.X.X.X.X.X.X.X.X.X.X.X.X.X.X.X.X.X.X.X.",
"X.X.X.X.X.X.X.X.X.X.X.X.X.X.X.X.X.X.X.X.X.X.X.X.X.X.X.X.X.X.X.X.X.X.X.X.X.X.X.X.X.X.X.X.X.X.X.X.X.X.",
"X.X.X.X.X.X.X.X.X.X.X.X.X.X.X.X.X.X.X.X.X.X.X.X.X.X.X.X.X.X.X.X.X.X.X.X.X.X.X.X.X.X.X.X.X.X.X.X.X.X.",
"X.X.X.X.X.X.X.X.X.X.X.X.X.X.X.X.X.X.X.X.X.X.X.X.X.X.X.X.X.X.X.X.X.X.X.X.X.X.X.X.X.X.X.X.X.X.X.X.X.X.",
"X.X.X.X.X.X.X.X.X.X.X.X.X.X.X.X.X.X.X.X.X.X.X.X.X.X.X.X.X.X.X.X.X.X.X.X.X.X.X.X.X.X.X.X.X.X.X.X.X.X.",
"X.X.X.X.X.X.X.@ # @ @ @ # @ # # @ @ @ @ @ @ # @ X.X.X.X.X.X.X.X.X.X.X.X.X.X.X.X.X.X.X.X.X.X.X.X.X.X.",
"X.X.X.X.X.X.@ @ @ @ @ @ @ @ + # @ @ @ @ @ @ @ @ @ X.X.X.X.X.X.X.X.X.X.X.X.X.X.X.X.X.X.X.X.X.X.X.X.X.",
"X.X.X.X.X.X.@ @ @ @ @ + + + + + + @ @ @ @ @ @ @ @ X.X.X.X.X.X.X.X.X.X.X.X.X.X.X.X.X.X.X.X.X.X.X.X.X.",
"X.X.X.X.@ @ @ @ @ + + + + + + + O O + + + + @ @ @ @ @ X.X.X.X.X.X.X.X.X.X.X.X.X.X.X.X.X.X.X.X.X.X.X.",
"X.X.X.@ @ @ @ @ @ @ # # # # # # @ @ @ @ @ @ @ @ @ @ @ @ X.X.X.X.X.X.X.X.X.X.X.X.X.X.X.X.X.X.X.X.X.X.",
"X.X.X.@ @ @ @ @ $ % ; : > , , 1 < < : : ; = % @ @ @ @ @ X.X.X.X.X.X.X.X.X.X.X.X.X.X.X.X.X.X.X.X.X.X.",
"X.@ # @ @ + + + % < 6 e f g k z z g f t 0 < = @ + + @ @ @ @ X.X.X.X.X.X.X.X.X.X.X.X.X.X.X.X.X.X.X.X.",
"@ @ @ @ # @ + @ ; 7 h M F J Y W Y U F V l e < @ + + # @ @ @ @ X.X.X.X.X.X.X.X.X.X.X.X.X.X.X.X.X.X.X.",
"@ @ @ # @ $ $ = 4 s C T ( ' ] { { ' ) E D j 7 : % $ # @ @ @ @ X.X.X.X.X.X.X.X.X.X.X.X.X.X.X.X.X.X.X.",
"@ @ @ + # & < 6 s M K ( ] }  ... .| ] _ R V h 0 < = $ + @ @ @ @ # X.X.X.X.X.X.X.X.X.X.X.X.X.X.X.X.X.",
"@ @ + + @ : 7 h B K ~ ` [ { { } } { ] ] ( R Z l e < % + + @ @ @ # # # # # # # # # # # o # # X.X.X.X.",
"@ @ @ + @ < y B K ! ' ` ` / ~ ~ ^ / ` ' ' ( E D h 4 % + + @ @ @ # # O # # # # # # # # # # # # X.X.X.",
"@ @ + + & 2 h J _ ' [ ` P A v c v m L / ] ] _ U l 6 $ o o O + + O # # O     # # #   o # # # # # X.X.",
"@ @ + + @ 3 c U ' { [ ~ m u 3 1 3 q c Y ' } ] / n 8 $ O O + + + o # O # # # #   # # o # o # # # @ @ ",
"@ @ + + $ 5 v / { | ] W x 1 $ + # > p L [ } } / S u > & & = ; * * * * * * * * * * * * % $ # o # @ @ ",
"@ @ + + $ 5 b / }  .] U a , +   X * u G [ } } ` P b i q w w r r w w u u u r r u u w q 2 * # # # @ @ ",
"@ @ + + $ 5 v / } ..] W z , +   o ; u G ` | [ [ / U S S S S S S S S S S S S S S S S b i 1 # # # @ @ ",
"@ + + + $ 4 v ~ } ..] Y z , # X + ; i L ` [ } [ ` [ ` ` ` ` ` ` ` ` ` ` ` ` ` ` [ [ Y v 3 $ o # # @ ",
"@ @ + O $ 4 b ~ } | [ U z 1 # X # ; i G ` } [ ] [ } | | | } | } } } } } } } } }  .| / n 4 % + + @ @ ",
"@ @ + + $ 4 v / }  .[ U z , # X + ; p L ' } { [ [ } } | | | | } } } } } [ } { } | | _ b 4 @ + + @ @ ",
"@ @ + + $ 3 v / } | { Y z 1 + X + * p G ' } [ [ [ ` ` ` ` ` ` [ ] ] ] ] [ ] ] ] [ [ Q v 3 $ + + @ @ ",
"@ @ @ + $ 3 v / }  .[ Y z , +   + * i G ` | } ] / P G S S S L U Q ) ) ) / / ) ) _ _ U x 3 % + + @ @ ",
"# # + + $ 5 b / }  .[ U g ,       * u L ' | } ` U v p w q r g n H T E T T T T T E T F h 2 @ + + @ @ ",
"+ + + + $ 5 b ~ { | [ U z 1 $ # # , i L '  .} _ S u > $ $ ; 4 h Z H H H H H H D K H C y < $ + @ @ @ ",
"# # + + $ 3 x W ' } [ Y m u 5 1 3 q v Y ] { ] Q n 8 $ o X @ < d C T T T T T T T T K D f 2 @ + + # @ ",
"# @ + + # 2 h J / ` [ [ P A v c v m L / ] ] _ T c 4 $ X X + < k H ( ( ( ( ( ( ( _ ! J k 2 $ + + @ @ ",
"+ @ + + $ < s C T ( _ ] ` / / Q Q / ` ' ' ) E D h 4 % o o # 3 v W ` ] ` ` ` ` ` ] ] W c 3 $ + # @ @ ",
"# # + + @ : 7 h B K ! ' ] { } { } { ] ' ) R Z l e < % O o % 5 b / [ ) Y P P P U / [ / b 5 % o + @ @ ",
"# + # + @ = < 6 s M K ( ] } | .. .} [ _ R V h 7 2 = @ @ O % 5 m / ` P c a p a v P ` / m 5 $ O + @ # ",
"# # # # @ $ $ - 4 s C T ( ' [ [ { ] ( R D j 8 : @ @ @ + O % 5 n ~ Y b 5 > * > 5 c Y ~ m 5 % o # @ @ ",
"# @ # @ @ + + # ; 6 h M F J Y W Y U F V l e , $ @ @ @ + + @ 2 z S A u ; # X # * u A S z 2 $ + # @ @ ",
"X.@ @ @ # @ + + % < 6 t p g z x x g f t 0 < = @ + @ @ + @ @ > 0 a u 2 % o X o $ 2 u a 9 > $ + + @ @ ",
"X.X.X.@ @ + # + @ = ; : > , , 1 < < : : : = $ @ @ @ @ @ @ @ % : > > * # # o # # * > > * $ # # # @ @ ",
"X.X.X.@ @ @ # @ @ @ # + # # # # @ @ @ @ @ @ @ @ @ @ @ @ @ @ @ @ # # # # # # # # # # # # # # + # @ @ ",
"X.X.X.X.@ @ @ @ @ @ + + O o + O + O + + + + @ @ @ @ @ @ @ @ @ + + + + @ @ @ @ @ # o o + # # # + @ @ ",
"X.X.X.X.X.X.@ @ @ @ @ @ @ @ @ @ + @ + @ + @ @ @ @ X.X.X.@ @ @ @ + @ @ @ @ @ @ @ # # + # # # # X.X.X.",
"X.X.X.X.X.X.@ @ @ @ @ @ @ @ @ @ @ # @ @ # @ @ @ @ X.X.X.@ @ @ @ @ @ @ @ @ @ @ @ # + # + @ @ # X.X.X.",
"X.X.X.X.X.X.X.@ @ @ @ @ @ @ @ @ @ @ @ @ @ @ @ @ X.X.X.X.X.@ @ @ @ @ @ @ @ @ @ @ # # # # # @ X.X.X.X.",
"X.X.X.X.X.X.X.X.X.X.X.X.X.X.X.X.X.X.X.X.X.X.X.X.X.X.X.X.X.X.X.X.X.X.X.X.X.X.X.X.X.X.X.X.X.X.X.X.X.X.",
"X.X.X.X.X.X.X.X.X.X.X.X.X.X.X.X.X.X.X.X.X.X.X.X.X.X.X.X.X.X.X.X.X.X.X.X.X.X.X.X.X.X.X.X.X.X.X.X.X.X.",
"X.X.X.X.X.X.X.X.X.X.X.X.X.X.X.X.X.X.X.X.X.X.X.X.X.X.X.X.X.X.X.X.X.X.X.X.X.X.X.X.X.X.X.X.X.X.X.X.X.X.",
"X.X.X.X.X.X.X.X.X.X.X.X.X.X.X.X.X.X.X.X.X.X.X.X.X.X.X.X.X.X.X.X.X.X.X.X.X.X.X.X.X.X.X.X.X.X.X.X.X.X.",
"X.X.X.X.X.X.X.X.X.X.X.X.X.X.X.X.X.X.X.X.X.X.X.X.X.X.X.X.X.X.X.X.X.X.X.X.X.X.X.X.X.X.X.X.X.X.X.X.X.X.",
"X.X.X.X.X.X.X.X.X.X.X.X.X.X.X.X.X.X.X.X.X.X.X.X.X.X.X.X.X.X.X.X.X.X.X.X.X.X.X.X.X.X.X.X.X.X.X.X.X.X."
};
