/* XPM */
static char *result[] = {
/* columns rows colors chars-per-pixel */
"50 50 159 2 ",
"   c #3C4458",
".  c #3D4459",
"X  c #3E455A",
"o  c #3F465B",
"O  c #3F475B",
"+  c #40475C",
"@  c #41485D",
"#  c #41495D",
"$  c #42495E",
"%  c #42495F",
"&  c #434A5F",
"*  c #444B60",
"=  c #454C61",
"-  c #464D62",
";  c #474D63",
":  c #474E63",
">  c #474E64",
",  c #484F64",
"<  c #495065",
"1  c #4A5166",
"2  c #4B5267",
"3  c #4C5368",
"4  c #4E556A",
"5  c #4F566B",
"6  c #4D546C",
"7  c #4E556D",
"8  c #4F566C",
"9  c #525972",
"0  c #535972",
"q  c #535A73",
"w  c #545B70",
"e  c #565D73",
"r  c #575E73",
"t  c #596076",
"y  c #5B627A",
"u  c #5D647A",
"i  c #5E647A",
"p  c #5E657A",
"a  c #5B617D",
"s  c #60667C",
"d  c #636A80",
"f  c #646B81",
"g  c #656B81",
"h  c #666C82",
"j  c #676D83",
"k  c #646A87",
"l  c #656B88",
"z  c #656B89",
"x  c #666C8A",
"c  c #697086",
"v  c #6A7086",
"b  c #6A7187",
"n  c #6C7289",
"m  c #6C7389",
"M  c #6D7389",
"N  c #6D738A",
"B  c #6E748B",
"V  c #6B718E",
"C  c #71788E",
"Z  c #72788F",
"A  c #707696",
"S  c #707697",
"D  c #717797",
"F  c #757C94",
"G  c #777E94",
"H  c #777E95",
"J  c #797F96",
"K  c #717798",
"L  c #727898",
"P  c #727899",
"I  c #737999",
"U  c #747A9A",
"Y  c #757B9A",
"T  c #767C9A",
"R  c #777D9B",
"E  c #777D9C",
"W  c #787E9D",
"Q  c #797F9E",
"!  c #7B8198",
"~  c #7C82A0",
"^  c #7C82A1",
"/  c #7D83A1",
"(  c #7D83A2",
")  c #7E84A2",
"_  c #81879F",
"`  c #8086A1",
"'  c #8187A1",
"]  c #8086A4",
"[  c #8187A4",
"{  c #8187A5",
"}  c #848AA1",
"|  c #858BA2",
" . c #8288A4",
".. c #8389A7",
"X. c #848BA4",
"o. c #878DA4",
"O. c #878EA5",
"+. c #888FA6",
"@. c #868CA8",
"#. c #878DA9",
"$. c #878DAA",
"%. c #888EA8",
"&. c #888EAA",
"*. c #888EAB",
"=. c #898FAC",
"-. c #8A90A7",
";. c #8B91A8",
":. c #8D93AB",
">. c #8E94AB",
",. c #8A90AC",
"<. c #8B91AC",
"1. c #8A90AD",
"2. c #8C92AE",
"3. c #8D93AE",
"4. c #8D93AF",
"5. c #8E94AC",
"6. c #8E95AC",
"7. c #8F96AD",
"8. c #8F95AE",
"9. c #8E94AF",
"0. c #9097AE",
"q. c #9097AF",
"w. c #8F95B0",
"e. c #8F95B1",
"r. c #9096B1",
"t. c #9096B2",
"y. c #9197B2",
"u. c #9298B2",
"i. c #9399B3",
"p. c #959BB2",
"a. c #949AB3",
"s. c #959BB3",
"d. c #949AB4",
"f. c #969CB4",
"g. c #979DB5",
"h. c #979DB6",
"j. c #979DB7",
"k. c #999FB6",
"l. c #989EB7",
"z. c #999FB7",
"x. c #9AA0B8",
"c. c #9AA0B9",
"v. c #9AA0BA",
"b. c #9BA1BA",
"n. c #9CA2BA",
"m. c #9CA2BB",
"M. c #9DA3BB",
"N. c #9EA4BC",
"B. c #9EA4BD",
"V. c #9FA5BD",
"C. c #A0A6BE",
"Z. c #A1A7BE",
"A. c #A1A7BF",
"S. c #A2A8BF",
"D. c #A2A8C0",
"F. c #A3A9C1",
"G. c #A3A9C2",
"H. c #A4A9C2",
"J. c None",
/* pixels */
"J.J.J.J.J.J.J.J.& & @ + , f O.z.e./ P S I / 9.n.C.C.V.V.V.V.C.V.j.*.R l 0 - @ $ & & J.J.J.J.J.J.J.J.",
"J.J.J.J.J.J.J.J.& & @ + , f O.z.e./ P S I / 9.n.C.C.V.V.V.V.C.V.j.*.R l 0 - @ $ & & J.J.J.J.J.J.J.J.",
"J.J.J.J.J.J.J.J.& & @ + , f O.z.e./ P S I / 9.n.C.C.V.V.V.V.C.V.j.*.R l 0 - @ $ & & J.J.J.J.J.J.J.J.",
"J.J.J.J.J.J.J.J.& & @ + , f O.z.e./ P S I / 9.n.C.C.V.V.V.V.C.V.j.*.R l 0 - @ $ & & J.J.J.J.J.J.J.J.",
"J.J.J.J.J.J.J.J.& & @ + , f O.z.e./ P S I / 9.n.C.C.V.V.V.V.C.V.j.*.R l 0 - @ $ & & J.J.J.J.J.J.J.J.",
"J.J.J.J.J.J.J.J.& & @ + , f O.z.e./ P S I / 9.n.C.C.V.V.V.V.C.V.j.*.R l 0 - @ $ & & J.J.J.J.J.J.J.J.",
"J.J.J.J.J.J.J.J.& & @ + , f O.z.e./ P S I / 9.n.C.C.V.V.V.V.C.V.j.*.R l 0 - @ $ & & J.J.J.J.J.J.J.J.",
"J.J.J.J.J.J.J.J.& & @ + , f O.z.e./ P S I / 9.n.C.C.V.V.V.V.C.V.j.*.E z q - @ $ & & J.J.J.J.J.J.J.J.",
"J.J.J.J.J.J.J.J.& & @ + , f O.z.e./ P S I / 9.n.C.C.V.V.V.V.C.V.j.=.W x q - @ $ & & & & & & & & & & ",
"J.J.J.J.J.J.J.J.& & @ + , f O.z.e./ P S I / 9.n.C.C.V.V.V.V.Z.V.h.$.T k 9 - @ $ & & & & & & & & & & ",
"J.J.J.J.J.J.J.J.& & @ + , f O.z.e./ P S I / 9.n.C.C.V.V.V.V.A.V.a.` V a 7 = # $ $ $ $ $ $ $ $ $ $ $ ",
"J.J.J.J.J.J.J.J.& & @ + , f O.z.e./ P S I / 9.n.C.C.V.V.V.V.S.V.q.F y 6 > * $ # @ @ @ @ @ @ @ @ @ @ ",
"J.J.J.J.J.J.J.J.& & @ + , f O.z.e./ P S I / 9.n.C.C.V.V.V.V.D.V.>.N 5 % $ & * = - - - - - - - - - - ",
"J.J.J.J.J.J.J.J.& & @ + , f O.z.e./ P A I ( 9.M.A.C.V.V.V.C.G.A.5.v <   . $ > 7 9 q q 0 0 0 0 0 0 0 ",
"J.J.J.J.J.J.J.J.& & @ + , f O.z.e./ P A I ) w.M.A.C.V.V.V.C.H.D.6.b 1     % 6 a k x z l l l l l l l ",
"J.J.J.J.J.J.J.J.& & @ + , f O.z.e./ I S I ~ <.l.M.B.V.V.V.N.M.g.o.n w 1 < 5 y V T W E R R R R R R R ",
"J.J.J.J.J.J.J.J.& & @ + , f O.z.e./ I D I Q { <.i.c.N.A.C.z.;.! Z B n b v N F ` $.=.*.*.*.*.*.*.*.*.",
"J.J.J.J.J.J.J.J.& & @ + , f O.z.e./ I K I Y E ^ #.d.N.D.A.s.J s p Z o.6.5.>.q.a.h.j.j.j.j.j.j.j.j.j.",
"J.J.J.J.J.J.J.J.& & @ + , f O.z.e./ I L I L K U [ u.N.F.A.p.G i s ! g.D.A.V.V.V.V.V.V.V.V.V.V.V.V.V.",
"J.J.J.J.J.J.J.J.& & @ + , f O.z.e./ I L I L S I ] u.V.F.A.k.o.G J ;.M.H.G.D.S.A.Z.C.C.C.C.C.C.C.C.C.",
"J.J.J.J.J.J.J.J.& & @ + , f O.z.e./ I L I L K U ] y.M.A.C.M.k.p.s.z.N.C.C.V.V.V.V.V.V.V.V.V.V.V.V.V.",
"J.J.J.J.J.J.J.J.& & @ + , g +.x.r.^ L D I I L U / ,.d.c.N.C.A.A.A.C.V.V.V.V.V.V.V.V.V.V.V.V.V.V.V.V.",
"J.J.J.J.J.J.J.J.& & @ + , h -.b.t.^ K D I I P U W ) @.r.c.A.F.F.D.A.V.V.V.V.V.V.V.V.V.V.V.V.V.V.V.V.",
"J.J.J.J.J.J.J.J.& & @ + , d | f.9./ U P I I I I I U Q @.d.M.V.N.N.N.V.V.V.V.V.V.V.V.V.V.V.V.V.V.V.V.",
"J.J.J.J.J.J.J.J.& & $ @ ; t C _ X. .) Q Y I I I L D U ) ,.y.u.u.d.c.B.C.C.C.C.C.C.C.C.C.C.C.C.C.C.C.",
"J.J.J.J.J.J.J.J.& & & $ = 3 e f H %.3...E L L I P L I W / ] ] [ #.i.M.A.A.C.C.C.C.C.C.C.C.C.C.C.C.C.",
"J.J.J.J.J.J.J.J.& & & & & $ & 8 B :.j.1.Q L L I I I I U U U I U ^ <.l.M.M.n.n.n.n.n.n.n.n.n.n.n.n.n.",
"J.J.J.J.J.J.J.J.J.& & & & o X 1 m 0.m.4.Q D S L L I I P L K S K E { <.w.9.9.9.9.9.9.9.9.9.9.9.9.9.9.",
"J.J.J.J.J.J.J.J.J.J.J.& & + O 3 M 7.v.2.Q D D L L I I I I L L L Y Q ~ ) ( / / / / / / / / / / / / / ",
"J.J.J.J.J.J.J.J.J.J.J.& & @ @ 2 j } 8.&./ Q Q Q E Y I I I I I I I I I I I I I I I I I I I I I I I I ",
"J.J.J.J.J.J.J.J.J.J.J.& & $ $ , r c H ' &.2.4.1...Q P D D L L L K D S A A S S S S S S S S S S S S S ",
"J.J.J.J.J.J.J.J.J.J.J.& & & & * : 4 u H 8.v.m.j.3.) U K L I I I I I I P P P P P P P P P P P P P P P ",
"J.J.J.J.J.J.J.J.J.J.J.& & & & & + @ 4 c } 7.0.:.%. ./ ^ ^ / / / / / / / / / / / / / / / / / / / / / ",
"J.J.J.J.J.J.J.J.J.J.J.J.J.& & & + + : r j M m B H X.9.t.r.e.e.e.e.e.e.e.e.e.e.e.e.e.e.e.e.e.e.e.e.e.",
"J.J.J.J.J.J.J.J.J.J.J.J.J.J.& & & & * , 2 3 1 8 f _ f.b.x.z.z.z.z.z.z.z.z.z.z.z.z.z.z.z.z.z.z.z.z.z.",
"J.J.J.J.J.J.J.J.J.J.J.J.J.J.& & & & & $ @ O X & e C | -.+.O.O.O.O.O.O.O.O.O.O.O.O.O.O.O.O.O.O.O.O.O.",
"J.J.J.J.J.J.J.J.J.J.J.J.J.J.J.J.& & & $ @ + o $ 3 t d h g f f f f f f f f f f f f f f f f f f f f f ",
"J.J.J.J.J.J.J.J.J.J.J.J.J.J.J.J.J.& & & & & & & = ; , , , , , , , , , , , , , , , , , , , , , , , , ",
"J.J.J.J.J.J.J.J.J.J.J.J.J.J.J.J.J.& & & & & & & $ @ + + + + + + + + + + + + + + + + + + + + + + + + ",
"J.J.J.J.J.J.J.J.J.J.J.J.J.J.J.J.J.J.J.J.J.J.& & & $ @ @ @ @ @ @ @ @ @ @ @ @ @ @ @ @ @ @ @ @ @ @ @ @ ",
"J.J.J.J.J.J.J.J.J.J.J.J.J.J.J.J.J.J.J.J.J.J.& & & & & & & & & & & & & & & & & & & & & & & & & & & & ",
"J.J.J.J.J.J.J.J.J.J.J.J.J.J.J.J.J.J.J.J.J.J.J.& & & & & & & & & & & & & & & & & & & & & & & & & & & ",
"J.J.J.J.J.J.J.J.J.J.J.J.J.J.J.J.J.J.J.J.J.J.J.J.J.J.J.J.J.J.J.J.J.J.J.J.J.J.J.J.J.J.J.J.J.J.J.J.J.J.",
"J.J.J.J.J.J.J.J.J.J.J.J.J.J.J.J.J.J.J.J.J.J.J.J.J.J.J.J.J.J.J.J.J.J.J.J.J.J.J.J.J.J.J.J.J.J.J.J.J.J.",
"J.J.J.J.J.J.J.J.J.J.J.J.J.J.J.J.J.J.J.J.J.J.J.J.J.J.J.J.J.J.J.J.J.J.J.J.J.J.J.J.J.J.J.J.J.J.J.J.J.J.",
"J.J.J.J.J.J.J.J.J.J.J.J.J.J.J.J.J.J.J.J.J.J.J.J.J.J.J.J.J.J.J.J.J.J.J.J.J.J.J.J.J.J.J.J.J.J.J.J.J.J.",
"J.J.J.J.J.J.J.J.J.J.J.J.J.J.J.J.J.J.J.J.J.J.J.J.J.J.J.J.J.J.J.J.J.J.J.J.J.J.J.J.J.J.J.J.J.J.J.J.J.J.",
"J.J.J.J.J.J.J.J.J.J.J.J.J.J.J.J.J.J.J.J.J.J.J.J.J.J.J.J.J.J.J.J.J.J.J.J.J.J.J.J.J.J.J.J.J.J.J.J.J.J.",
"J.J.J.J.J.J.J.J.J.J.J.J.J.J.J.J.J.J.J.J.J.J.J.J.J.J.J.J.J.J.J.J.J.J.J.J.J.J.J.J.J.J.J.J.J.J.J.J.J.J.",
"J.J.J.J.J.J.J.J.J.J.J.J.J.J.J.J.J.J.J.J.J.J.J.J.J.J.J.J.J.J.J.J.J.J.J.J.J.J.J.J.J.J.J.J.J.J.J.J.J.J."
};
