/* XPM */
static char *result[] = {
/* columns rows colors chars-per-pixel */
"50 50 123 2 ",
"   c #3F475C",
".  c #3F485F",
"X  c #3E4761",
"o  c #3F4860",
"O  c #40475C",
"+  c #42495F",
"@  c #4B4D5F",
"#  c #5A5757",
"$  c #5A5856",
"%  c #55515E",
"&  c #595559",
"*  c #424A60",
"=  c #484F64",
"-  c #4E546A",
";  c #565463",
":  c #50576C",
">  c #555B6D",
",  c #565D71",
"<  c #615561",
"1  c #785E61",
"2  c #987D3E",
"3  c #937746",
"4  c #967A43",
"5  c #91734D",
"6  c #8C6E52",
"7  c #84645E",
"8  c #88685A",
"9  c #A2705F",
"0  c #B4765D",
"q  c #B5785E",
"w  c #836361",
"e  c #877373",
"r  c #B47760",
"t  c #B57B62",
"y  c #CB7F57",
"u  c #CA7D5B",
"i  c #C97E62",
"p  c #FBB916",
"a  c #F4B41B",
"s  c #F8B719",
"d  c #D49E2D",
"f  c #CF9834",
"g  c #CD933E",
"h  c #DB933D",
"j  c #DF9A3E",
"k  c #E39E37",
"l  c #E1973F",
"z  c #E29C3A",
"x  c #D7A326",
"c  c #D8A425",
"v  c #EDAC25",
"b  c #E7A32E",
"n  c #E9A62D",
"m  c #ECA92A",
"M  c #F0AF22",
"N  c #F2B021",
"B  c #F8B223",
"V  c #E5A134",
"C  c #EAA334",
"Z  c #E7A038",
"A  c #BD8153",
"S  c #C28849",
"D  c #D68C45",
"F  c #D88F43",
"G  c #D1864E",
"H  c #D58D4D",
"J  c #D88A4A",
"K  c #DA9346",
"L  c #D7904A",
"P  c #D89149",
"I  c #CF8556",
"U  c #CD835B",
"Y  c #CF895E",
"T  c #D08756",
"R  c #D38A53",
"E  c #D28659",
"W  c #CC8462",
"Q  c #D08663",
"!  c #D28960",
"~  c #646A80",
"^  c #696F85",
"/  c #6A7086",
"(  c #6C7288",
")  c #72798D",
"_  c #7E8599",
"`  c #7C82A0",
"'  c #8B858D",
"]  c #898E9C",
"[  c #BB9283",
"{  c #8085A2",
"}  c #868CA4",
"|  c #888DA4",
" . c #878CA8",
".. c #8D92AC",
"X. c #9297AF",
"o. c #9398AF",
"O. c #959AB1",
"+. c #989DB4",
"@. c #9DA2B7",
"#. c #9EA3B8",
"$. c #A0A5BA",
"%. c #A5ABBE",
"&. c #A8ADBF",
"*. c #D19F8C",
"=. c #D2A08A",
"-. c #C1B2AF",
";. c #D9C5BF",
":. c #A7ADC1",
">. c #A9AFC2",
",. c #ACB2C3",
"<. c #B0B5C6",
"1. c #B5BACA",
"2. c #BDC1CC",
"3. c #BCC1D0",
"4. c #D9C5C0",
"5. c #DEC9C2",
"6. c #C1C6D2",
"7. c #C1C9D7",
"8. c #C4CCDA",
"9. c #CBD0DA",
"0. c #D6D8DE",
"q. c #D9DBE1",
"w. c None",
/* pixels */
"w.w.w.+ + + = + + + + + + * * + + + * + + + * * + = + * + + + * + + * + * + * + + = + + * + + w.w.w.",
"w.w.w.* * + + + + + + * + = + + * + + = + + + + + + + + + * = + . . + + * + + * + * + + + + * w.w.w.",
"w.w.* + + . + + X X X X . X X X X X . X X X X X + X X X X X . X X X X X X X X X X o + . + * + * w.w.",
"+ + + + + + + + X . X . . . X . X . X + X X X X X + X . X . X + . X .   * o o o o . . + + * + + + + ",
"* + + * * @ % % & & $ $ $ $ $ $ $ $ $ $ $ $ $ $ $ $ $ $ $ $ $ $ $ $ $ $ $ $ $ $ $ # % % = + + + + + ",
"+ + * * @ < 1 8 5 3 2 2 2 2 2 2 2 2 2 2 2 2 2 2 2 2 2 2 2 2 2 2 2 2 2 2 2 2 2 2 4 5 8 1 & @ * + + = ",
"+ * . O ; 1 9 A g x c x x x x x c c c c c c c c c x c c c c c c x x x x x x c c x F A 9 1 ; * . + + ",
"+ + . . ; 8 S K n a s s a s s s s s a a a s a s s a a s a s s a s s s s s s s s N C K A 8 & X . + + ",
"* = O * & 5 g C B s p p s p p s p s p p p s p p p p p p p s p p p s p s p p p p s B n F 5 & X . @ + ",
"+ + X X $ 4 x M s B a a a a a a a a a a a a a a a a a a a a a a N a a a a a a a N a M x 4 $ . X + + ",
"+ + X . & 3 f m m n C n n n n n n n n n n b n C n n n n n n n b n n n n n n n n m m m f 3 # X X + + ",
"+ + X * & 6 S K K P P P P P P P K P P P P P P P P P P P K P P P P P P P P P K K K K K S 6 % . X * * ",
"+ + . . % 7 q E E T T T I E I U U U U U U T T I U I U U I U U I I T T T U U U U Y E U q 7 % + . + = ",
"+ * . . ; 7 r U R L K K P R U i W u U T L P K K H U W i W u I H P K L H T W i i W W W q w % + . + + ",
"+ + * * % w q T l Z n n n j R W t U U P V n n n z H u t W U P k n m n z H U i i i i i q w % + X + + ",
"* + + + % w q R Z M a a v Z H U W U H k v a a v V H U W U H z v a a v V P U u E E E E q 7 % . . + + ",
"* * . X % w q H V M a m k P I U T P z v a a v V K T U I L j m a a v V K R Y I P K P Y q w % . . + + ",
"+ O . * % w q R V M v z H U U I P V v a a v z H U U I P V m a a v k P T U U L k n z R q 7 ; O X + + ",
"+ * . O % w q R Z n V P U U I H j v a a v V L U U I H j v a a v b K U U U R j m M V H q w % . . @ + ",
"@ + X * % w q E K K P T U I K V v a a m z K T U I P Z n a a m Z P I U I L k m a a C R q w % . . + + ",
"+ + * + % 7 q E Y T U U Y L k v a a v k H U U U H V v a a M k H U U U H k v N a v Z R q 7 % . . + + ",
"* + . . % 7 q U U U i U U L k m v n V F U U q U H j m v m V h T u i u T z n M m n j R q 7 % + . * + ",
"+ + . + % 7 0 u u u u u A R K j h h h G y u u u G D h h g D G I u u u G L K K f F J I 0 7 % . . + + ",
"* + . X ; w r W W W W W W Y Y Y Y Y Y W W W W W U U Y Y Y Y Y W W W W W Y Y Y Y Y ! W r w ; . . * * ",
"+ +   + ; e [ =.=.=.=.=.=.=.=.=.*.*.*.*.*.=.=.*.*.*.*.*.*.*.*.*.=.=.=.=.*.*.*.*.=.=.=.[ e % +   @ + ",
"+ *   O > ' -.;.;.9.;.;.;.;.;.;.4.4.4.5.;.;.;.5.4.;.4.4.4.4.;.4.;.5.;.;.4.4.4.4.5.5.;.-.' >     * + ",
"+ + + O > ] 6.0.q.q.q.q.q.q.0.q.q.0.q.q.0.0.q.q.0.q.0.q.q.q.0.0.q.q.q.q.0.q.q.q.0.q.0.2.] , O   + = ",
"* + + + > ] &.7.9.3.3.3.3.9.3.3.3.3.3.9.3.3.3.3.3.8.3.8.3.3.8.3.3.8.3.3.3.3.3.9.8.9.8.,._ > O   + * ",
"O = O + : ) o.,.:.:.%.%.:.:.:.:.2.:.:.:.%.%.%.%.%.:.%.%.,.:.:.%.%.%.:.%.%.%.%.%.%.:.:.O.) : +   + + ",
"+ + O O - / | O.+.+.O.O.O.O.O.O.X.O.X.X.X.@.O.O.O.O.O.O.@.O.O.O.O.O.O.O.O.O.O.O.O.@.@.| / - O + + + ",
"+ + O O - / } o.O.X.X.X.X.X.X.X.X.X.X.X.X.X.X.X.X.X.X.X.X.X.X.X.o.X.X.X.o.o.o.o.X.o.X.} / - O + + + ",
"O = O   - / | O.+.O.O.O.O.O.O.O.O.O.O.O.O.O.O.O.O.O.O.O.O.O.O.O.O.O.O.O.O.O.O.o.o.@.o.} / : + + + + ",
"+ + O O - / | O.+.o.O.O.O.O.O.O.O.O.O.O.O.O.O.O.O.O.O.O.O.O.O.O.O.O.O.O.O.O.O.o.O.O.O.| ( : O O + + ",
"+ + O + - / | O.O.o.o.o.O.O.O.O.O.O.O.O.O.O.O.o.O.O.O.O.O.O.o.O.O.O.O.O.O.O.o.o.O.O.O.| ^ : O O + = ",
"+ O + O - / | o.@.O.O.o.O.O.O.O.o.O.O.O.O.O.O.O.O.O.O.O.O.O.O.O.O.O.O.O.O.O.O.O.O.+.O.| ^ : O O + + ",
"+ = + O - / | @.%.%.%.@.+.o.O.O.O.O.O.O.O.O.O.O.O.O.O.O.O.O.O.O.O.o.O.O.o.O.$.%.&.%.+.| ^ ; O + * + ",
"= O O O : / } #.1.6.1.%.+.o.o.O.O.O.O.O.O.O.O.O.O.O.O.O.O.O.O.O.O.O.O.o.o.+.&.6.7.1.$.| ^ : O O * + ",
"+ + + O - / } %.6.9.7.,.+.o.o.O.O.O.O.O.O.O.O.O.O.o.O.O.O.O.O.O.O.O.O.O.o.+.&.6.9.1.$.| ^ - O O + + ",
"+ O O + - / ] #.,.1.<.%.+.o.O.O.O.O.O.O.O.O.O.O.O.O.O.O.O.o.O.O.O.O.O.o.o.+.$.<.1.<.$.| ^ : + O + * ",
"+ = O O - / } O.o.X.X.o.O.O.O.O.O.O.O.O.O.O.O.O.O.O.O.O.O.O.O.O.O.O.O.O.O.O.O.o.X.O.o. .^ : + O + @ ",
"+ + O + : (  .X. ._ ` ..o.O.+.O.O.O.O.O.O.O.O.O.O.O.O.O.O.O.O.O.O.O.O.O.+.o. .{ _  .X.} ^ - O O + * ",
"+ + O O - ( | O... .} X.O.+.+.+.+.+.+.+.+.O.+.+.+.+.+.+.+.+.+.+.+.+.+.+.+.O.X.}  ...o. .( - * O + * ",
"* + + + - ( | O.X.X.X.o.+.O.O.O.O.O.O.O.O.O.O.+.O.O.O.+.O.O.O.O.O.O.O.O.o.+.o.X.X.o.O.} ^ : O O + + ",
"= + + * > , _ |  .| }  . .| | | | | | | | | | | | | | | | | } ] | | | | |  .| | }  .| ] , : * O * + ",
"+ + + + = , ~ ^ ( ^ ^ ( ^ ^ ^ ^ ^ ^ ^ ^ ^ ^ ( ^ / / / / / / / / ^ ^ ^ ^ ^ ^ ( ^ ( ( ) , , = O * @ + ",
"+ + + + * = - : : : : : : - : : : : : - : - - - - - - - - - - - : : : : : : : : : : : - : = = * * + ",
"+ + + + @ O + O O O O O O O O O + O O + O O + O O + + O O O + + O O O O + O O + O O + + + * O + * + ",
"w.w.+ @ + + O + O O + O + O O O O O + O O + O + O O + O + O + + O O O O O O + O O O O O + O @ + w.w.",
"w.w.w.* + + + * + + * * @ + * + + * + + + + @ + + + * + + + + = = O O + @ * * + * + * + * + + w.w.w.",
"w.w.w.+ + * + @ * + + + * + + + + + + = + + + + * + = + + + + + O = = O O * @ * * O + @ * + + w.w.w."
};
