/* XPM */
static char *result[] = {
/* columns rows colors chars-per-pixel */
"50 50 97 2 ",
"   c #3F465B",
".  c #40475C",
"X  c #42495E",
"o  c #444B60",
"O  c #484F64",
"+  c #4D546A",
"@  c #50566B",
"#  c #535A6E",
"$  c #575E71",
"%  c #62687E",
"&  c #FCB60E",
"*  c #F7B517",
"=  c #F9B612",
"-  c #F4B41B",
";  c #DDAD3E",
":  c #EDB226",
">  c #E7B12F",
",  c #EAB12B",
"<  c #F1B321",
"1  c #E3AF37",
"2  c #E1AF3A",
"3  c #E5B033",
"4  c #BFA66F",
"5  c #B6A177",
"6  c #BCA574",
"7  c #B5A27C",
"8  c #B9A579",
"9  c #D6AB47",
"0  c #DAAD43",
"q  c #D5AC4C",
"w  c #CFAA56",
"e  c #CDAA5D",
"r  c #D1AA52",
"t  c #D1AC59",
"y  c #C5A765",
"u  c #CAAA62",
"i  c #C1A66B",
"p  c #C5A96D",
"a  c #C8AA68",
"s  c #646A80",
"d  c #696F86",
"f  c #676F8B",
"g  c #6A7086",
"h  c #67708B",
"j  c #6A7189",
"k  c #70768B",
"l  c #777D90",
"z  c #7F8596",
"x  c #7D8299",
"c  c #848A9A",
"v  c #898F9D",
"b  c #AF9F82",
"n  c #A79D8F",
"m  c #A99E8C",
"M  c #A69E96",
"N  c #A89F93",
"B  c #A29E9C",
"V  c #ADA18C",
"C  c #B2A284",
"Z  c #B8A682",
"A  c #B1A38C",
"S  c #A9A093",
"D  c #A7A09B",
"F  c #878DA4",
"G  c #888DA4",
"H  c #8C92A1",
"J  c #9D9CA5",
"K  c #9297AF",
"L  c #969AAE",
"P  c #9B9CAB",
"I  c #8F98BB",
"U  c #9197B1",
"Y  c #949AB3",
"T  c #999EB3",
"R  c #919AB9",
"E  c #989FB9",
"W  c #A09DA0",
"Q  c #9EA2B5",
"!  c #A3A1A3",
"~  c #ABB1BF",
"^  c #AEB3C4",
"/  c #ABB2C9",
"(  c #B1B7C7",
")  c #B5BAC6",
"_  c #B1B7CA",
"`  c #BDC2CC",
"'  c #C3C9D1",
"]  c #C7CDDB",
"[  c #C9CED9",
"{  c #CDD2DD",
"}  c #D7DCE3",
"|  c #D9DEE6",
" . c #DBE0E6",
".. c #DFE4E9",
"X. c #E0E5EB",
"o. c #E3E8ED",
"O. c None",
/* pixels */
"O.O.O.o X o X X X X X X X X X X X X X O X X X X X o X X X o X X X X X X X X X X X X X o X X X O.O.O.",
"O.O.O.X o X X o X X X X O X X . X X X X X . X X o X X X X X X o X . X X X o X X X X o X X X X O.O.O.",
"O.O.o X X X X . . . . . . . . . . . . . . . . . . . . . . . X . . . . . X . . . . . X X X O X X O.O.",
"X X X o X X X X . . . X . . . . . . . . . . . . . . . . . . . . . . . . . . . . . . . X X X X X X O ",
"X X X X o O O + @ # $ $ $ $ $ $ $ $ $ $ $ $ $ $ $ $ $ $ $ $ $ $ $ $ $ $ $ $ $ $ $ # @ + O X X X X X ",
"X X X X O $ % k c v H H H H H H H H H v H H H v H H H H H H H H v v H H H H H H v c g % # O X X X X ",
"X X X X + s x L ~ ` ' ' ' ' ' ' ' ' ' ' ' ' ' ' ' ' ' ' ' ' ' ' ' ' ' ' ' ' ' ' ` ~ J x % + X . O X ",
"X O . X @ j L ( [ | X.X...X.X.X.X.......X.X.X.......X. .X. .X.X.X.X.X.X.X.o.X.X.} [ ( L k @ . . X X ",
"X X X . # z ^ [ | ..o.o.o.o.o.o.o.o.o.o.o.o.o.o.o.o...o.o...o.o.o.o.o.o.o.o.o.o. .| { ~ c # . . X X ",
"X X   . $ v ` }  .|  . . .| |  . . . . . . . . . . . . ... . ...| | ..| | | | | | ..} ` v # .   X X ",
"X X   . $ c ) { { ] ] ] ] ] ] [ [ [ [ [ [ [ ] [ [ [ [ ] ] ] ] ] ] ] [ [ [ [ [ [ [ { { ) c # .   X X ",
"X X   X # l Q ^ _ / / / / / / / ^ ^ ^ ^ ^ ^ ^ ^ ~ ( ^ ^ / / / / ^ ^ ^ ^ ( ^ ^ ^ ^ ) ( Q l @ . . X O ",
"o X . . + g F T Q Q P P ! Q P P P T T T Q T T T Q P P P P P P Q P T T T T T T T T T T G g + X X X X ",
"o X X . + g F J N C 5 5 7 5 5 7 n J K U K U U U J m 7 5 7 7 5 6 b M L K K K U U R Y Y G d + X . X X ",
"X o X X + f F B 6 q 0 ; 0 ; ; 9 4 B U R U U R K n 4 9 ; 0 ; ; ; t 7 J U U Y Y Y Y T Y G d + . X O X ",
"o X X . + h F S u , - - < < : ; 4 D Y U L L L W 5 ; : - - < < , 9 5 J U R L L J J P L G j + X . X X ",
"X X   X + h F S w : & & * , ; e 7 B K I U P V 6 w > * & & - > 9 i m P U R Y B b 8 A W G j + . X o X ",
"o X X X + h F S e , = = < ; 6 S J P K R K D 4 ; : < * * * : w 7 M J L Y Y L C w 0 i B G f + X . X X ",
"X X X   + h F S e , - < 1 e S K R Y L L D 7 9 : * * - : , 0 4 B R R Y L J N p 2 , t N G f + X . o X ",
"X o     + h F S t : : ; 4 V J U I I J V 4 q 3 - * & - 3 w 6 S L R R Y J C y 0 < , t S G f + . X X o ",
"o o X   + h F S t > 2 4 M L L Q R L B 4 ; : < - * * : q 7 B L L Y R P m e 1 - - , t S G f + X . X o ",
"X X X X + h F D 4 q w A L R Y L P D 5 r : * * - < > 9 4 D Y I U P J m i 0 - = = , e S G f + .   o X ",
"X o   X + g F J S 7 A B Y I I L V 4 9 > < * & * 3 w 8 S P U I R J b e 0 , - & & : t S G f + o o o X ",
"X X X   + g F Q P J J L L Y L B 6 ; : - - - * : q 7 W L L L Y L N u 1 - - - - - > u D G f + . . X X ",
"o X   X + g F Q Q U I Y L J S 6 r , * = * < 3 9 4 S Y I R L W V i 0 < = = - , 2 r 8 B F j + . X o X ",
"X o X   + h F Y R Y I I L S 4 9 > < * = * > w 7 S J Y I R J C e ; , - = = < 2 p C B P G j + X . X o ",
"X o X X + g F Y Y Y L L W 6 9 < - - - - : 9 5 J Y Y L Y P S y 1 - - - - - > r b P T T G d + . X X o ",
"o X   X + g F Y Q R J V 6 w > * & * < 3 q 4 S L I I Y B C 4 0 : = = * : ; e 5 B Y R Y G d + . X o X ",
"X X X . + g H Y Q U S 4 0 > < - = * , r C D J L I U P C w ; : < * = - 2 y m B P Y Y T F g + X . o X ",
"X X . X + g F T Q B 7 9 < * * - < , 0 6 B U R L L P S 4 ; - * - - < > r 7 P R U Y T T F d + . X X X ",
"X O X   + j F J A 6 r > - & = < 3 w 4 S L R I K J 7 4 ; : * & * : ; e 5 B Y R R R T Y F g + X . o X ",
"X X . X + j G B p ; , < - * * : r 7 D L L U R L V e 1 : - - * * 1 y b J P Y Y Y Y Y T F g + . X X o ",
"X X X X + f F S u , = = - < , 0 i B Y R Y L J N i ; - = * - : 1 q 7 P Y Y U J B D ! P F j + X X X o ",
"X X . X + f F S t : = = - 3 t 8 m P R I Y J C u 0 , - = = < ; y 7 B Y R I Y S 6 y 7 ! F h +   X o X ",
"X X X . + h F S u , = = : q 7 W L Y Y Y Y S e 1 : - - * - > u b J L L Y Y P 5 9 2 u S F f + X . o X ",
"X X   X + h F S t , < , 9 i M Y R U L W m i 0 - = = - : 1 r 7 J R R Y P B C e 1 , t S F f +   X X o ",
"o X   X + f F S t : , w 8 S J Y I R J b u ; , - = = - ; y C B P R I U B 6 t 1 - , t S F f + X   o X ",
"O X X . + f F S e 1 0 6 J Y Y Y Y P N y 3 - - - - - > t b J Y Y L Y J C r , - * , u S F f +   X X X ",
"X X X X + h F B 8 e y S Y I Y L B C p 0 < = = * : 2 w 7 W Y I Y J M 5 e 1 * & & : e S F f + X X X o ",
"X X X . + d F P D V N J Y Y Y J C t 1 < * = = - 2 y b W L Y R Y B 6 q 1 - * & = , t S F f + X   o X ",
". o . . @ d G Y T L T L Y Y Y J 8 0 > : , , : 3 r C P T U U U Y B a 2 , , , : , 2 a D H h + o . X o ",
"o o o . @ k G T E E R E T Y Y P A p t t e e t a 8 B Y R E T T Y ! Z u t t u t e a Z ! G h @ o . X o ",
"o o . . + d G T T Y T Y Y T T T W B N N N N N N W W T U T Y T L P B S S S S S S D ! T G j + . . o X ",
"o . . . + s x F G F F F G F F F F F F F G G G G G G F F F F G G F F G G G G F F H G G x s + o . X X ",
"o . o . O $ s d d d d d d d d d f j f f f f f f f f j j d d d d g j f f f f f f f j j s $ O . o X o ",
"X o o o o O @ @ @ @ @ @ @ + @ @ + + + + + + + + @ @ + @ @ @ @ @ + + + + + + + + + + + + O o . o o X ",
"X o o . o X X . . . . o . . . . o . o . . . . o o . . . . X X .   X X   X . . X . X . o . o o o X o ",
"O.O.o o X X X X . . . X . . . . . . . . . o . . . . . o X . . X X X   X . X . . X . . . o o . o O.O.",
"O.O.O.X o o X o o X o o X o o X o X X o X X o X X o X X o X X o o X X o X o X X X o X o X X X O.O.O.",
"O.O.O.o X X X X X o X X X X X o o X o X X o o X o X X o o X o X X o X o o X X o X o o X X o o O.O.O."
};
