/* XPM */
static char *result[] = {
/* columns rows colors chars-per-pixel */
"50 50 152 2 ",
"   c #245734",
".  c #255834",
"X  c #2C5C3D",
"o  c #413C5A",
"O  c #315E42",
"+  c #336346",
"@  c #356749",
"#  c #366A4A",
"$  c #3A6A4E",
"%  c #35714D",
"&  c #3D6D52",
"*  c #3A7352",
"=  c #3B7C55",
"-  c #42435D",
";  c #43745B",
":  c #48765F",
">  c #417B59",
",  c #455563",
"<  c #465A64",
"1  c #4E566C",
"2  c #476066",
"3  c #486668",
"4  c #496C6A",
"5  c #497760",
"6  c #4B7B64",
"7  c #4A736C",
"8  c #47796B",
"9  c #4A7B6D",
"0  c #507E6A",
"q  c #4C7D70",
"w  c #527174",
"e  c #547977",
"r  c #398155",
"t  c #3F845B",
"y  c #398859",
"u  c #3B925D",
"i  c #3C9560",
"p  c #399C62",
"a  c #39A265",
"s  c #3FA468",
"d  c #3FAB6C",
"f  c #418B5F",
"g  c #418E60",
"h  c #449665",
"j  c #459966",
"k  c #469A68",
"l  c #499C6B",
"z  c #4D8472",
"x  c #4D8C73",
"c  c #588573",
"v  c #5F887C",
"b  c #4E9276",
"n  c #4F9B72",
"m  c #539B73",
"M  c #519D7B",
"N  c #46A36B",
"B  c #40AD6D",
"V  c #48A86E",
"C  c #4AAB72",
"Z  c #56A177",
"A  c #54A47C",
"S  c #54AB7F",
"D  c #5CAA7F",
"F  c #49B574",
"G  c #47BB76",
"H  c #48B975",
"J  c #4FB378",
"K  c #50B479",
"L  c #50BD7D",
"P  c #6F9991",
"I  c #719B94",
"U  c #769D99",
"Y  c #54AE81",
"T  c #5CAB88",
"R  c #55B382",
"E  c #56BB84",
"W  c #5EB58B",
"Q  c #79A29C",
"!  c #7DA5A2",
"~  c #7FA8A6",
"^  c #56C484",
"/  c #55C985",
"(  c #58C588",
")  c #5ACC8B",
"_  c #54D186",
"`  c #57D589",
"'  c #5AD38C",
"]  c #55D888",
"[  c #5BD98E",
"{  c #5DD690",
"}  c #5CD890",
"|  c #6BC594",
" . c #62CA92",
".. c #64D496",
"X. c #62D894",
"o. c #66D699",
"O. c #6DD49F",
"+. c #66DC99",
"@. c #74D6A2",
"#. c #72DFA3",
"$. c #7CD9AF",
"%. c #6EE5A3",
"&. c #7CE5AD",
"*. c #77EAAB",
"=. c #7AEDAE",
"-. c #7FEAB1",
";. c #7BF0B0",
":. c #8292AC",
">. c #80A7A4",
",. c #81A9A6",
"<. c #83ABAA",
"1. c #86A3B1",
"2. c #87B0B0",
"3. c #8CB3B4",
"4. c #8BBEB7",
"5. c #8FB6B9",
"6. c #8DC4BC",
"7. c #82EEB5",
"8. c #84F1B7",
"9. c #86F7BC",
"0. c #86F9BC",
"q. c #9CC1CB",
"w. c #8ED7C2",
"e. c #8ED9C2",
"r. c #92D6C5",
"t. c #93DAC8",
"y. c #A1C5CE",
"u. c #A4C7D1",
"i. c #A5CAD6",
"p. c #A9DADF",
"a. c #8AFDC1",
"s. c #B4D5E4",
"d. c #BBDBEC",
"f. c #BDDDF1",
"g. c #BEE0ED",
"h. c #C0DEEF",
"j. c #C0DFF2",
"k. c #C1E1EF",
"l. c #C4E2F4",
"z. c #C9E4F3",
"x. c #C6E4F8",
"c. c #D3E9F6",
"v. c #DAECF7",
"b. c #D4EAFB",
"n. c #DDEEF9",
"m. c #DFF1FD",
"M. c #E0EFF8",
"N. c #E3F1FB",
"B. c #E9F4FB",
"V. c #F6FAFD",
"C. c #F9FCFD",
"Z. c None",
/* pixels */
"Z.Z.Z.Z.Z.Z.Z.Z.Z.Z.Z.Z.Z.Z.Z.Z.Z.Z.Z.Z.Z.Z.Z.Z.Z.Z.Z.Z.Z.Z.Z.Z.Z.Z.Z.Z.Z.Z.Z.Z.Z.Z.Z.Z.Z.Z.Z.Z.Z.Z.",
"Z.Z.Z.Z.Z.Z.Z.Z.Z.Z.Z.Z.Z.Z.Z.Z.Z.Z.Z.Z.Z.Z.Z.Z.Z.Z.Z.Z.Z.Z.Z.Z.Z.Z.Z.Z.Z.Z.Z.Z.Z.Z.Z.Z.Z.Z.Z.Z.Z.Z.",
"Z.Z.Z.Z.Z.Z.Z.Z.Z.Z.Z.Z.Z.f.f.f.f.f.f.f.f.f.f.f.f.f.f.f.f.f.f.f.f.f.f.d.f.Z.Z.Z.Z.Z.Z.Z.Z.Z.Z.Z.Z.Z.",
"Z.Z.Z.Z.Z.Z.Z.Z.Z.Z.Z.Z.f.f.l.z.z.z.z.z.z.z.z.z.z.z.z.z.z.z.z.z.z.z.z.l.f.f.Z.Z.Z.Z.Z.Z.Z.Z.Z.Z.Z.Z.",
"Z.Z.Z.Z.Z.Z.Z.Z.Z.f.f.d.d.l.z.N.B.B.B.B.B.B.B.B.B.B.B.B.B.B.B.B.B.B.B.c.f.d.f.d.f.Z.Z.Z.Z.Z.Z.Z.Z.Z.",
"Z.Z.Z.Z.Z.Z.Z.Z.f.j.l.z.l.z.v.V.C.C.V.V.C.C.V.V.C.V.C.V.C.V.V.C.V.C.V.v.z.z.l.l.l.f.Z.Z.Z.Z.Z.Z.Z.Z.",
"Z.Z.Z.Z.Z.Z.Z.f.d.f.c.N.B.B.N.v.c.v.v.c.v.v.v.v.v.c.v.c.v.c.c.v.v.c.v.N.B.B.N.c.f.d.f.Z.Z.Z.Z.Z.Z.Z.",
"Z.Z.Z.Z.Z.Z.f.f.l.z.N.V.C.V.n.l.f.f.f.l.f.f.f.j.f.l.f.l.f.l.f.f.f.f.l.n.V.C.V.M.z.l.f.f.Z.Z.Z.Z.Z.Z.",
"Z.Z.Z.Z.Z.Z.f.l.c.M.M.v.n.v.z.f.f.f.f.f.f.f.f.f.f.f.f.f.f.f.f.f.f.f.f.c.v.n.v.M.M.c.l.f.Z.Z.Z.Z.Z.Z.",
"Z.Z.Z.Z.Z.Z.f.l.N.V.M.l.f.f.l.f.f.f.f.f.f.f.f.f.f.f.f.f.f.f.f.f.f.f.f.f.f.f.l.n.V.N.l.f.Z.Z.Z.Z.Z.Z.",
"Z.Z.Z.Z.Z.f.d.l.B.C.M.h.f.f.f.x.x.x.f.f.x.f.f.x.l.x.x.x.x.x.x.x.x.x.x.f.f.f.f.m.C.B.l.d.f.Z.Z.Z.Z.Z.",
"Z.Z.Z.Z.f.f.f.z.B.V.v.j.f.f.d.s.s.d.s.d.s.d.s.s.s.s.s.s.s.s.s.s.s.s.s.d.f.f.f.n.V.B.z.f.j.f.Z.Z.Z.Z.",
"Z.Z.Z.Z.f.l.c.v.M.v.z.j.l.l.y.>.Q ! U ! ! U Q Q Q Q Q ! ! Q Q Q Q U ~ y.f.x.l.z.v.M.M.c.l.f.Z.Z.Z.Z.",
"Z.Z.Z.Z.d.z.N.V.v.l.j.f.f.s.~ 5 # & & $ & % & & $ & & * & & & & & $ : ! s.f.f.f.l.v.V.N.l.f.Z.Z.Z.Z.",
"Z.Z.Z.Z.f.z.B.C.v.j.l.f.u.>.c @ X X O X X X X O O X O   O O O X X X # c ~ u.d.l.h.v.V.B.z.d.Z.Z.Z.Z.",
"Z.Z.Z.Z.f.l.B.V.v.k.f.s.! 5 @ @ + # @ @ # # + # # + # # + + # + @ @ @ @ 5 ! s.j.h.v.V.B.l.f.Z.Z.Z.Z.",
"Z.Z.Z.Z.d.z.B.C.M.d.y.,.c @ X + = n A Z m Z Z Z Z Z Z m Z Z Z A m > + X # c ,.y.h.v.C.B.l.f.Z.Z.Z.Z.",
"Z.Z.Z.Z.f.z.N.V.N.s.Q : # @ X # n @.-.&.&.&.&.&.&.&.&.&.&.&.&.7.@.m # O + # : Q s.N.V.B.z.f.Z.Z.Z.Z.",
"Z.Z.Z.Z.f.l.B.V.N.s.I @ X @ > b | 8.a.a.a.a.a.a.a.a.a.a.a.a.a.a.8.| b > # X @ P s.N.C.B.z.d.Z.Z.Z.Z.",
"Z.Z.Z.Z.f.z.B.V.m.s.I $ X # m @.7.9.9.a.9.9.9.9.9.9.9.9.9.9.9.0.8.8.@.m # X $ I s.N.V.N.l.f.Z.Z.Z.Z.",
"Z.Z.Z.Z.f.l.B.C.m.s.P & X # Y 7.0.=.*.*.*.*.*.*.*.*.*.*.=.*.*.*.=.0.7.D $ X & I s.n.V.B.z.d.Z.Z.Z.Z.",
"Z.Z.Z.Z.d.z.B.V.m.s.P $ O # D 7.-.+.X.{ X.X.X.X.X.X.X...X.X.....+.=.7.D # X $ I s.m.V.B.l.f.Z.Z.Z.Z.",
"Z.Z.Z.Z.f.l.B.C.n.s.I & X # Z #.%.} ) ) ' ) ` ) ` ' ` ) ' ' ` _ [ %.%.Z $ X $ I s.m.V.B.z.f.Z.Z.Z.Z.",
"Z.Z.Z.Z.f.z.N.V.m.s.I $ O # l { } } ` ' ' ' ' ` ) ` ' ) ` ) ' ' [ X. .l # X $ I s.n.V.B.z.f.Z.Z.Z.Z.",
"Z.Z.Z.Z.f.z.B.V.N.s.P & O @ h / { ' ' ' ' ) ' ' ' ' ' ' ' ' ) ' ' { ^ h # X $ I s.m.V.B.l.f.Z.Z.Z.Z.",
"Z.Z.Z.Z.f.l.B.V.M.s.I & O @ h / { ' [ [ [ ' ' ' ' ' [ [ [ ' ' ' ) [ / k # O $ I s.N.V.B.z.f.Z.Z.Z.Z.",
"Z.Z.Z.Z.d.l.B.V.M.s.I $ X @ j / ) E R R E ) ) ' ) E R R E ( ' ' ' ' ) h # X $ I s.n.V.B.z.d.Z.Z.Z.Z.",
"Z.Z.Z.Z.f.z.B.V.n.s.P # X @ k ^ Y q 4 4 b ^ [ [ E x 4 4 z K ' ' ' [ ^ h # X @ P s.m.V.B.l.f.Z.Z.Z.Z.",
"Z.Z.Z.Z.f.z.B.V.m.s.,.0 $ # k ^ M , o - 7 E [ ' Y 4 - o < A ) { ' [ ^ h $ $ 9 ~ s.n.V.B.z.f.Z.Z.Z.Z.",
"Z.Z.Z.Z.f.l.B.C.n.d.i.3.v & k ^ M , o - 7 E [ [ Y 3 o o < Y ' [ ' [ / h * v 3.i.d.n.C.B.z.f.Z.Z.Z.Z.",
"Z.Z.Z.Z.d.z.M.B.n.l.x.s.U * i ^ Y 4 , < z E [ [ R q < < 7 Y ) [ ' ' / h * U s.x.z.v.B.N.l.d.Z.Z.Z.Z.",
"Z.Z.Z.Z.f.l.z.v.M.N.n.d.U & u ^ E A M A Y ) [ [ ) Y M M S E ' ' ' ' / y & U d.n.N.N.n.z.l.f.Z.Z.Z.Z.",
"Z.Z.Z.Z.f.f.f.l.N.V.N.s.>.6 m  .X.' ' ' ) ^ E ( ( ) ` ' ) ' ' ' [ X. .n 6 ~ d.M.V.N.l.f.f.f.Z.Z.Z.Z.",
"Z.Z.Z.Z.Z.Z.f.l.B.C.M.d.q.2.4.r.&.} ` ' L x 8 8 b E ` ` ` ` ` / ' $.r.4.2.q.d.M.C.B.l.d.Z.Z.Z.Z.Z.Z.",
"Z.Z.Z.Z.Z.Z.f.l.N.V.v.z.l.f.j.d.t.O.....T w 1 1 e T X...X.X.....@.t.d.f.h.j.l.M.V.N.z.f.Z.Z.Z.Z.Z.Z.",
"Z.Z.Z.Z.Z.Z.f.l.c.v.M.N.B.N.v.l.p.t.6.w.4.1.:.:.1.w.e.e.e.e.6.w.r.p.j.b.B.B.N.M.n.z.j.f.Z.Z.Z.Z.Z.Z.",
"Z.Z.Z.Z.Z.Z.f.j.f.z.m.V.C.V.n.z.j.j.j.l.f.d.d.d.d.f.j.d.l.d.j.l.f.j.l.M.V.C.V.n.l.f.j.f.Z.Z.Z.Z.Z.Z.",
"Z.Z.Z.Z.Z.Z.Z.f.d.f.c.B.N.N.M.n.M.M.N.M.N.N.B.N.N.M.B.M.N.N.M.M.M.N.M.M.N.N.N.c.j.f.f.Z.Z.Z.Z.Z.Z.Z.",
"Z.Z.Z.Z.Z.Z.Z.Z.f.f.d.d.d.l.v.V.C.C.C.C.C.C.V.C.C.C.C.C.C.C.C.C.C.C.V.n.l.d.d.h.f.j.Z.Z.Z.Z.Z.Z.Z.Z.",
"Z.Z.Z.Z.Z.Z.Z.Z.Z.s.5.<.q.f.b.N.B.M.B.N.B.B.B.N.B.N.B.M.B.N.B.N.B.B.M.b.f.q.<.5.s.Z.Z.Z.Z.Z.Z.Z.Z.Z.",
"Z.Z.Z.Z.Z.Z.Z.Z.Z.Z.; 5 Q s.l.g.l.k.k.g.k.k.l.k.k.g.k.l.k.k.k.j.k.l.k.l.s.Q 5 ; Z.Z.Z.Z.Z.Z.Z.Z.Z.Z.",
"Z.Z.Z.Z.Z.Z.Z.Z.Z.Z.  + c ,.6.r.t.t.t.t.t.t.t.t.t.t.t.t.t.t.t.t.t.t.r.6.~ c @ . Z.Z.Z.Z.Z.Z.Z.Z.Z.Z.",
"Z.Z.Z.Z.Z.Z.Z.Z.Z.Z.+ @ $ ; Z  .....o.o.....................X.....o. .m ; $ @ + Z.Z.Z.Z.Z.Z.Z.Z.Z.Z.",
"Z.Z.Z.Z.Z.Z.Z.Z.Z.Z.@ @ + + r N F G G G G G F C V V C F G G G G H F N r + O + Z.Z.Z.Z.Z.Z.Z.Z.Z.Z.Z.",
"Z.Z.Z.Z.Z.Z.Z.Z.Z.Z.@ + + @ # * y p a a a a i = * * = u a a a a p y * # @ + Z.Z.Z.Z.Z.Z.Z.Z.Z.Z.Z.Z.",
"Z.Z.Z.Z.Z.Z.Z.Z.Z.Z.Z.@ + + + + = a d d d d i # O O % i d d d d s r + + + Z.Z.Z.Z.Z.Z.Z.Z.Z.Z.Z.Z.Z.",
"Z.Z.Z.Z.Z.Z.Z.Z.Z.Z.Z.Z.+ + + + u E / / / / C = + O = C / ^ / / L y @ + @ @ Z.Z.Z.Z.Z.Z.Z.Z.Z.Z.Z.Z.",
"Z.Z.Z.Z.Z.Z.Z.Z.Z.Z.Z.Z.Z.+ + # t C ^ ' } ` J = + + = J [ [ ) ^ C t @ + @ Z.Z.Z.Z.Z.Z.Z.Z.Z.Z.Z.Z.Z.",
"Z.Z.Z.Z.Z.Z.Z.Z.Z.Z.Z.Z.Z.Z.@ + # = k ^ [ ' K = + O = K ' { ^ l > # @ + Z.Z.Z.Z.Z.Z.Z.Z.Z.Z.Z.Z.Z.Z.",
"Z.Z.Z.Z.Z.Z.Z.Z.Z.Z.Z.Z.Z.Z.Z.@ + + f ^ } [ K = + O = K [ { ^ f + + @ Z.Z.Z.Z.Z.Z.Z.Z.Z.Z.Z.Z.Z.Z.Z."
};
