/* XPM */
static char *result[] = {
/* columns rows colors chars-per-pixel */
"50 50 143 2 ",
"   c #3D4459",
".  c #3E4559",
"X  c #3E455A",
"o  c #40475C",
"O  c #41485D",
"+  c #41495D",
"@  c #42495D",
"#  c #42495E",
"$  c #434A5E",
"%  c #434A5F",
"&  c #444B5F",
"*  c #444B60",
"=  c #444B61",
"-  c #454C61",
";  c #454C62",
":  c #464C62",
">  c #464D62",
",  c #474D63",
"<  c #474E63",
"1  c #474E64",
"2  c #484F64",
"3  c #495066",
"4  c #495067",
"5  c #4C536A",
"6  c #4D546B",
"7  c #4E556A",
"8  c #4E556D",
"9  c #515870",
"0  c #525870",
"q  c #525871",
"w  c #535972",
"e  c #535A72",
"r  c #535A73",
"t  c #545B74",
"y  c #555B75",
"u  c #555C75",
"i  c #565C76",
"p  c #575D77",
"a  c #585E78",
"s  c #585F79",
"d  c #5A6176",
"f  c #5B6277",
"g  c #59607A",
"h  c #5B617B",
"j  c #5B617C",
"k  c #5B627C",
"l  c #5D6480",
"z  c #5F6582",
"x  c #606682",
"c  c #616782",
"v  c #646A80",
"b  c #646B81",
"n  c #656B81",
"m  c #646B82",
"M  c #666C82",
"N  c #646B87",
"B  c #656B88",
"V  c #666C89",
"C  c #666C8A",
"Z  c #666D8A",
"A  c #676D8B",
"S  c #686E8C",
"D  c #6B728C",
"F  c #69708E",
"G  c #6A708E",
"H  c #6A708F",
"J  c #6B718F",
"K  c #6B7190",
"L  c #6D7492",
"P  c #6E7493",
"I  c #6F7594",
"U  c #6F7595",
"Y  c #717792",
"T  c #707694",
"R  c #707696",
"E  c #717796",
"W  c #707697",
"Q  c #717797",
"!  c #757B91",
"~  c #727899",
"^  c #737999",
"/  c #73799A",
"(  c #747A98",
")  c #747A9A",
"_  c #747A9B",
"`  c #757B9B",
"'  c #767C9B",
"]  c #767D9B",
"[  c #777D9B",
"{  c #767C9C",
"}  c #777D9C",
"|  c #797F9E",
" . c #797F9F",
".. c #7A809F",
"X. c #7C82A1",
"o. c #7D83A1",
"O. c #7C82A2",
"+. c #7D83A2",
"@. c #7E84A2",
"#. c #8086A1",
"$. c #8187A5",
"%. c #8389A1",
"&. c #868CA3",
"*. c #8389A7",
"=. c #848AA5",
"-. c #8489A7",
";. c #848AA7",
":. c #878EA5",
">. c #888EA5",
",. c #858BA8",
"<. c #888EAB",
"1. c #898FAB",
"2. c #8A90A7",
"3. c #8A90AC",
"4. c #8B91AD",
"5. c #8C92AD",
"6. c #8E94AF",
"7. c #8E94B0",
"8. c #8F95B0",
"9. c #8F95B1",
"0. c #9096B1",
"q. c #9197B3",
"w. c #9298B3",
"e. c #9399B3",
"r. c #969CB6",
"t. c #979DB6",
"y. c #979DB7",
"u. c #999FB7",
"i. c #989EB8",
"p. c #999FB8",
"a. c #9AA0B9",
"s. c #9BA1BA",
"d. c #9CA1BA",
"f. c #9CA2BA",
"g. c #9CA2BB",
"h. c #9DA3BC",
"j. c #9EA4BC",
"k. c #9FA5BD",
"l. c #A0A6BD",
"z. c #A0A6BE",
"x. c #A1A7BE",
"c. c #A1A7BF",
"v. c None",
/* pixels */
"v.v.v.v.v.v.v.v.v.v.v.v.v.v.v.v.v.v.v.v.v.v.v.v.v.v.v.v.v.v.v.v.v.v.v.v.v.v.v.v.v.v.v.v.v.v.v.v.v.v.",
"v.v.v.v.v.v.v.v.v.v.v.v.v.v.v.v.v.v.v.v.v.v.v.v.v.v.v.v.v.v.v.v.v.v.v.v.v.v.v.v.v.v.v.v.v.v.v.v.v.v.",
"v.v.v.v.v.v.v.v.v.v.v.v.v.v.v.v.v.v.v.v.v.v.v.v.v.v.v.v.v.v.v.v.v.v.v.v.v.v.v.v.v.v.v.v.v.v.v.v.v.v.",
"v.v.v.v.v.v.v.v.v.v.v.v.v.v.v.v.v.v.v.v.v.v.v.v.v.v.v.v.v.v.v.v.v.v.v.v.v.v.v.v.v.v.v.v.v.v.v.v.v.v.",
"v.v.v.v.v.v.v.v.v.v.v.v.v.v.v.v.v.v.v.v.v.v.v.v.v.v.v.v.v.v.v.v.v.v.v.v.v.v.v.v.v.v.v.v.v.v.v.v.v.v.",
"v.v.v.v.v.v.v.v.v.v.v.v.v.v.v.v.v.v.v.v.v.v.v.v.v.v.v.v.v.v.v.v.v.v.v.v.v.v.v.v.v.v.v.v.v.v.v.v.v.v.",
"v.v.v.v.v.v.v.v.v.v.v.v.v.v.v.v.v.v.v.v.v.v.v.v.v.v.v.v.v.v.v.v.v.v.v.v.v.v.v.v.v.v.v.v.v.v.v.v.v.v.",
"v.v.v.v.v.v.v.v.v.v.v.v.v.v.v.v.v.v.v.v.v.v.v.v.v.v.v.v.v.v.v.v.v.v.v.v.v.v.v.v.v.v.v.v.v.v.v.v.v.v.",
"% % % % % % % % % % % % % % % % % % % % % % % % % % % v.v.v.v.v.v.v.v.v.v.v.v.v.v.v.v.v.v.v.v.v.v.v.",
"% % % % % % % % % % % % % % % % % % % % % % % % % % % % v.v.v.v.v.v.v.v.v.v.v.v.v.v.v.v.v.v.v.v.v.v.",
"# # # # # # # # # # # # # # # # # # # # # # # # # % % % v.v.v.v.v.v.v.v.v.v.v.v.v.v.v.v.v.v.v.v.v.v.",
"O O O O O O O O O O O O O O O O O O O O O O O O # $ % % % % % % % v.v.v.v.v.v.v.v.v.v.v.v.v.v.v.v.v.",
"> > > > > > > > > > > > > > > > > > > > > > > > - * % % % % % % % v.v.v.v.v.v.v.v.v.v.v.v.v.v.v.v.v.",
"w w w w w w w w w w w w w w w w w w w w w r t e 8 1 # O @ # # % % % v.v.v.v.v.v.v.v.v.v.v.v.v.v.v.v.",
"B B B B B B B B B B B B B B B B B B B B B V A B j 6 % o O # # % % % % % v.v.v.v.v.v.v.v.v.v.v.v.v.v.",
"[ [ [ [ [ [ [ [ [ [ [ [ [ [ [ [ [ [ } } ] ' ` E B y 4 , 1 1 : * % % % % v.v.v.v.v.v.v.v.v.v.v.v.v.v.",
"<.<.<.<.<.<.<.<.<.<.<.<.<.<.<.<.<.<.<.1.<.-.O.) H z a p a u 6 ; + @ % % % v.v.v.v.v.v.v.v.v.v.v.v.v.",
"y.y.y.y.y.y.y.y.y.y.y.y.y.y.y.y.y.y.y.i.t.8.$.` I K F G G N p 3 # + % % % % % v.v.v.v.v.v.v.v.v.v.v.",
"k.k.k.k.k.k.k.k.k.k.k.k.k.k.k.k.k.k.k.x.k.t.1.o.| ....| { P x 9 3 ; * % % % % v.v.v.v.v.v.v.v.v.v.v.",
"z.z.z.z.z.z.z.z.z.z.z.z.z.z.z.z.z.z.x.c.z.s.e.5.3.4.3.*. .R S x p 6 : # # % % v.v.v.v.v.v.v.v.v.v.v.",
"k.k.k.k.k.k.k.k.k.k.k.k.k.k.k.k.k.k.k.k.k.j.f.a.a.a.r.4.X.^ R P N u 1 # # % % v.v.v.v.v.v.v.v.v.v.v.",
"k.k.k.k.k.k.k.k.k.k.k.k.k.k.k.k.k.k.k.k.k.k.l.z.x.c.h.e.,.X. .{ G a 1 O @ % % v.v.v.v.v.v.v.v.v.v.v.",
"k.k.k.k.k.k.k.k.k.k.k.k.k.k.k.k.k.k.k.k.k.k.z.z.x.c.k.a.e.4.*.| G p , o O % % % % v.v.v.v.v.v.v.v.v.",
"k.k.k.k.k.k.k.k.k.k.k.k.k.k.k.k.k.k.k.k.k.k.k.k.k.k.k.k.h.r.3...F a 4 % # % % % % % v.v.v.v.v.v.v.v.",
"z.z.z.z.z.z.z.z.z.z.z.z.z.z.z.z.z.z.z.k.k.k.k.k.k.k.k.c.c.a.4...K z y 6 1 * $ % % % v.v.v.v.v.v.v.v.",
"z.z.z.z.z.z.z.z.z.z.z.z.z.z.z.z.z.z.z.z.k.k.k.k.k.k.k.x.x.a.3.| I H B j 8 - # # % % v.v.v.v.v.v.v.v.",
"f.f.f.f.f.f.f.f.f.f.f.f.f.f.f.f.s.f.g.h.k.k.k.k.k.k.k.z.z.a.5.o.` ) E B e > O # % % v.v.v.v.v.v.v.v.",
"6.6.6.6.6.6.6.6.6.6.6.6.6.6.6.6.6.8.w.i.j.z.z.k.k.k.k.z.l.f.e.1.$.O.` A t > O # % % v.v.v.v.v.v.v.v.",
"o.o.o.o.o.o.o.o.o.o.o.o.o.o.o.o.o.@.;.0.f.z.z.k.k.k.k.k.k.j.s.t.8.-.' V r > O # % % v.v.v.v.v.v.v.v.",
"^ ^ ^ ^ ^ ^ ^ ^ ^ ^ ^ ^ ^ ) ) ^ U L ( =.e.f.j.k.k.k.k.k.k.k.z.k.t.<.] B w > O # % % v.v.v.v.v.v.v.v.",
"W W W W W W W R R W Q ~ / _ _ R C l c Y =.0.i.h.z.k.k.k.k.k.c.x.i.1.} B w > O # % % v.v.v.v.v.v.v.v.",
"~ ~ ~ ~ ~ ~ ~ ~ ~ ~ ^ ^ ^ ) ) I x q 0 c ( ;.w.g.z.z.k.k.k.k.x.k.y.<.} B w > O # % % v.v.v.v.v.v.v.v.",
"o.o.o.o.o.o.o.o.+.X.} T J G G Z k 9 q l L @.8.f.z.z.k.k.k.k.z.k.y.<.[ B w > O # % % v.v.v.v.v.v.v.v.",
"9.9.9.9.9.9.9.0.q.7.#.D h i p s g k x C U o.6.s.z.z.k.k.k.k.z.k.y.<.[ B w > O # % % v.v.v.v.v.v.v.v.",
"u.u.u.u.u.u.u.p.d.t.%.m 5 = ; 5 s Z I R ^ o.6.f.z.z.k.k.k.k.z.k.y.<.[ B w > O # % % v.v.v.v.v.v.v.v.",
":.:.:.:.:.:.:.>.2.&.! d -   . ; p G ) _ ) o.6.f.z.z.k.k.k.k.z.k.y.<.[ B w > O # % % v.v.v.v.v.v.v.v.",
"b b b b b b b n M v f 7 & X   = i G ) _ ) o.6.f.z.z.k.k.k.k.z.k.y.<.[ B w > O # % % v.v.v.v.v.v.v.v.",
"2 2 2 2 2 2 2 2 2 2 < - * & - 5 h J ^ / ^ o.6.f.z.z.k.k.k.k.z.k.y.<.[ B w > O # % % v.v.v.v.v.v.v.v.",
"o o o o o o o o o o o O - 7 d m D T ^ ~ ^ o.6.f.z.z.k.k.k.k.z.k.y.<.[ B w > O # % % v.v.v.v.v.v.v.v.",
"O O O O O O O O O O O o < f ! %.#.} ^ Q ^ o.6.f.z.z.k.k.k.k.z.k.y.<.[ B w > O # % % v.v.v.v.v.v.v.v.",
"% % % % % % % % % % O o 2 v &.t.7.X.~ W ^ o.6.f.z.z.k.k.k.k.z.k.y.<.[ B w > O # % % v.v.v.v.v.v.v.v.",
"% % % % % % % % % % O o 2 M 2.d.q.+.~ R ^ o.6.f.z.z.k.k.k.k.z.k.y.<.[ B w > O # % % v.v.v.v.v.v.v.v.",
"v.v.v.v.v.v.v.v.% % O o 2 n >.p.0.o.~ R ^ o.6.f.z.z.k.k.k.k.z.k.y.<.[ B w > O # % % v.v.v.v.v.v.v.v.",
"v.v.v.v.v.v.v.v.% % O o 2 b :.u.9.o.~ W ^ o.6.f.z.z.k.k.k.k.z.k.y.<.[ B w > O # % % v.v.v.v.v.v.v.v.",
"v.v.v.v.v.v.v.v.% % O o 2 b :.u.9.o.~ W ^ o.6.f.z.z.k.k.k.k.z.k.y.<.[ B w > O # % % v.v.v.v.v.v.v.v.",
"v.v.v.v.v.v.v.v.% % O o 2 b :.u.9.o.~ W ^ o.6.f.z.z.k.k.k.k.z.k.y.<.[ B w > O # % % v.v.v.v.v.v.v.v.",
"v.v.v.v.v.v.v.v.% % O o 2 b :.u.9.o.~ W ^ o.6.f.z.z.k.k.k.k.z.k.y.<.[ B w > O # % % v.v.v.v.v.v.v.v.",
"v.v.v.v.v.v.v.v.% % O o 2 b :.u.9.o.~ W ^ o.6.f.z.z.k.k.k.k.z.k.y.<.[ B w > O # % % v.v.v.v.v.v.v.v.",
"v.v.v.v.v.v.v.v.% % O o 2 b :.u.9.o.~ W ^ o.6.f.z.z.k.k.k.k.z.k.y.<.[ B w > O # % % v.v.v.v.v.v.v.v.",
"v.v.v.v.v.v.v.v.% % O o 2 b :.u.9.o.~ W ^ o.6.f.z.z.k.k.k.k.z.k.y.<.[ B w > O # % % v.v.v.v.v.v.v.v."
};
