/* XPM */
static char *result[] = {
/* columns rows colors chars-per-pixel */
"50 50 243 2 ",
"   c #3D4458",
".  c #3D4459",
"X  c #3E4559",
"o  c #3E455A",
"O  c #3F465B",
"+  c #3F475B",
"@  c #40475B",
"#  c #40475C",
"$  c #41485C",
"%  c #41485D",
"&  c #42495E",
"*  c #42495F",
"=  c #434A5E",
"-  c #434A5F",
";  c #444B5F",
":  c #434A60",
">  c #444B60",
",  c #444B61",
"<  c #454C61",
"1  c #464D62",
"2  c #474D63",
"3  c #474E63",
"4  c #474E64",
"5  c #484F64",
"6  c #484F65",
"7  c #4A5166",
"8  c #4A5167",
"9  c #4B5267",
"0  c #4C5368",
"q  c #4C536A",
"w  c #4D546B",
"e  c #4E556A",
"r  c #4F566B",
"t  c #4D546C",
"y  c #4E556D",
"u  c #4F566C",
"i  c #50576D",
"p  c #525972",
"a  c #535972",
"s  c #535973",
"d  c #535A73",
"f  c #545A73",
"g  c #545B73",
"h  c #565D73",
"j  c #575E73",
"k  c #545B74",
"l  c #555B75",
"z  c #575E75",
"x  c #555C76",
"c  c #585F74",
"v  c #585F76",
"b  c #596076",
"n  c #5A6176",
"m  c #5B6277",
"M  c #59607A",
"N  c #5B617B",
"B  c #5B627A",
"V  c #5E647A",
"C  c #5E657A",
"Z  c #5B617C",
"A  c #5B627D",
"S  c #5D647E",
"D  c #60677C",
"F  c #60677F",
"G  c #606783",
"H  c #626981",
"J  c #636A80",
"K  c #646A80",
"L  c #646B81",
"P  c #656B81",
"I  c #646B82",
"U  c #666C82",
"Y  c #666D83",
"T  c #676D83",
"R  c #646A87",
"E  c #666D87",
"W  c #686F86",
"Q  c #656B88",
"!  c #656B89",
"~  c #656C89",
"^  c #666C89",
"/  c #666C8A",
"(  c #676D8A",
")  c #676E8B",
"_  c #696F8E",
"`  c #697086",
"'  c #697087",
"]  c #6A7187",
"[  c #6B7187",
"{  c #6B7288",
"}  c #6C7389",
"|  c #6D7389",
" . c #6D738A",
".. c #6E748B",
"X. c #6B728C",
"o. c #69708E",
"O. c #6B718E",
"+. c #6B718F",
"@. c #71788E",
"#. c #6B7290",
"$. c #6C7290",
"%. c #6D7390",
"&. c #707694",
"*. c #707695",
"=. c #707696",
"-. c #707796",
";. c #707697",
":. c #717797",
">. c #757B91",
",. c #757B93",
"<. c #757C94",
"1. c #777E95",
"2. c #797F95",
"3. c #787F96",
"4. c #717798",
"5. c #727898",
"6. c #737998",
"7. c #727899",
"8. c #737999",
"9. c #73799A",
"0. c #747A99",
"q. c #747A9A",
"w. c #757B9A",
"e. c #747A9B",
"r. c #757B9B",
"t. c #767C9A",
"y. c #767C9B",
"u. c #777D9B",
"i. c #757B9C",
"p. c #767C9C",
"a. c #777D9C",
"s. c #777D9D",
"d. c #787E9D",
"f. c #797F9E",
"g. c #797F9F",
"h. c #7A7F9F",
"j. c #7A8197",
"k. c #7B8298",
"l. c #7A809B",
"z. c #7A809F",
"x. c #7B819F",
"c. c #7F859F",
"v. c #7C82A0",
"b. c #7C82A1",
"n. c #7D83A1",
"m. c #7C82A2",
"M. c #7D83A2",
"N. c #7E84A2",
"B. c #7E84A3",
"V. c #7F85A3",
"C. c #81879F",
"Z. c #8086A1",
"A. c #8086A2",
"S. c #8086A3",
"D. c #8086A4",
"F. c #8187A5",
"G. c #8389A1",
"H. c #838AA1",
"J. c #8288A2",
"K. c #848AA1",
"L. c #858BA2",
"P. c #868CA3",
"I. c #8288A4",
"U. c #8288A5",
"Y. c #8389A6",
"T. c #8389A7",
"R. c #848BA4",
"E. c #848AA7",
"W. c #868CA4",
"Q. c #878EA5",
"!. c #878DA6",
"~. c #888EA5",
"^. c #888FA6",
"/. c #858BA8",
"(. c #868CA9",
"). c #868CAA",
"_. c #878DAA",
"`. c #888EA8",
"'. c #888EAA",
"]. c #888EAB",
"[. c #898FAB",
"{. c #898FAC",
"}. c #8A90A7",
"|. c #8B92A9",
" X c #8D93AB",
".X c #8E94AB",
"XX c #8A90AC",
"oX c #8A90AD",
"OX c #8B91AD",
"+X c #8C92AE",
"@X c #8D93AE",
"#X c #8D93AF",
"$X c #8E94AC",
"%X c #8F95AC",
"&X c #8F96AD",
"*X c #8F95AE",
"=X c #8E94AF",
"-X c #9097AE",
";X c #9097AF",
":X c #8E94B0",
">X c #8F95B0",
",X c #8F95B1",
"<X c #9096B1",
"1X c #9096B2",
"2X c #9197B2",
"3X c #9197B3",
"4X c #9298B2",
"5X c #9399B3",
"6X c #949AB2",
"7X c #959BB2",
"8X c #949AB3",
"9X c #959BB3",
"0X c #9399B4",
"qX c #949AB4",
"wX c #969CB4",
"eX c #979DB5",
"rX c #969CB6",
"tX c #979DB6",
"yX c #979DB7",
"uX c #989EB7",
"iX c #999FB7",
"pX c #999FB8",
"aX c #99A0B7",
"sX c #9AA0B8",
"dX c #9AA0B9",
"fX c #9AA0BA",
"gX c #9BA1BA",
"hX c #9CA1BA",
"jX c #9CA2BA",
"kX c #9CA2BB",
"lX c #9DA3BB",
"zX c #9EA4BC",
"xX c #9EA4BD",
"cX c #9FA5BD",
"vX c #A0A6BD",
"bX c #A0A6BE",
"nX c #A1A7BE",
"mX c #A1A7BF",
"MX c #A2A8BF",
"NX c #A2A8C0",
"BX c #A3A9C1",
"VX c #A3A9C2",
"CX c None",
/* pixels */
"CXCXCXCXCXCXCXCX- - % # 5 L Q.iX,Xn.7.;.8.n.=XjXbXbXcXcXcXcXbXcXyX].u.Q a 1 % & - - CXCXCXCXCXCXCXCX",
"CXCXCXCXCXCXCXCX- - % # 5 L Q.iX,Xn.7.;.8.n.=XjXbXbXcXcXcXcXbXcXyX].u.Q a 1 % & - - CXCXCXCXCXCXCXCX",
"CXCXCXCXCXCXCXCX- - % # 5 L Q.iX,Xn.7.;.8.n.=XjXbXbXcXcXcXcXbXcXyX].u.Q a 1 % & - - CXCXCXCXCXCXCXCX",
"CXCXCXCXCXCXCXCX- - % # 5 L Q.iX,Xn.7.;.8.n.=XjXbXbXcXcXcXcXbXcXyX].u.Q a 1 % & - - CXCXCXCXCXCXCXCX",
"CXCXCXCXCXCXCXCX- - % # 5 L Q.iX,Xn.7.;.8.n.=XjXbXbXcXcXcXcXbXcXyX].u.Q a 1 % & - - CXCXCXCXCXCXCXCX",
"CXCXCXCXCXCXCXCX- - % # 5 L Q.iX,Xn.7.;.8.n.=XjXbXbXcXcXcXcXbXcXyX].u.Q a 1 % & - - CXCXCXCXCXCXCXCX",
"CXCXCXCXCXCXCXCX- - % # 5 L Q.iX,Xn.7.;.8.n.=XjXbXbXcXcXcXcXbXcXyX].u.Q a 1 % & - - CXCXCXCXCXCXCXCX",
"CXCXCXCXCXCXCXCX- - % # 5 P ~.pX<Xn.7.=.8.n.=XjXbXbXcXcXcXcXbXcXyX].u.Q a 1 % & - - CXCXCXCXCXCXCXCX",
"- - - - - - - - - - % # 5 U }.hX3XM.7.=.8.n.=XjXbXbXcXcXcXcXbXcXyX].u.Q a 1 % & - - CXCXCXCXCXCXCXCX",
"- - - - - - - - - - % # 5 K P.tX:Xb.7.;.8.n.=XjXbXbXcXcXcXcXbXcXyX].u.Q a 1 % & - - CXCXCXCXCXCXCXCX",
"& & & & & & & & & & % # 3 m >.G.A.a.7.;.8.n.#XjXbXbXcXcXcXcXbXcXyX].u.Q a 1 % & - - CXCXCXCXCXCXCXCX",
"% % % % % % % % % % % % < e n I X.&.8.4.5.v.@XgXbXbXcXcXcXcXbXcXyX].u.Q a 1 % & - - CXCXCXCXCXCXCXCX",
"1 1 1 1 1 1 1 1 1 1 < > - ; < q N +.8.e.y.V.>XjXbXbXcXcXcXcXbXcXyX].u.Q a 1 % & - - CXCXCXCXCXCXCXCX",
"a a a a a a a d d p y 4 & X   : l _ a.m.F.[.qXlXbXbXcXcXcXcXmXbXuX].a.Q a 1 % & - - CXCXCXCXCXCXCXCX",
"Q Q Q Q Q Q Q ! / R A t * . . , x o.g.(.>XtXgXzXcXcXcXcXcXcXmXbXuX].a.Q a 1 % & - - CXCXCXCXCXCXCXCX",
"u.u.u.u.u.u.u.a.d.t.O.B r 7 9 i M ( t.'.uXcXbXcXcXcXcXcXcXcXzXgX0X(.y.Q s 1 % & - - CXCXCXCXCXCXCXCX",
"].].].].].].].].{._.Z.<. .] { ' H S E c.tXMXMXcXcXcXcXvXcXlXtX>X_.V.w.~ d 1 % & - - CXCXCXCXCXCXCXCX",
"yXyXyXyXyXyXyXyXyXtX8X;X.X$X%XW...z v ,.6XmXNXcXcXcXcXbXbXdX=XF.z.s.6.^ f 1 % & - - CXCXCXCXCXCXCXCX",
"cXcXcXcXcXcXcXcXcXcXcXcXcXmXNXeXk.D C 1.7XmXmXcXcXcXcXbXbXpXXXz.8.9.5.^ f 1 % & - - CXCXCXCXCXCXCXCX",
"bXbXbXbXbXbXbXbXbXnXmXMXNXBXVXlX|.j.2.~.iXbXbXcXcXcXcXmXmXdXXXf.5.8.5.^ g 1 % & - - CXCXCXCXCXCXCXCX",
"cXcXcXcXcXcXcXcXcXcXcXcXcXbXbXzXaX9X7XiXlXcXcXcXcXcXcXbXbXpXXXz.8.9.5.^ f 1 % & - - CXCXCXCXCXCXCXCX",
"cXcXcXcXcXcXcXcXcXcXcXcXcXcXcXcXbXmXmXbXcXcXcXvXbXbXcXkXuX<XE.d.8.e.6.( k 1 % & - - CXCXCXCXCXCXCXCX",
"cXcXcXcXcXcXcXcXcXcXcXcXcXcXcXcXbXmXmXbXcXcXbXbXmXMXxXrXOXU.x.y.q.i.9.) k 1 % & - - CXCXCXCXCXCXCXCX",
"cXcXcXcXcXcXcXcXcXcXcXcXcXcXcXcXcXcXcXcXcXcXzXzXzXcXdX=XS.p.8.8.8.q.-.Q d 1 % & - - CXCXCXCXCXCXCXCX",
"bXbXbXbXbXbXbXbXbXbXbXbXbXbXbXbXbXbXbXbXbXlXyX5X4X4X>X/.f.5.4.5.*.#.Q Z y < & & - - CXCXCXCXCXCXCXCX",
"bXbXbXbXbXbXbXbXbXbXbXbXbXbXbXbXbXbXnXMXbXpX@XY.D.D.V.x.r.5.7.5.$.G l w 4 > = - - - CXCXCXCXCXCXCXCX",
"jXjXjXjXjXjXjXjXjXjXjXjXjXjXjXjXjXjXjXlXgX5XE.d.8.q.q.q.8.q.p.p.%.N 8 - & - - - - - CXCXCXCXCXCXCXCX",
"=X=X=X=X=X=X=X=X=X=X=X=X=X=X=X=X=X=X=X>X=X_.n.0.;.=.;.;.:.r.B.E.l.F 6 @ $ - - - - CXCXCXCXCXCXCXCXCX",
"n.n.n.n.n.n.n.n.n.n.n.n.n.n.n.n.n.n.n.N.n.x.a.8.5.4.4.:.:.s.).2X!.W 9 # % - - CXCXCXCXCXCXCXCXCXCXCX",
"8.8.8.8.8.8.8.8.8.8.8.8.8.8.8.8.8.8.8.8.8.8.8.8.w.a.f.f.f.n.'.*XH.Y 9 % % - - CXCXCXCXCXCXCXCXCXCXCX",
";.;.;.;.;.;.;.;.;.;.;.;.;.;.;.;.;.;.=.=.;.;.;.5.h.T.oX#X+X'.J.3.[ c 5 & & - - CXCXCXCXCXCXCXCXCXCXCX",
"7.7.7.7.7.7.7.7.7.7.7.7.7.7.7.7.7.7.7.7.7.5.4.q.N.@XyXkXfX*X1.V e 3 > - - - - CXCXCXCXCXCXCXCXCXCXCX",
"n.n.n.n.n.n.n.n.n.n.n.n.n.n.n.n.n.n.n.n.n.b.b.n.I.`. X-X&XK.` e % # - - - - - CXCXCXCXCXCXCXCXCXCXCX",
",X,X,X,X,X,X,X,X,X,X,X,X,X,X,X,X,X,X,X,X,X<X1X=XR.1...} | T j 3 # # - - - CXCXCXCXCXCXCXCXCXCXCXCXCX",
"iXiXiXiXiXiXiXiXiXiXiXiXiXiXiXiXiXiXiXiXiXsXgXwXC.L u 7 0 9 5 > - - - - CXCXCXCXCXCXCXCXCXCXCXCXCXCX",
"Q.Q.Q.Q.Q.Q.Q.Q.Q.Q.Q.Q.Q.Q.Q.Q.Q.Q.Q.Q.Q.^.}.L.@.h - o + % & - - - - - CXCXCXCXCXCXCXCXCXCXCXCXCXCX",
"L L L L L L L L L L L L L L L L L L L L L P U J b 0 & O # % & - - - CXCXCXCXCXCXCXCXCXCXCXCXCXCXCXCX",
"5 5 5 5 5 5 5 5 5 5 5 5 5 5 5 5 5 5 5 5 5 5 5 5 2 < - - - - - - - CXCXCXCXCXCXCXCXCXCXCXCXCXCXCXCXCX",
"# # # # # # # # # # # # # # # # # # # # # # # # % & - - - - - - - CXCXCXCXCXCXCXCXCXCXCXCXCXCXCXCXCX",
"% % % % % % % % % % % % % % % % % % % % % % % % & - - - CXCXCXCXCXCXCXCXCXCXCXCXCXCXCXCXCXCXCXCXCXCX",
"- - - - - - - - - - - - - - - - - - - - - - - - - - - - CXCXCXCXCXCXCXCXCXCXCXCXCXCXCXCXCXCXCXCXCXCX",
"- - - - - - - - - - - - - - - - - - - - - - - - - - - CXCXCXCXCXCXCXCXCXCXCXCXCXCXCXCXCXCXCXCXCXCXCX",
"CXCXCXCXCXCXCXCXCXCXCXCXCXCXCXCXCXCXCXCXCXCXCXCXCXCXCXCXCXCXCXCXCXCXCXCXCXCXCXCXCXCXCXCXCXCXCXCXCXCX",
"CXCXCXCXCXCXCXCXCXCXCXCXCXCXCXCXCXCXCXCXCXCXCXCXCXCXCXCXCXCXCXCXCXCXCXCXCXCXCXCXCXCXCXCXCXCXCXCXCXCX",
"CXCXCXCXCXCXCXCXCXCXCXCXCXCXCXCXCXCXCXCXCXCXCXCXCXCXCXCXCXCXCXCXCXCXCXCXCXCXCXCXCXCXCXCXCXCXCXCXCXCX",
"CXCXCXCXCXCXCXCXCXCXCXCXCXCXCXCXCXCXCXCXCXCXCXCXCXCXCXCXCXCXCXCXCXCXCXCXCXCXCXCXCXCXCXCXCXCXCXCXCXCX",
"CXCXCXCXCXCXCXCXCXCXCXCXCXCXCXCXCXCXCXCXCXCXCXCXCXCXCXCXCXCXCXCXCXCXCXCXCXCXCXCXCXCXCXCXCXCXCXCXCXCX",
"CXCXCXCXCXCXCXCXCXCXCXCXCXCXCXCXCXCXCXCXCXCXCXCXCXCXCXCXCXCXCXCXCXCXCXCXCXCXCXCXCXCXCXCXCXCXCXCXCXCX",
"CXCXCXCXCXCXCXCXCXCXCXCXCXCXCXCXCXCXCXCXCXCXCXCXCXCXCXCXCXCXCXCXCXCXCXCXCXCXCXCXCXCXCXCXCXCXCXCXCXCX",
"CXCXCXCXCXCXCXCXCXCXCXCXCXCXCXCXCXCXCXCXCXCXCXCXCXCXCXCXCXCXCXCXCXCXCXCXCXCXCXCXCXCXCXCXCXCXCXCXCXCX"
};
