/* XPM */
static char *result[] = {
/* columns rows colors chars-per-pixel */
"50 50 147 2 ",
"   c #6A373C",
".  c #6F3A3E",
"X  c #6D3D43",
"o  c #703F43",
"O  c #3E455B",
"+  c #55414F",
"@  c #41475C",
"#  c #434A5F",
"$  c #574552",
"%  c #5B4450",
"&  c #5F4F5E",
"*  c #6C4047",
"=  c #674149",
"-  c #714145",
";  c #7B4445",
":  c #74454A",
">  c #704952",
",  c #794C50",
"<  c #775058",
"1  c #444C61",
"2  c #484F64",
"3  c #4B5166",
"4  c #4E5569",
"5  c #51586C",
"6  c #5B5364",
"7  c #555C71",
"8  c #7C5C67",
"9  c #785D69",
"0  c #5C6377",
"q  c #61677B",
"w  c #814C4D",
"e  c #8C534B",
"r  c #91554C",
"t  c #975B4E",
"y  c #855357",
"u  c #80565E",
"i  c #9C5C53",
"p  c #985D5A",
"a  c #9C624F",
"s  c #9F625C",
"d  c #AE634F",
"f  c #A06750",
"g  c #AD6452",
"h  c #A16850",
"j  c #A1655F",
"k  c #B06753",
"l  c #B26C54",
"z  c #BA7155",
"x  c #BE775A",
"c  c #BE785A",
"v  c #81626C",
"b  c #92717A",
"n  c #A56962",
"m  c #C07756",
"M  c #C27857",
"N  c #C37B5C",
"B  c #CB7F5B",
"V  c #CC815D",
"C  c #D4895E",
"Z  c #D0845E",
"A  c #D6915E",
"S  c #CE8969",
"D  c #CD8666",
"F  c #D58C60",
"G  c #D18C6B",
"H  c #DD9560",
"J  c #D3906F",
"K  c #D59475",
"L  c #D4977B",
"P  c #D59A7E",
"I  c #E39D61",
"U  c #E89F63",
"Y  c #EAA264",
"T  c #F6AD66",
"R  c #F9B167",
"E  c #FBB368",
"W  c #666B81",
"Q  c #686E84",
"!  c #6B7187",
"~  c #6E748B",
"^  c #70768C",
"/  c #747A8D",
"(  c #787E92",
")  c #857585",
"_  c #807C8F",
"`  c #897988",
"'  c #947681",
"]  c #947E89",
"[  c #987F8C",
"{  c #7D8393",
"}  c #8C869A",
"|  c #83899C",
" . c #8A909E",
".. c #A48B93",
"X. c #A59198",
"o. c #AA979C",
"O. c #858CA2",
"+. c #898EA5",
"@. c #928EA2",
"#. c #8B91A0",
"$. c #8F93A9",
"%. c #9296AD",
"&. c #969CAB",
"*. c #989AAE",
"=. c #959AB1",
"-. c #999CB1",
";. c #A297A2",
":. c #9AA0AC",
">. c #9AA1B2",
",. c #9DA5BB",
"<. c #BBA2A5",
"1. c #A0A5B8",
"2. c #A5AABD",
"3. c #A9ABBC",
"4. c #D69D81",
"5. c #D9A186",
"6. c #DCA58A",
"7. c #DDA88D",
"8. c #DCAA92",
"9. c #DFB099",
"0. c #E0B19A",
"q. c #EACBBD",
"w. c #E6C4B5",
"e. c #A8AEC1",
"r. c #AEB1C1",
"t. c #AEB6C8",
"y. c #B7BCC6",
"u. c #B1B9C9",
"i. c #BBC3D2",
"p. c #C0C6CF",
"a. c #C3C7D2",
"s. c #C3C9D5",
"d. c #CBCED7",
"f. c #EBCFC2",
"g. c #EDD3C6",
"h. c #F0D8CC",
"j. c #F2DFD6",
"k. c #F3E3DB",
"l. c #CFD5E0",
"z. c #D6DCE3",
"x. c #DADCE1",
"c. c #DBE0E6",
"v. c #F7EAE5",
"b. c #F9EEE9",
"n. c #E7EEF3",
"m. c #EBF2F6",
"M. c None",
/* pixels */
"M.M.M.M.M.M.M.M.M.M.M.M.M.M.M.M.M.M.M.M.M.M.M.M.M.M.M.M.M.M.M.M.M.M.M.M.M.M.M.M.M.M.M.M.M.M.M.M.M.M.",
"M.M.M.M.M.M.M.M.M.M.M.M.M.M.M.M.M.M.M.M.M.M.M.M.M.M.M.M.M.M.M.M.M.M.M.M.M.M.M.M.M.M.M.M.M.M.M.M.M.M.",
"M.M.M.M.M.M.M.M.M.M.M.M.M.M.M.M.M.M.M.M.M.M.M.M.M.M.M.M.M.M.M.M.M.M.M.M.M.M.M.M.M.M.M.M.M.M.M.M.M.M.",
"M.M.M.M.M.M.M.M.M.M.M.M.M.M.M.M.M.M.M.M.M.M.M.M.M.M.M.M.M.M.M.M.M.M.M.M.M.M.M.M.M.M.M.M.M.M.M.M.M.M.",
"M.M.M.M.M.M.M.M.M.M.M.M.M.M.M.M.M.M.M.M.M.M.M.M.M.M.M.M.M.M.M.M.M.M.M.M.M.M.M.M.M.M.M.M.M.M.M.M.M.M.",
"M.M.M.M.M.M.M.M.M.M.M.M.M.M.M.M.M.M.M.M.M.M.M.M.M.M.M.M.M.M.M.M.M.M.M.M.M.M.M.M.M.M.M.M.M.M.M.M.M.M.",
"M.M.M.M.M.M.M.M.M.M.M.M.M.M.M.M.M.M.M.M.M.M.M.M.M.M.M.M.M.M.M.M.M.M.M.M.M.M.M.M.M.M.M.M.M.M.M.M.M.M.",
"M.M.M.M.M.M.M.M.M.M.M.M.M.M.M.M.M.M.M.M.M.M.M.M.M.M.M.M.M.M.M.M.M.M.M.M.M.M.M.M.M.M.M.M.M.M.M.M.M.M.",
"M.M.M.M.M.M.M.M.M.M.M.M.M.M.M.M.M.M.M.M.M.M.M.M.M.M.M.M.M.M.M.M.M.M.M.M.M.M.M.M.M.M.M.M.M.M.M.M.M.M.",
"M.M.M.M.M.M.M.M.M.M.M.M.M.M.M.M.M.M.M.M.M.M.M.M.M.M.M.M.M.M.M.M.M.M.M.M.M.M.M.M.M.M.M.M.M.M.M.M.M.M.",
"M.M.M.M.M.M.M.M.M.M.M.M.M.M.M.M.M.M.M.M.M.M.M.M.M.M.M.M.M.M.M.M.M.M.M.M.M.M.M.M.M.M.M.M.M.M.M.M.M.M.",
"M.M.M.M.M.M.M.M.M.M.M.M.M.M.M.M.M.M.M.M.M.M.M.M.M.M.M.M.M.M.M.M.M.M.M.M.M.M.M.M.M.M.M.M.M.M.M.M.M.M.",
"M.M.M.M.M.M.M.M.M.M.M.M.M.M.M.M.M.M.M.M.M.M.M.M.M.M.M.M.M.M.M.M.M.M.M.M.M.M.M.M.M.M.M.M.M.M.M.M.M.M.",
"M.M.M.M.M.M.M.M.M.M.M.M.M.M.M.M.M.M.M.M.M.M.M.M.M.M.M.M.M.M.M.M.M.M.M.M.M.M.M.M.M.M.M.M.M.M.M.M.M.M.",
"M.M.M.M.M.M.M.M.M.M.M.M.M.M.M.M.M.M.M.M.M.M.M.M.M.M.M.M.M.M.M.M.M.M.M.M.M.M.M.M.M.M.M.M.M.M.M.M.M.M.",
"M.M.M.M.M.M.M.M.M.M.M.M.M.# $ X o X o X o X o o X o X o o X - X X o X $ # M.M.M.M.M.M.M.M.M.M.M.M.M.",
"M.M.M.M.M.M.M.M.M.M.M.M.1 # $ X o X X X X . . . . * X . X X . X X . X $ # 1 M.M.M.M.M.M.M.M.M.M.M.M.",
"M.M.M.M.M.M.M.M.M.M.M.# 1 # $ * o o o o - - * * o * - - X - - X o o * $ # # # M.M.M.M.M.M.M.M.M.M.M.",
"M.M.M.M.M.M.M.M.M.M.# # O # 6 9 u w e i h h h h a a h a h h a e w u 9 6 @ @ 1 1 M.M.M.M.M.M.M.M.M.M.",
"M.M.M.M.M.M.M.M.M.# # # # 1 q } b i l A Y A Y A I I I I I I A l p ' } W 1 @ # # # M.M.M.M.M.M.M.M.M.",
"M.M.M.M.M.M.M.M.# 1 @ 1 0 / O.%...s m Y E E R R R R R R E E Y M j [ %.O./ 0 1 O # # M.M.M.M.M.M.M.M.",
"M.M.M.M.M.M.# 1 # # O 3 | y.u.-.] s c Y R R T T T T T T T R Y M p ] -.u.y.| 2 O 1 # # # M.M.M.M.M.M.",
"M.M.M.M.M.M.# # # 1 3 q &.a.s.r...s z H Y U U U U U U U U Y A z n ..r.s.a.&.q 4 1 # # # M.M.M.M.M.M.",
"M.M.M.M.M.M.# # @ 2 W O.-.2.i.d.<.n k V C C C C C C C C C A Z l n <.d.i.2.*.O.W 3 @ # # M.M.M.M.M.M.",
"M.M.M.M.M.M.# # @ 3 ^ %.=.=.t.a.<.n d N G P L D D L P S V V c d n <.d.t.=.=.%.^ 3 @ # # M.M.M.M.M.M.",
"M.M.M.M.M.M.# # @ 3 ~ %.=.=.1.3...j d N 6.q.w.K L w.q.5.V V N g j ..3.,.=.=.%.^ 3 # # # M.M.M.M.M.M.",
"M.M.M.M.M.M.1 # O 3 { 1.r.2.*.} b s k N 9.b.k.P 5.k.v.8.V B N k p b } *.2.e.,.( 3 O # # M.M.M.M.M.M.",
"M.M.M.M.M.M.# # O 4  .p.l.a.&.v y i k N 0.b.k.P 5.k.b.8.V V N l i y v o.a.l.p. .4 O 1 # M.M.M.M.M.M.",
"M.M.M.M.M.M.# # O 5 &.x.n.x.o., ; r g N 7.h.q.L P g.h.5.V V N g r ; , o.x.n.x.&.5 O # # M.M.M.M.M.M.",
"M.M.M.M.M.M.# # O 5 :.c.m.x.o., . ; i N K 6.5.G G 5.5.K V Z N a ; . , o.x.m.c.:.5 O # # M.M.M.M.M.M.",
"M.M.M.M.M.M.1 # @ 4  .p.x.d...,   o e l N c c c x x c c c c l e *   , ..d.z.p. .4 O # # M.M.M.M.M.M.",
"M.M.M.M.M.M.# # @ # q | :.3.} :   X ; e r r r r r r e e t t e ; .   ; } 3.>.{ q 2 # # 1 M.M.M.M.M.M.",
"M.M.M.M.M.M.# # # # @ 3 ^ $.` < o o o o o o X o o X - o X o o X - - < ` $.^ 2 @ 1 # # # M.M.M.M.M.M.",
"M.M.M.M.M.M.M.M.# 1 O 1 ! $.@.) 8 o o X X X X X X X X X X X X . : 8 ) @.%.! 1 O @ # M.M.M.M.M.M.M.M.",
"M.M.M.M.M.M.M.M.# # @ 2 Q +.=.%.) > X X X X X X * X X X X X X X > ) %.=.+.Q 2 @ 1 # M.M.M.M.M.M.M.M.",
"M.M.M.M.M.M.M.M.# # # 1 7 Q O.=.( & + $ $ $ $ $ % = = % $ $ $ + & _ %.O.Q 7 1 @ 1 # M.M.M.M.M.M.M.M.",
"M.M.M.M.M.M.M.M.# # # # @ 3 ! O./ 4 @ @ # # # # 1 M.M.# # # # @ 3 / +.! 2 1 # 1 # 1 M.M.M.M.M.M.M.M.",
"M.M.M.M.M.M.M.M.M.1 # # O # 7 Q 0 2 1 1 # 1 # 1 1 M.M.1 # # 1 # 2 0 W 7 @ @ # # # M.M.M.M.M.M.M.M.M.",
"M.M.M.M.M.M.M.M.M.M.# # # # 1 2 1 # # # # M.M.# # M.M.# # # # 1 1 2 2 2 1 1 1 1 M.M.M.M.M.M.M.M.M.M.",
"M.M.M.M.M.M.M.M.M.M.M.1 # # # # # # 1 # # M.M.M.M.M.M.M.# # # # 1 @ @ @ 1 @ @ M.M.M.M.M.M.M.M.M.M.M.",
"M.M.M.M.M.M.M.M.M.M.M.M.# # # 1 # # 1 # # M.M.M.M.M.M.M.M.1 # # # # # 1 # # M.M.M.M.M.M.M.M.M.M.M.M.",
"M.M.M.M.M.M.M.M.M.M.M.M.M.# # # # # # # M.M.M.M.M.M.M.M.M.M.# # # # # # # M.M.M.M.M.M.M.M.M.M.M.M.M.",
"M.M.M.M.M.M.M.M.M.M.M.M.M.M.M.M.M.M.M.M.M.M.M.M.M.M.M.M.M.M.M.M.M.M.M.M.M.M.M.M.M.M.M.M.M.M.M.M.M.M.",
"M.M.M.M.M.M.M.M.M.M.M.M.M.M.M.M.M.M.M.M.M.M.M.M.M.M.M.M.M.M.M.M.M.M.M.M.M.M.M.M.M.M.M.M.M.M.M.M.M.M.",
"M.M.M.M.M.M.M.M.M.M.M.M.M.M.M.M.M.M.M.M.M.M.M.M.M.M.M.M.M.M.M.M.M.M.M.M.M.M.M.M.M.M.M.M.M.M.M.M.M.M.",
"M.M.M.M.M.M.M.M.M.M.M.M.M.M.M.M.M.M.M.M.M.M.M.M.M.M.M.M.M.M.M.M.M.M.M.M.M.M.M.M.M.M.M.M.M.M.M.M.M.M.",
"M.M.M.M.M.M.M.M.M.M.M.M.M.M.M.M.M.M.M.M.M.M.M.M.M.M.M.M.M.M.M.M.M.M.M.M.M.M.M.M.M.M.M.M.M.M.M.M.M.M.",
"M.M.M.M.M.M.M.M.M.M.M.M.M.M.M.M.M.M.M.M.M.M.M.M.M.M.M.M.M.M.M.M.M.M.M.M.M.M.M.M.M.M.M.M.M.M.M.M.M.M.",
"M.M.M.M.M.M.M.M.M.M.M.M.M.M.M.M.M.M.M.M.M.M.M.M.M.M.M.M.M.M.M.M.M.M.M.M.M.M.M.M.M.M.M.M.M.M.M.M.M.M.",
"M.M.M.M.M.M.M.M.M.M.M.M.M.M.M.M.M.M.M.M.M.M.M.M.M.M.M.M.M.M.M.M.M.M.M.M.M.M.M.M.M.M.M.M.M.M.M.M.M.M."
};
