/* XPM */
static char *result[] = {
/* columns rows colors chars-per-pixel */
"50 50 143 2 ",
"   c #643E47",
".  c #6E3D43",
"X  c #663F48",
"o  c #723F43",
"O  c #3D455B",
"+  c #5E434E",
"@  c #4E4455",
"#  c #40475C",
"$  c #434A5F",
"%  c #49495C",
"&  c #544454",
"*  c #5A4450",
"=  c #6B4147",
"-  c #654149",
";  c #734144",
":  c #7E4947",
">  c #62535A",
",  c #72625F",
"<  c #444C61",
"1  c #484F64",
"2  c #4A5166",
"3  c #4D5469",
"4  c #5A5264",
"5  c #50566B",
"6  c #535A6D",
"7  c #555C71",
"8  c #6A5D6A",
"9  c #795E6A",
"0  c #5B6274",
"q  c #5D6379",
"w  c #61677B",
"e  c #814748",
"r  c #824948",
"t  c #8F554C",
"y  c #95554F",
"u  c #955D4D",
"i  c #995B4D",
"p  c #9D5D53",
"a  c #81645B",
"s  c #906051",
"d  c #9E625D",
"f  c #A06052",
"g  c #AE6553",
"h  c #A36C57",
"j  c #A2655F",
"k  c #B06652",
"l  c #B36A54",
"z  c #BD7355",
"x  c #B77258",
"c  c #8D5E62",
"v  c #8F6161",
"b  c #A76962",
"n  c #C27755",
"m  c #C47C5D",
"M  c #CC7F5C",
"N  c #CC815D",
"B  c #D78C5E",
"V  c #D5895F",
"C  c #D8945E",
"Z  c #CB8665",
"A  c #C48D62",
"S  c #CD8968",
"D  c #D78E60",
"F  c #D08E6D",
"G  c #D98F61",
"H  c #D69560",
"J  c #D49863",
"K  c #CD9173",
"L  c #CF977A",
"P  c #CF997E",
"I  c #D39474",
"U  c #D09A7E",
"Y  c #E09761",
"T  c #ECA364",
"R  c #F7AF67",
"E  c #F8AF67",
"W  c #FAB167",
"Q  c #666B81",
"!  c #686E84",
"~  c #6B7187",
"^  c #6F758B",
"/  c #70768C",
"(  c #73798E",
")  c #777C93",
"_  c #787E92",
"`  c #977982",
"'  c #967D89",
"]  c #7D8393",
"[  c #99808C",
"{  c #898599",
"}  c #83889C",
"|  c #978491",
" . c #8A909E",
".. c #A38992",
"X. c #878EA4",
"o. c #898EA5",
"O. c #8B91A0",
"+. c #9A97A3",
"@. c #9196AD",
"#. c #969BAC",
"$. c #989DAD",
"%. c #959AB1",
"&. c #9A9EB4",
"*. c #B99FA3",
"=. c #9CA2AE",
"-. c #9DA3B4",
";. c #9BA3B9",
":. c #BAA0A4",
">. c #A2A6B9",
",. c #A5AABE",
"<. c #D09E83",
"1. c #D3A68D",
"2. c #D3A58B",
"3. c #D5AC94",
"4. c #D2A790",
"5. c #D5BDAD",
"6. c #D4B9A7",
"7. c #D7C7B8",
"8. c #A8ADC0",
"9. c #ADB2C3",
"0. c #B7BCC6",
"q. c #B3BACA",
"w. c #BBC3D2",
"e. c #C0C6CF",
"r. c #D9D6CB",
"t. c #D9D0C3",
"y. c #C3C7D2",
"u. c #C4C9D5",
"i. c #C9CCD6",
"p. c #CCD1DB",
"a. c #DADBD2",
"s. c #D1D6DE",
"d. c #DBDFD8",
"f. c #DCE3DC",
"g. c #D7DCE3",
"h. c #D9DEE4",
"j. c #DBE1E6",
"k. c #DDE2E8",
"l. c #DDE9E3",
"z. c #E1E6EB",
"x. c #E4E9EE",
"c. c #E7ECF0",
"v. c None",
/* pixels */
"v.v.v.v.v.v.v.v.v.v.v.v.v.v.v.v.v.v.v.v.v.v.v.v.v.v.v.v.v.v.v.v.v.v.v.v.v.v.v.v.v.v.v.v.v.v.v.v.v.v.",
"v.v.v.v.v.v.v.v.v.v.v.v.v.v.v.v.v.v.v.v.v.v.v.v.v.v.v.v.v.v.v.v.v.v.v.v.v.v.v.v.v.v.v.v.v.v.v.v.v.v.",
"v.v.v.v.v.v.v.v.v.v.v.v.v.v.v.v.v.v.v.v.v.v.v.v.v.v.v.v.v.v.v.v.v.v.v.v.v.v.v.v.v.v.v.v.v.v.v.v.v.v.",
"v.v.v.v.v.v.v.v.v.v.v.v.v.v.v.v.v.v.v.v.v.v.v.v.v.v.v.v.v.v.v.v.v.v.v.v.v.v.v.v.v.v.v.v.v.v.v.v.v.v.",
"v.v.v.v.v.v.v.v.v.v.v.v.v.v.v.v.v.v.v.v.v.v.v.v.v.v.v.v.v.v.v.v.v.v.v.v.v.v.v.v.v.v.v.v.v.v.v.v.v.v.",
"v.v.v.v.v.v.v.v.v.v.v.v.v.v.v.v.v.v.v.v.v.v.v.v.v.v.v.v.v.v.v.v.v.v.v.v.v.v.v.v.v.v.v.v.v.v.v.v.v.v.",
"v.v.v.v.v.v.v.v.v.v.v.v.v.v.v.v.v.v.v.v.v.v.v.v.v.v.v.v.v.v.v.v.v.v.v.v.v.v.v.v.v.v.v.v.v.v.v.v.v.v.",
"v.v.v.v.v.v.v.v.v.v.v.v.v.v.v.v.v.v.v.v.v.v.v.v.v.v.v.v.v.v.v.v.v.v.v.v.v.v.v.v.v.v.v.v.v.v.v.v.v.v.",
"v.v.v.v.v.v.v.v.v.v.v.v.v.$ $ < $ < $ $ v.v.v.v.v.v.v.v.v.v.$ $ < < # $ $ v.v.v.v.v.v.v.v.v.v.v.v.v.",
"v.v.v.v.v.v.v.v.v.v.v.v.$ $ $ $ $ $ $ $ $ v.v.v.v.v.v.v.v.$ < $ # < < < $ $ v.v.v.v.v.v.v.v.v.v.v.v.",
"v.v.v.v.v.v.v.v.v.v.v.$ $ < < # $ $ $ $ $ v.v.v.v.v.v.v.v.$ $ $ < # O < $ $ $ v.v.v.v.v.v.v.v.v.v.v.",
"v.v.v.v.v.v.v.v.v.v.$ $ $ < < 1 < $ < $ $ v.v.v.v.v.v.v.v.$ $ $ < 1 1 < $ < $ $ v.v.v.v.v.v.v.v.v.v.",
"v.v.v.v.v.v.v.v.v.$ < $ # $ 7 ! q 1 $ $ < v.v.v.v.v.v.v.v.< $ $ 1 q ! 7 $ $ $ $ $ v.v.v.v.v.v.v.v.v.",
"v.v.v.v.v.v.v.v.$ < $ $ $ 2 ~ X.) 2 O $ $ v.v.v.v.v.v.v.v.$ $ # 3 ( X.~ 2 $ $ $ $ $ v.v.v.v.v.v.v.v.",
"v.v.v.v.v.v.v.v.$ $ $ < 6 ! } @.) 3 # $ $ v.v.v.v.v.v.v.v.$ $ # 2 ) @.} Q 7 < $ $ < v.v.v.v.v.v.v.v.",
"v.v.v.v.v.v.v.v.$ $ # 1 ! o.%.@.) 3 # $ $ v.v.v.v.v.v.v.v.$ $ # 2 ) #.%.o.! < $ $ $ v.v.v.v.v.v.v.v.",
"v.v.v.v.v.v.v.v.$ $ O < ! @.&.@./ 3 O $ $ v.v.v.v.v.v.v.v.$ $ # 3 / @.&.@.~ $ O $ $ v.v.v.v.v.v.v.v.",
"v.v.v.v.v.v.$ $ $ $ # 2 ^ @.;.%.( 3 # $ < v.v.v.v.v.v.v.v.$ < # 3 ( %.-.@.^ 2 $ $ $ $ $ v.v.v.v.v.v.",
"v.v.v.v.v.v.$ $ $ 1 q ] $.9.q.9.} 5 # $ % v.v.v.v.v.v.v.v.% $ O 5 } 9.q.8.$.] q < $ $ $ v.v.v.v.v.v.",
"v.v.v.v.v.v.$ $ O 3  .y.s.s.h.p.#.6 O $ @ X o o . o o o - @ $ O 6 #.p.g.g.p.y. .5 O < $ v.v.v.v.v.v.",
"v.v.v.v.v.v.$ < O 5 =.j.c.k.c.h.=.6 O O @   . . . . . .   @ O O 6 -.j.c.z.x.j.=.5 O $ $ v.v.v.v.v.v.",
"v.v.v.v.v.v.$ $ O 5 $.d.x.k.x.g.=.7 O $ @ - . o . . . ; X & # O 0 =.j.l.k.x.g.#.5 O $ $ v.v.v.v.v.v.",
"v.v.v.v.v.v.$ $ O 5 O.y.p.u.p.y.+.8 > , a s u u u u i u s , , > 8 +.y.p.i.p.y.O.5 O $ $ v.v.v.v.v.v.",
"v.v.v.v.v.v.$ $ # 2 _ ;.8.,.8.>.| v h A J H H C C C C C H J A h v | >.,.,.,.;.) 3 $ $ $ v.v.v.v.v.v.",
"v.v.v.v.v.v.< $ # 2 ^ @.%.@.;.,...j n T W E R R E E R E W W T n b ..>.;.%.%.@.^ 2 # $ $ v.v.v.v.v.v.",
"v.v.v.v.v.v.$ $ # 2 / @.%.%.9.y.*.b n T W R R R R R R R R W T n b :.y.9.%.%.%.^ 2 # $ < v.v.v.v.v.v.",
"v.v.v.v.v.v.$ $ $ 1 Q } %.,.w.i.*.b z Y T T T T T T T T T T C z b :.i.w.8.%.X.Q 2 # $ $ v.v.v.v.v.v.",
"v.v.v.v.v.v.< $ < < 3 w $.u.u.9...j l N G B B D B B V B G G N l d ..9.u.y.#.q 2 < $ $ $ v.v.v.v.v.v.",
"v.v.v.v.v.v.$ $ $ $ O 2 { 0.q.&.' d k m S K K Z Z K K Z N N m k d ' &.q.0.} 2 O $ $ $ < v.v.v.v.v.v.",
"v.v.v.v.v.v.v.v.$ $ $ $ 0 ( X.@.' j g m <.5.6.K K 5.5.P N N m g d [ @.X.( 0 < # $ $ v.v.v.v.v.v.v.v.",
"v.v.v.v.v.v.v.v.v.$ $ $ O 1 Q { ` d k n 3.f.r.P <.a.d.2.M M m k j ` { w % $ $ < $ v.v.v.v.v.v.v.v.v.",
"v.v.v.v.v.v.v.v.v.v.$ $ # # 4 9 c p k m 3.l.a.<.<.d.l.4.M M m l p v 9 4 $ O $ $ v.v.v.v.v.v.v.v.v.v.",
"v.v.v.v.v.v.v.v.v.v.v.$ < $ & = e y g m 1.r.7.P U t.r.2.N N m k y r ; & $ < $ v.v.v.v.v.v.v.v.v.v.v.",
"v.v.v.v.v.v.v.v.v.v.v.v.< $ & . ; e i m I 3.2.F F 3.4.F N N m f r o . & $ < v.v.v.v.v.v.v.v.v.v.v.v.",
"v.v.v.v.v.v.v.v.v.v.v.v.v.$ + . . ; t x N m m m m m N z m m x t . . . & $ v.v.v.v.v.v.v.v.v.v.v.v.v.",
"v.v.v.v.v.v.v.v.v.v.v.v.v.v.+ . . . : y i i i p p i i s u i u : . . . - v.v.v.v.v.v.v.v.v.v.v.v.v.v.",
"v.v.v.v.v.v.v.v.v.v.v.v.v.v.v.. . . ; ; o o ; ; ; ; ; ; ; ; ; o . ; o v.v.v.v.v.v.v.v.v.v.v.v.v.v.v.",
"v.v.v.v.v.v.v.v.v.v.v.v.v.v.v.v.o . . . . . . . . . . . . . . . . . v.v.v.v.v.v.v.v.v.v.v.v.v.v.v.v.",
"v.v.v.v.v.v.v.v.v.v.v.v.v.v.v.v.v.o . . . . . = . . . . . . . . . v.v.v.v.v.v.v.v.v.v.v.v.v.v.v.v.v.",
"v.v.v.v.v.v.v.v.v.v.v.v.v.v.v.v.v.v.= . - + + + + = = + + * * + v.v.v.v.v.v.v.v.v.v.v.v.v.v.v.v.v.v.",
"v.v.v.v.v.v.v.v.v.v.v.v.v.v.v.v.v.v.v.v.v.% $ $ % v.v.$ % $ % v.v.v.v.v.v.v.v.v.v.v.v.v.v.v.v.v.v.v.",
"v.v.v.v.v.v.v.v.v.v.v.v.v.v.v.v.v.v.v.v.v.v.< < < v.v.< < < v.v.v.v.v.v.v.v.v.v.v.v.v.v.v.v.v.v.v.v.",
"v.v.v.v.v.v.v.v.v.v.v.v.v.v.v.v.v.v.v.v.v.v.v.$ $ v.v.$ $ v.v.v.v.v.v.v.v.v.v.v.v.v.v.v.v.v.v.v.v.v.",
"v.v.v.v.v.v.v.v.v.v.v.v.v.v.v.v.v.v.v.v.v.v.v.v.v.v.v.v.$ v.v.v.v.v.v.v.v.v.v.v.v.v.v.v.v.v.v.v.v.v.",
"v.v.v.v.v.v.v.v.v.v.v.v.v.v.v.v.v.v.v.v.v.v.v.v.v.v.v.v.v.v.v.v.v.v.v.v.v.v.v.v.v.v.v.v.v.v.v.v.v.v.",
"v.v.v.v.v.v.v.v.v.v.v.v.v.v.v.v.v.v.v.v.v.v.v.v.v.v.v.v.v.v.v.v.v.v.v.v.v.v.v.v.v.v.v.v.v.v.v.v.v.v.",
"v.v.v.v.v.v.v.v.v.v.v.v.v.v.v.v.v.v.v.v.v.v.v.v.v.v.v.v.v.v.v.v.v.v.v.v.v.v.v.v.v.v.v.v.v.v.v.v.v.v.",
"v.v.v.v.v.v.v.v.v.v.v.v.v.v.v.v.v.v.v.v.v.v.v.v.v.v.v.v.v.v.v.v.v.v.v.v.v.v.v.v.v.v.v.v.v.v.v.v.v.v.",
"v.v.v.v.v.v.v.v.v.v.v.v.v.v.v.v.v.v.v.v.v.v.v.v.v.v.v.v.v.v.v.v.v.v.v.v.v.v.v.v.v.v.v.v.v.v.v.v.v.v.",
"v.v.v.v.v.v.v.v.v.v.v.v.v.v.v.v.v.v.v.v.v.v.v.v.v.v.v.v.v.v.v.v.v.v.v.v.v.v.v.v.v.v.v.v.v.v.v.v.v.v."
};
