/* XPM */
static char *result[] = {
/* columns rows colors chars-per-pixel */
"50 50 135 2 ",
"   c #633D47",
".  c #6E3D43",
"X  c #703E43",
"o  c #3F465B",
"O  c #3F485E",
"+  c #3F4960",
"@  c #5E434E",
"#  c #4D4455",
"$  c #40475C",
"%  c #434A5F",
"&  c #4C485A",
"*  c #544554",
"=  c #594451",
"-  c #6D4046",
";  c #654049",
":  c #684048",
">  c #724044",
",  c #7C4847",
"<  c #7B4B4E",
"1  c #634C56",
"2  c #6D4E56",
"3  c #61525E",
"4  c #6B595D",
"5  c #434B61",
"6  c #484F64",
"7  c #4D5367",
"8  c #4E556A",
"9  c #52596C",
"0  c #5E5A6C",
"q  c #565C71",
"w  c #6F5661",
"e  c #576175",
"r  c #5B6275",
"t  c #5D6378",
"y  c #796660",
"u  c #61677C",
"i  c #656A7E",
"p  c #804647",
"a  c #804848",
"s  c #8F554C",
"d  c #94564C",
"f  c #955A4E",
"g  c #8E5E5D",
"h  c #955954",
"j  c #9C5C51",
"k  c #9B624E",
"l  c #88695B",
"z  c #966452",
"x  c #9C605B",
"c  c #AC6654",
"v  c #A1635D",
"b  c #A96E58",
"n  c #B16652",
"m  c #B36A56",
"M  c #B47157",
"N  c #BC7356",
"B  c #876E7A",
"V  c #C17756",
"C  c #C37856",
"Z  c #C37B5C",
"A  c #CB7F5B",
"S  c #CC815D",
"D  c #D0845E",
"F  c #D58A5E",
"G  c #CD8766",
"H  c #CE8968",
"J  c #D78D61",
"K  c #D28D6B",
"L  c #CA9062",
"P  c #DF9761",
"I  c #DB9961",
"U  c #D39375",
"Y  c #D89675",
"T  c #D3967A",
"R  c #D69A7D",
"E  c #EAA163",
"W  c #F6AE67",
"Q  c #FAB167",
"!  c #686E82",
"~  c #6C7285",
"^  c #6F758B",
"/  c #757B8B",
"(  c #867280",
")  c #977D89",
"_  c #80859A",
"`  c #838B9C",
"'  c #898F9D",
"]  c #8A909E",
"[  c #8B8EA3",
"{  c #8D92A7",
"}  c #8F95A9",
"|  c #9A9FB4",
" . c #9EA3B6",
".. c #9EA3B8",
"X. c #A1A4B7",
"o. c #A2AAB7",
"O. c #A1A6BA",
"+. c #A4AABA",
"@. c #A8AFBF",
"#. c #AEB3BF",
"$. c #D69C81",
"%. c #D8A187",
"&. c #DBA58A",
"*. c #DEA98F",
"=. c #DDAA92",
"-. c #DFB098",
";. c #E0B19A",
":. c #E6C3B3",
">. c #E9CABC",
",. c #ADB2C0",
"<. c #B3B8C3",
"1. c #B5BBCB",
"2. c #BABECB",
"3. c #BBC1CD",
"4. c #BEC2D1",
"5. c #C0C5CE",
"6. c #C0C6D4",
"7. c #C4CAD2",
"8. c #C2CAD8",
"9. c #D4D9DF",
"0. c #ECCFC1",
"q. c #EDD3C6",
"w. c #EFD8CD",
"e. c #F1DCD2",
"r. c #F4E3DB",
"t. c #D6DBE2",
"y. c #D9DEE6",
"u. c #DEE3E9",
"i. c #E2E7ED",
"p. c #E6EBEF",
"a. c #F7EBE5",
"s. c #F9F0EB",
"d. c #E7ECF1",
"f. c #E9EDF2",
"g. c None",
/* pixels */
"g.g.g.g.g.g.g.g.g.g.g.g.g.g.g.g.g.g.g.g.g.g.g.g.g.g.g.g.g.g.g.g.g.g.g.g.g.g.g.g.g.g.g.g.g.g.g.g.g.g.",
"g.g.g.g.g.g.g.g.g.g.g.g.g.g.g.g.g.g.g.g.g.g.g.g.g.g.g.g.g.g.g.g.g.g.g.g.g.g.g.g.g.g.g.g.g.g.g.g.g.g.",
"g.g.g.g.g.g.g.g.g.g.g.g.g.g.g.g.g.g.g.g.g.g.g.g.g.g.g.g.g.g.g.g.g.g.g.g.g.g.g.g.g.g.g.g.g.g.g.g.g.g.",
"g.g.g.g.g.g.g.g.g.g.g.g.g.g.g.g.g.g.g.g.g.g.g.g.g.g.g.g.g.g.g.g.g.g.g.g.g.g.g.g.g.g.g.g.g.g.g.g.g.g.",
"g.g.g.g.g.g.g.g.g.g.g.g.g.g.g.g.g.g.g.g.g.g.g.g.g.g.g.g.g.g.g.g.g.g.g.g.g.g.g.g.g.g.g.g.g.g.g.g.g.g.",
"g.g.g.g.g.g.g.g.g.g.g.g.g.g.g.g.g.g.g.g.g.g.g.g.g.g.g.g.g.g.g.g.g.g.g.g.g.g.g.g.g.g.g.g.g.g.g.g.g.g.",
"g.g.g.g.g.g.g.g.g.g.g.g.g.g.g.g.g.g.g.g.g.g.g.g.g.g.g.g.g.g.g.g.g.g.g.g.g.g.g.g.g.g.g.g.g.g.g.g.g.g.",
"g.g.g.g.g.g.g.g.g.g.g.g.g.g.g.g.g.g.g.g.g.g.g.g.g.g.g.g.g.g.g.g.g.g.g.g.g.g.g.g.g.g.g.g.g.g.g.g.g.g.",
"g.g.g.g.g.g.g.g.g.g.g.g.g.g.g.g.g.g.g.g.g.g.g.g.g.g.g.g.g.g.g.g.g.g.g.g.g.g.g.g.g.g.g.g.g.g.g.g.g.g.",
"g.g.g.g.g.g.g.g.g.g.g.g.g.g.g.g.g.g.g.g.g.g.g.g.g.g.g.g.g.g.g.g.g.g.g.g.g.g.g.g.g.g.g.g.g.g.g.g.g.g.",
"g.g.g.g.g.g.g.g.g.g.g.g.g.g.g.g.g.g.g.g.g.g.g.g.g.g.g.g.g.g.g.g.g.g.g.g.g.g.g.g.g.g.g.g.g.g.g.g.g.g.",
"g.g.g.g.g.g.g.g.g.g.g.g.g.g.g.g.g.g.g.g.g.g.g.g.g.g.g.g.g.g.g.g.g.g.g.g.g.g.g.g.g.g.g.g.g.g.g.g.g.g.",
"g.g.g.g.g.g.g.g.g.g.g.g.g.g.g.g.g.g.g.g.g.g.g.g.g.g.g.g.g.g.g.g.g.g.g.g.g.g.g.g.g.g.g.g.g.g.g.g.g.g.",
"g.g.g.g.g.g.g.g.g.g.g.g.g.g.g.g.g.g.g.g.g.g.g.g.g.g.g.g.g.g.g.g.g.g.g.g.g.g.g.g.g.g.g.g.g.g.g.g.g.g.",
"g.g.g.g.g.g.g.g.g.g.g.g.g.g.g.g.g.g.g.g.g.g.g.g.g.g.g.g.g.g.g.g.g.g.g.g.g.g.g.g.g.g.g.g.g.g.g.g.g.g.",
"g.g.g.g.g.g.g.g.g.g.g.g.g.g.g.g.g.g.g.g.g.g.g.g.g.g.g.g.g.g.g.g.g.g.g.g.g.g.g.g.g.g.g.g.g.g.g.g.g.g.",
"g.g.g.g.g.g.g.g.g.g.g.g.g.g.g.g.g.g.g.g.g.g.g.g.g.g.g.g.g.g.g.g.g.g.g.g.g.g.g.g.g.g.g.g.g.g.g.g.g.g.",
"5 % % % 5 % % % % % % 5 % % 5 5 % % 5 % * : X X X . X . : * 5 5 % % % % % 5 5 % % % 5 % 5 5 % 5 % 5 ",
"% % % % % % $ o $ $ $ $ $ $ $ $ O % + O #   . . . . . .   # O + + % % + O $ $ $ O $ $ $ $ $ 5 $ % % ",
"% % % % % % % % % % % % 5 % 5 5 % % 5 5 *   . X . . . X   * % 5 % % 5 + % % % % % % % % 5 5 $ 5 % 5 ",
"5 % % 6 q i ~ / / / ! u ! / ~ u 0 3 4 y l z k k k k k k z l y w w 0 t ! / ! u ! / / / ^ i q 6 5 % % ",
"% % % 8 ^ } ,.6.7.3.X.{ +.2.,.[ ( g b L I I I I I I I I I I L b g ( [ ,.2.+.{ X.3.7.5.,.} ~ 8 5 % % ",
"% % % 7 ! } 6.i.f.u.2...2.y.8.X.) v C E Q Q Q Q Q Q Q Q Q Q E C v ) X.8.t.3.O.1.y.p.i.5.} ! 7 $ % 5 ",
"% % % 5 7 ! #.u.f.y.1...2.t.6. .) x C E Q Q W W W W W Q Q Q E N v ) | 8.t.2...1.y.p.u.#.~ 7 5 5 % % ",
"% % % % o 9 ] <.2.<.O. .2.t.1.' B x N I E E E E E E E E E E I N x B [ 1.t.3...1.y.9.3.] 9 o % % % % ",
"g.g.% % $ 6 r ~ ! ~ _ | 6.t.o.i w j m S F F F F F F F F J J S m h w i o.t.4...2.9.<./ 9 5 % % % g.g.",
"g.g.5 % % % $ o o 5 ! ` @.<.` 7 1 h m Z K Y U G G T T G S S Z m h 1 8 ` <.o.[  .<.] 8 o % % 5 % g.g.",
"g.g.g.g.% % $ $ o 5 7 r ! ! r 6 1 h n Z %.>.:.U T :.>.$.A S Z m h 1 5 e ~ i t i ~ r 5 $ % % g.g.g.g.",
"g.g.g.g.% % % % % % % % % % % & 2 h n Z ;.a.e.%.%.r.a.*.S A Z m h 2 & % % % % % % % % % % % g.g.g.g.",
"g.g.g.g.g.g.g.g.5 % % % $ $ # = < j c A ;.s.r.R %.r.a.=.A A Z m j < ; # o o % % $ % % % g.g.g.g.g.g.",
"g.g.g.g.g.g.g.g.% % 5 5 5 $ = . p d c Z =.e.>.Y R q.w.%.S S Z c d p - * % % % % % % % % g.g.g.g.g.g.",
"g.g.g.g.g.g.g.g.g.g.g.g.g.g.; X X p j Z Y =.&.K U *.*.U S D Z x a > . ; g.g.g.g.g.g.g.g.g.g.g.g.g.g.",
"g.g.g.g.g.g.g.g.g.g.g.g.g.g.g.> . X s M Z Z Z N Z Z Z N Z Z M s > . . g.g.g.g.g.g.g.g.g.g.g.g.g.g.g.",
"g.g.g.g.g.g.g.g.g.g.g.g.g.g.g.. . - , d f d d d f d d z f f s , . . . g.g.g.g.g.g.g.g.g.g.g.g.g.g.g.",
"g.g.g.g.g.g.g.g.g.g.g.g.g.g.g.. X . X > > . > X > - > > X X > > X . . g.g.g.g.g.g.g.g.g.g.g.g.g.g.g.",
"g.g.g.g.g.g.g.g.g.g.g.g.g.g.g.g.. . . . . . . . . . . . . . . . . X g.g.g.g.g.g.g.g.g.g.g.g.g.g.g.g.",
"g.g.g.g.g.g.g.g.g.g.g.g.g.g.g.g.g.X . . . - . - . . . - . - - . X g.g.g.g.g.g.g.g.g.g.g.g.g.g.g.g.g.",
"g.g.g.g.g.g.g.g.g.g.g.g.g.g.g.g.g.g.X X ; @ * @ @ : - @ @ * = : g.g.g.g.g.g.g.g.g.g.g.g.g.g.g.g.g.g.",
"g.g.g.g.g.g.g.g.g.g.g.g.g.g.g.g.g.g.g.g.g.% % % % g.g.% % % % g.g.g.g.g.g.g.g.g.g.g.g.g.g.g.g.g.g.g.",
"g.g.g.g.g.g.g.g.g.g.g.g.g.g.g.g.g.g.g.g.g.g.5 5 % g.g.5 O % g.g.g.g.g.g.g.g.g.g.g.g.g.g.g.g.g.g.g.g.",
"g.g.g.g.g.g.g.g.g.g.g.g.g.g.g.g.g.g.g.g.g.g.g.% % g.g.5 % g.g.g.g.g.g.g.g.g.g.g.g.g.g.g.g.g.g.g.g.g.",
"g.g.g.g.g.g.g.g.g.g.g.g.g.g.g.g.g.g.g.g.g.g.g.g.g.g.g.g.g.g.g.g.g.g.g.g.g.g.g.g.g.g.g.g.g.g.g.g.g.g.",
"g.g.g.g.g.g.g.g.g.g.g.g.g.g.g.g.g.g.g.g.g.g.g.g.g.g.g.g.g.g.g.g.g.g.g.g.g.g.g.g.g.g.g.g.g.g.g.g.g.g.",
"g.g.g.g.g.g.g.g.g.g.g.g.g.g.g.g.g.g.g.g.g.g.g.g.g.g.g.g.g.g.g.g.g.g.g.g.g.g.g.g.g.g.g.g.g.g.g.g.g.g.",
"g.g.g.g.g.g.g.g.g.g.g.g.g.g.g.g.g.g.g.g.g.g.g.g.g.g.g.g.g.g.g.g.g.g.g.g.g.g.g.g.g.g.g.g.g.g.g.g.g.g.",
"g.g.g.g.g.g.g.g.g.g.g.g.g.g.g.g.g.g.g.g.g.g.g.g.g.g.g.g.g.g.g.g.g.g.g.g.g.g.g.g.g.g.g.g.g.g.g.g.g.g.",
"g.g.g.g.g.g.g.g.g.g.g.g.g.g.g.g.g.g.g.g.g.g.g.g.g.g.g.g.g.g.g.g.g.g.g.g.g.g.g.g.g.g.g.g.g.g.g.g.g.g.",
"g.g.g.g.g.g.g.g.g.g.g.g.g.g.g.g.g.g.g.g.g.g.g.g.g.g.g.g.g.g.g.g.g.g.g.g.g.g.g.g.g.g.g.g.g.g.g.g.g.g.",
"g.g.g.g.g.g.g.g.g.g.g.g.g.g.g.g.g.g.g.g.g.g.g.g.g.g.g.g.g.g.g.g.g.g.g.g.g.g.g.g.g.g.g.g.g.g.g.g.g.g.",
"g.g.g.g.g.g.g.g.g.g.g.g.g.g.g.g.g.g.g.g.g.g.g.g.g.g.g.g.g.g.g.g.g.g.g.g.g.g.g.g.g.g.g.g.g.g.g.g.g.g."
};
