/* XPM */
static char *result[] = {
/* columns rows colors chars-per-pixel */
"50 50 24 1 ",
"  c #40475C",
". c #41485D",
"X c #42495E",
"o c #434A5F",
"O c #464D62",
"+ c #484F64",
"@ c #535972",
"# c #646B81",
"$ c #656B88",
"% c #707697",
"& c #727899",
"* c #737999",
"= c #777D9B",
"- c #7D83A1",
"; c #878EA5",
": c #888EAB",
"> c #8E94AF",
", c #8F95B1",
"< c #979DB7",
"1 c #999FB7",
"2 c #9CA2BA",
"3 c #9FA5BD",
"4 c #A0A6BE",
"5 c None",
/* pixels */
"55555555555555555555555555555555555555555555555555",
"55555555555555555555555555555555555555555555555555",
"55555555555555555555555555555555555555555555555555",
"55555555555555555555555555555555555555555555555555",
"55555555555555555555555555555555555555555555555555",
"55555555555555555555555555555555555555555555555555",
"55555555555555555555555555555555555555555555555555",
"55555555555555555555555555555555555555555555555555",
"oooooooooooooooooooooooooooooooooooooooooooooooooo",
"oooooooooooooooooooooooooooooooooooooooooooooooooo",
"XXXXXXXXXXXXXXXXXXXXXXXXXXXXXXXXXXXXXXXXXXXXXXXXXX",
"..................................................",
"OOOOOOOOOOOOOOOOOOOOOOOOOOOOOOOOOOOOOOOOOOOOOOOOOO",
"@@@@@@@@@@@@@@@@@@@@@@@@@@@@@@@@@@@@@@@@@@@@@@@@@@",
"$$$$$$$$$$$$$$$$$$$$$$$$$$$$$$$$$$$$$$$$$$$$$$$$$$",
"==================================================",
"::::::::::::::::::::::::::::::::::::::::::::::::::",
"<<<<<<<<<<<<<<<<<<<<<<<<<<<<<<<<<<<<<<<<<<<<<<<<<<",
"33333333333333333333333333333333333333333333333333",
"44444444444444444444444444444444444444444444444444",
"33333333333333333333333333333333333333333333333333",
"33333333333333333333333333333333333333333333333333",
"33333333333333333333333333333333333333333333333333",
"33333333333333333333333333333333333333333333333333",
"44444444444444444444444444444444444444444444444444",
"44444444444444444444444444444444444444444444444444",
"22222222222222222222222222222222222222222222222222",
">>>>>>>>>>>>>>>>>>>>>>>>>>>>>>>>>>>>>>>>>>>>>>>>>>",
"--------------------------------------------------",
"**************************************************",
"%%%%%%%%%%%%%%%%%%%%%%%%%%%%%%%%%%%%%%%%%%%%%%%%%%",
"&&&&&&&&&&&&&&&&&&&&&&&&&&&&&&&&&&&&&&&&&&&&&&&&&&",
"--------------------------------------------------",
",,,,,,,,,,,,,,,,,,,,,,,,,,,,,,,,,,,,,,,,,,,,,,,,,,",
"11111111111111111111111111111111111111111111111111",
";;;;;;;;;;;;;;;;;;;;;;;;;;;;;;;;;;;;;;;;;;;;;;;;;;",
"##################################################",
"++++++++++++++++++++++++++++++++++++++++++++++++++",
"                                                  ",
"..................................................",
"oooooooooooooooooooooooooooooooooooooooooooooooooo",
"oooooooooooooooooooooooooooooooooooooooooooooooooo",
"55555555555555555555555555555555555555555555555555",
"55555555555555555555555555555555555555555555555555",
"55555555555555555555555555555555555555555555555555",
"55555555555555555555555555555555555555555555555555",
"55555555555555555555555555555555555555555555555555",
"55555555555555555555555555555555555555555555555555",
"55555555555555555555555555555555555555555555555555",
"55555555555555555555555555555555555555555555555555"
};
