/* XPM */
static char *result[] = {
/* columns rows colors chars-per-pixel */
"50 50 193 2 ",
"   c #3F465B",
".  c #40475C",
"X  c #41485D",
"o  c #41495D",
"O  c #42495D",
"+  c #42495E",
"@  c #434A5E",
"#  c #434A5F",
"$  c #444B60",
"%  c #454C61",
"&  c #454C62",
"*  c #464D62",
"=  c #474E63",
"-  c #474E64",
";  c #484F64",
":  c #484F65",
">  c #484F66",
",  c #495067",
"<  c #4A5168",
"1  c #4B5168",
"2  c #4B5268",
"3  c #4B5269",
"4  c #4C5269",
"5  c #4C536A",
"6  c #4D536A",
"7  c #4D5469",
"8  c #4D546B",
"9  c #4E546B",
"0  c #4E556B",
"q  c #4E546C",
"w  c #4F566C",
"e  c #4F566E",
"r  c #50566C",
"t  c #50576D",
"y  c #50566E",
"u  c #51586D",
"i  c #51586E",
"p  c #52586E",
"a  c #52596E",
"s  c #52596F",
"d  c #535A6F",
"f  c #515870",
"g  c #535972",
"h  c #535A73",
"j  c #545A70",
"k  c #545B70",
"l  c #545B71",
"z  c #545A74",
"x  c #595F7A",
"c  c #596076",
"v  c #5A607B",
"b  c #5A617B",
"n  c #5B617B",
"m  c #5D6379",
"M  c #5D647A",
"N  c #5B617D",
"B  c #5C627D",
"V  c #5C637E",
"C  c #5D637E",
"Z  c #5D637F",
"A  c #5D647E",
"S  c #61677D",
"D  c #606780",
"F  c #616781",
"G  c #616783",
"H  c #636A80",
"J  c #626882",
"K  c #626983",
"L  c #646B81",
"P  c #656C82",
"I  c #616884",
"U  c #646B84",
"Y  c #676D87",
"T  c #686E84",
"R  c #696F87",
"E  c #656B88",
"W  c #666C89",
"Q  c #6B728A",
"!  c #6C728A",
"~  c #6C738A",
"^  c #6D738B",
"/  c #6F758C",
"(  c #6F768C",
")  c #6F768D",
"_  c #70768D",
"`  c #70778D",
"'  c #71778E",
"]  c #71788E",
"[  c #72788F",
"{  c #6B7190",
"}  c #6B7191",
"|  c #6D7390",
" . c #6C7291",
".. c #6D7391",
"X. c #6D7392",
"o. c #6E7492",
"O. c #6E7493",
"+. c #717795",
"@. c #707697",
"#. c #737A91",
"$. c #747A91",
"%. c #747B91",
"&. c #757B92",
"*. c #757C92",
"=. c #767C93",
"-. c #787F95",
";. c #717798",
":. c #737998",
">. c #727899",
",. c #737999",
"<. c #73799A",
"1. c #747A99",
"2. c #747A9A",
"3. c #757B9A",
"4. c #747A9B",
"5. c #757B9B",
"6. c #777D9A",
"7. c #777D9B",
"8. c #767C9C",
"9. c #787E9B",
"0. c #787E9D",
"q. c #7B829E",
"w. c #7D83A1",
"e. c #7E84A3",
"r. c #7F85A3",
"t. c #80879D",
"y. c #82889F",
"u. c #8187A3",
"i. c #8086A4",
"p. c #8187A4",
"a. c #8288A6",
"s. c #878EA5",
"d. c #868CA7",
"f. c #878DA7",
"g. c #898FA6",
"h. c #848AA8",
"j. c #868BA9",
"k. c #878DA8",
"l. c #868CAA",
"z. c #888EA8",
"x. c #898FA9",
"c. c #888EAB",
"v. c #8990A7",
"b. c #8C93AA",
"n. c #8A90AD",
"m. c #8E94AD",
"M. c #8E94AF",
"N. c #9096AE",
"B. c #9197AF",
"V. c #8F95B1",
"C. c #9096B1",
"Z. c #9197B2",
"A. c #9197B3",
"S. c #9298B0",
"D. c #9399B0",
"F. c #9299B1",
"G. c #9399B1",
"H. c #949AB1",
"J. c #949AB2",
"K. c #959BB3",
"L. c #969CB3",
"P. c #9399B4",
"I. c #949AB4",
"U. c #959AB5",
"Y. c #959BB6",
"T. c #969CB4",
"R. c #979DB4",
"E. c #969CB6",
"W. c #969CB7",
"Q. c #979DB7",
"!. c #979EB6",
"~. c #999FB7",
"^. c #999FB8",
"/. c #999FB9",
"(. c #9AA0B8",
"). c #9BA1BA",
"_. c #9CA2BA",
"`. c #9DA3BC",
"'. c #9EA4BC",
"]. c #9EA4BD",
"[. c #9FA5BD",
"{. c #9FA5BE",
"}. c #A0A6BD",
"|. c #A0A6BE",
" X c #A1A7BE",
".X c #A1A7BF",
"XX c #A1A7C0",
"oX c #A2A7C0",
"OX c #A2A8C0",
"+X c #A3A8C0",
"@X c #A3A9C0",
"#X c #A3A9C1",
"$X c None",
/* pixels */
"$X$X$X$X$X$X$X$X$X$X$X$X$X$X$X$X$X$X$X$X$X$X$X$X$X$X$X$X$X$X$X$X$X$X$X$X$X$X$X$X$X$X$X$X$X$X$X$X$X$X",
"$X$X$X$X$X$X$X$X$X$X$X$X$X$X$X$X$X$X$X$X$X$X$X$X$X$X$X$X$X$X$X$X$X$X$X$X$X$X$X$X$X$X$X$X$X$X$X$X$X$X",
"$X$X$X$X$X$X$X$X$X$X$X$X$X$X$X$X$X$X$X$X$X$X$X$X$X$X$X$X$X$X$X$X$X$X$X$X$X$X$X$X$X$X$X$X$X$X$X$X$X$X",
"$X$X$X$X$X$X$X$X$X$X$X$X$X$X$X$X$X$X$X$X$X$X$X$X$X$X$X$X$X$X$X$X$X$X$X$X$X$X$X$X$X$X$X$X$X$X$X$X$X$X",
"$X$X$X$X$X$X$X$X$X$X$X$X$X$X$X$X$X$X$X$X$X$X$X$X$X$X$X$X$X$X$X$X$X$X$X$X$X$X$X$X$X$X$X$X$X$X$X$X$X$X",
"$X$X$X$X$X$X$X$X$X$X$X$X$X$X$X$X$X$X$X$X$X$X$X$X$X$X$X$X$X$X$X$X$X$X$X$X$X$X$X$X$X$X$X$X$X$X$X$X$X$X",
"$X$X$X$X$X$X$X$X$X$X$X$X$X$X# # # # # # # # # # # # # # # # # # # # # # $X$X$X$X$X$X$X$X$X$X$X$X$X$X",
"$X$X$X$X$X$X$X$X$X$X$X$X$X$X# # # # # # @ @ @ @ @ @ @ @ @ @ # # # # # # $X$X$X$X$X$X$X$X$X$X$X$X$X$X",
"# # # # # # # # # # # # # # # # # # # + O X X X X X X X X O + # # # # # # # # # # # # # # # # # # # ",
"# # # # # # # # # # # # # # # # # # # $ $ $ $ $ $ $ $ $ $ $ $ # # # # # # # # # # # # # # # # # # # ",
"+ + + + + + + + + + + + + + + + + # % , q e y e e e e y e q , % # + + + + + + + + + + + + + + + + + ",
"X X X X X X X X X X X X X X X X X + : g Z I I G G G G I I Z g : + X X X X X X X X X X X X X X X X X ",
"* * * * * * * * * * * * * * * & # # 2 B | 1.1.:.:.:.:.1.1.| B 2 # # & * * * * * * * * * * * * * * * ",
"g g g g g g g g g g g g g h h f < & 8 U q.j.l.h.h.h.h.l.j.q.U 8 & < f h h g g g g g g g g g g g g g ",
"E E E E E E E E E E E E E W W I z > t ~ x.E.W.I.I.I.I.W.E.x.~ t > z I W W E E E E E E E E E E E E E ",
"7.7.7.7.7.7.7.7.7.7.7.7.7.0.0.+.A 5 p ' S.|..X'.'.'.'..X|.S.' p 5 A +.0.0.7.7.7.7.7.7.7.7.7.7.7.7.7.",
"c.c.c.c.c.c.c.c.c.c.c.c.c.n.n.u.Y w a ] J.@X#X X X X X#X@XJ.] a w Y u.n.n.c.c.c.c.c.c.c.c.c.c.c.c.c.",
"Q.Q.Q.Q.Q.Q.Q.Q.Q.Q.Q.Q.Q././.m.) s p ` G..XOX[.[.[.[.OX.XG.` p s ) m././.Q.Q.Q.Q.Q.Q.Q.Q.Q.Q.Q.Q.Q.",
"[.[.[.[.[.[.[.[.[.[.[.[.[.oXOXL.%.k i _ D..XOX[.[.[.[.OX.XD._ i k %.L.OXoX[.[.[.[.[.[.[.[.[.[.[.[.[.",
"|.|.|.|.|.|.|.|.|.|.|.|.|.#X#XR.&.k i _ D..XOX[.[.[.[.OX.XD._ i k &.R.#X#X|.|.|.|.|.|.|.|.|.|.|.|.|.",
"[.[.[.[.[.[.[.[.[.[.[.[.[.XXOXL.%.k i _ D..XOX[.[.[.[.OX.XD._ i k %.L.OXXX[.[.[.[.[.[.[.[.[.[.[.[.[.",
"[.[.[.[.[.[.[.[.[.[.[.[.[..XOXK.%.k p ` G.OXOX|.}.}.|.OXOXG.` p k %.K.OX.X[.[.[.[.[.[.[.[.[.[.[.[.[.",
"[.[.[.[.[.[.[.[.[.[.[.[.[..XOXK.$.k a ' H.@X#X X X X X#X@XH.' a k $.K.OX.X[.[.[.[.[.[.[.[.[.[.[.[.[.",
"[.[.[.[.[.[.[.[.[.[.[.[.[..XOXK.%.k i ( B.{.|.`.`.`.`.|.{.B.( i k %.K.OX.X[.[.[.[.[.[.[.[.[.[.[.[.[.",
"|.|.|.|.|.|.|.|.|.|.|.|.|.OX+XT.*.k w R f.P.I.Z.Z.Z.Z.I.P.f.R w k *.T.+XOX|.|.|.|.|.|.|.|.|.|.|.|.|.",
"|.|.|.|.|.|.|.|.|.|.|.|.|.#X#XR.=.l 6 D 9.a.a.p.p.p.p.a.a.9.D 6 l =.R.#X#X|.|.|.|.|.|.|.|.|.|.|.|.|.",
"_._._._._._._._._._._._._.].].F.#.j 1 v o.8.8.3.3.3.3.8.8.o.v 1 j #.F.].]._._._._._._._._._._._._._.",
"M.M.M.M.M.M.M.M.M.M.M.M.M.C.C.d.! i < x { >.,.;.;.;.;.,.>.{ x < i ! d.C.C.M.M.M.M.M.M.M.M.M.M.M.M.M.",
"w.w.w.w.w.w.w.w.w.w.w.w.w.r.r.6.K 0 < v  .<.2.>.>.>.>.2.<. .v < 0 K 6.r.r.w.w.w.w.w.w.w.w.w.w.w.w.w.",
",.,.,.,.,.,.,.,.,.,.,.,.,.4.4.O.C 5 1 b ..2.4.,.,.,.,.4.2...b 1 5 C O.4.4.,.,.,.,.,.,.,.,.,.,.,.,.,.",
"@.@.@.@.@.@.@.@.@.@.@.@.@.;.;.} N 3 1 n ..2.4.,.,.,.,.4.2...n 1 3 N } ;.;.@.@.@.@.@.@.@.@.@.@.@.@.@.",
">.>.>.>.>.>.>.>.>.>.>.>.>.2.2.O.V 4 1 b ..2.4.,.,.,.,.4.2...b 1 4 V O.2.2.>.>.>.>.>.>.>.>.>.>.>.>.>.",
"w.w.w.w.w.w.w.w.w.w.w.w.w.e.e.6.J 9 < v  .2.2.,.,.,.,.2.2. .v < 9 J 6.e.e.w.w.w.w.w.w.w.w.w.w.w.w.w.",
"V.V.V.V.V.V.V.V.V.V.V.V.V.A.A.k.^ i < x { >.,.;.;.;.;.,.>.{ x < i ^ k.A.A.V.V.V.V.V.V.V.V.V.V.V.V.V.",
"~.~.~.~.~.~.~.~.~.~.~.~.~.).).N.[ d 1 v X.5.5.2.2.2.2.5.5.X.v 1 d [ N.).).~.~.~.~.~.~.~.~.~.~.~.~.~.",
"s.s.s.s.s.s.s.s.s.s.s.s.s.g.v.t.T r 6 F 9.a.a.p.i.i.p.a.a.9.F 6 r T t.v.g.s.s.s.s.s.s.s.s.s.s.s.s.s.",
"L L L L L L L L L L L L L P P S d ; t Q z.U.Y.P.P.P.P.Y.U.z.Q t ; d S P P L L L L L L L L L L L L L ",
"; ; ; ; ; ; ; ; ; ; ; ; ; ; ; - # # u / b.^.(.!.!.!.!.(.^.b./ u # # - ; ; ; ; ; ; ; ; ; ; ; ; ; ; ; ",
". . . . . . . . . . . . . . . .   O 7 H -.y.y.t.t.t.t.y.y.-.H 7 O   . . . . . . . . . . . . . . . . ",
"X X X X X X X X X X X X X X X o X + = t c M M m m m m M M c t = + X o X X X X X X X X X X X X X X X ",
"# # # # # # # # # # # # # # # # # # # $ % % % % % % % % % % $ # # # # # # # # # # # # # # # # # # # ",
"# # # # # # # # # # # # # # # # # # + X . . . . . . . . . . X + # # # # # # # # # # # # # # # # # # ",
"$X$X$X$X$X$X$X$X$X$X$X$X$X$X# # # # # # + + + + + + + + + + # # # # # # $X$X$X$X$X$X$X$X$X$X$X$X$X$X",
"$X$X$X$X$X$X$X$X$X$X$X$X$X$X# # # # # # # # # # # # # # # # # # # # # # $X$X$X$X$X$X$X$X$X$X$X$X$X$X",
"$X$X$X$X$X$X$X$X$X$X$X$X$X$X$X$X$X$X$X$X$X$X$X$X$X$X$X$X$X$X$X$X$X$X$X$X$X$X$X$X$X$X$X$X$X$X$X$X$X$X",
"$X$X$X$X$X$X$X$X$X$X$X$X$X$X$X$X$X$X$X$X$X$X$X$X$X$X$X$X$X$X$X$X$X$X$X$X$X$X$X$X$X$X$X$X$X$X$X$X$X$X",
"$X$X$X$X$X$X$X$X$X$X$X$X$X$X$X$X$X$X$X$X$X$X$X$X$X$X$X$X$X$X$X$X$X$X$X$X$X$X$X$X$X$X$X$X$X$X$X$X$X$X",
"$X$X$X$X$X$X$X$X$X$X$X$X$X$X$X$X$X$X$X$X$X$X$X$X$X$X$X$X$X$X$X$X$X$X$X$X$X$X$X$X$X$X$X$X$X$X$X$X$X$X",
"$X$X$X$X$X$X$X$X$X$X$X$X$X$X$X$X$X$X$X$X$X$X$X$X$X$X$X$X$X$X$X$X$X$X$X$X$X$X$X$X$X$X$X$X$X$X$X$X$X$X",
"$X$X$X$X$X$X$X$X$X$X$X$X$X$X$X$X$X$X$X$X$X$X$X$X$X$X$X$X$X$X$X$X$X$X$X$X$X$X$X$X$X$X$X$X$X$X$X$X$X$X"
};
