/* XPM */
static char *result[] = {
/* columns rows colors chars-per-pixel */
"50 50 53 1 ",
"  c #40475C",
". c #42495E",
"X c #454C61",
"o c #484F64",
"O c #4A5067",
"+ c #4E556B",
"@ c #50576F",
"# c #535A72",
"$ c #585F76",
"% c #595F79",
"& c #5A6177",
"* c #5C627A",
"= c #60677D",
"- c #62687F",
"; c #616783",
": c #646B82",
"> c #686F87",
", c #656C89",
"< c #686E8B",
"1 c #697087",
"2 c #6C738C",
"3 c #70768D",
"4 c #72798F",
"5 c #6C7291",
"6 c #707697",
"7 c #757B95",
"8 c #717798",
"9 c #747A9A",
"0 c #787E9E",
"q c #7C829D",
"w c #7D83A1",
"e c #80879D",
"r c #82899F",
"t c #8187A4",
"y c #868DA5",
"u c #888FA6",
"i c #858AA8",
"p c #888EAB",
"a c #8A90A7",
"s c #8E94AE",
"d c #9096AE",
"f c #9198AF",
"g c #8F95B1",
"h c #9197B2",
"j c #959BB5",
"k c #999FB7",
"l c #989EB8",
"z c #9EA4BC",
"x c #A0A6BE",
"c c #A2A8BF",
"v c #A1A7C0",
"b c #A3A9C1",
"n c None",
/* pixels */
"nnnnnnnnnnnnnnnnnnnnnnnnnnnnnnnnnnnnnnnnnnnnnnnnnn",
"nnnnnnnnnnnnnnnnnnnnnnnnnnnnnnnnnnnnnnnnnnnnnnnnnn",
"nnnnnnnnnnnnnnnnnnnnnnnnnnnnnnnnnnnnnnnnnnnnnnnnnn",
"nnnnnnnnnnnnnnnnnnnnnnnnnnnnnnnnnnnnnnnnnnnnnnnnnn",
"nnnnnnnnnnnnnnnnnnnnnnnnnnnnnnnnnnnnnnnnnnnnnnnnnn",
"nnnnnnnnnnnnnnnnnnnnnnnnnnnnnnnnnnnnnnnnnnnnnnnnnn",
"nnnnnnnnnnnnnnnnnnnnnnnnn..XX.......X.X...X.......",
"nnnnnnnnnnnnnnnnnnnnnnnnn............. X.....X.X.X",
".....X .X..X.....X..X. XX.......           . .....",
".X.X.XX. XX ..... XX .XX........XXXXXXXXo.o.XX.X.X",
"....X  X.. ..... XX ..X ...O+@#@#+++@+@@+@@+oX..X.",
"  .  .   .  .  .  .     ..X@%;;:;;;:;;;;::-*#o....",
"XXoXXoXXXoXXXo.oXXoXXXXXX.X$<799798899788082=o ...",
"########################Ooo=9iiiiiiitiiitpp0-+. X.",
",:,:,:,,,:,,,,,,,,,,,,<;%OO-tjljjhhjjjjhjjhy-@  .X",
"009090099009900990990009,#O:ukxxzzzzzzzzzcxs3+....",
"pppppppppppppppppppppppi6#+-acccxxxxxxxxxccf3+  ..",
"ljljlljljlljljljkklllkkle&+-accczzxxxxzxxxcf3+  ..",
"xzzxzzzzxzzzxzzxxzxxxxvke$+-uxcxzxzxxxzzxcxf3+  X.",
"xxxxxxxvxvxxxvxxxxxxvvbze=+-uxcxzxzzzzxzxcxd3+  ..",
"zzxzxzzzzzxzxzzzzzzzxxvxe&@-uxxxzzxzxzzxzcxd3@  X.",
"zxxzzxxzzxxzzxxzzxxzzxvke=+-uxxxxzxxxxxxxcxd2@. ..",
"zxzzzzxzzxzzzzxzzzxxzxxxe=+-uxcxzxxxxxxxxccd3+. ..",
"xzzxxzzzxzzxxzzxxzzzzxvke&@-uxxxzzzzzzzzzxxd2+. .X",
"xxxxxxxxvzvxxxvxxxxxvvvke=O=edjhhhhhjhhhgjjt<O. X.",
"xxxxzvvzvvzxxxvvxxxxxbbze=O$6tittttttttttit0;O. ..",
"lkzzkzkzkzzkkkzkkzkzzzxle=o#<999999099990995&O....",
"hsssssssshshshsssssssdhs4$o#<899888896988995&O. X.",
"wwwwwwww0ww0w0w0wwwwwwt0<#O#<899889888889992%OX..X",
"899899899899999998999998,@O#,999999899999995%O....",
"888688888888968866668895;@O#<999989999998095&O...X",
"889888889868996999888996,@o#<999998989898985*o....",
"wwww0tt0t00t00twqwwwwww02#O#,999998999899995%O. .X",
"hsshdddshhhdhhhhddggghhs7&o#,698888896598992%O X..",
"llllkkkkllllkjllzkzzkzkjq&O#<909999909999095*O. .X",
"uuuuuuuuuuuuuyuuarrayuuy4$O%3tittttttwtewiw0;OX ..",
"::::::-:--:--::-----::::&OO-rjjhhjhjhjjjffhy<+  .X",
"oXoXooooOOO.XoOOOXOOOXOX..O-rkzkjlkkjjfzjzzu1+. ..",
".       ..    .     .     O&4erreeeeeeeeqrrq*O. X.",
".  . . .... .  . . . ......+$&=&***********&@X....",
"X.X.X.X...X.......X.X....X.X.XXXXXXXXXXXoooo .o X.",
".............XX..X....X......  .       .     .....",
"nnnnnnnnnnnnnnnnnnnnnnnnn............... .......X.",
"nnnnnnnnnnnnnnnnnnnnnnnnn............... ...o. o..",
"nnnnnnnnnnnnnnnnnnnnnnnnnnnnnnnnnnnnnnnnnnnnnnnnnn",
"nnnnnnnnnnnnnnnnnnnnnnnnnnnnnnnnnnnnnnnnnnnnnnnnnn",
"nnnnnnnnnnnnnnnnnnnnnnnnnnnnnnnnnnnnnnnnnnnnnnnnnn",
"nnnnnnnnnnnnnnnnnnnnnnnnnnnnnnnnnnnnnnnnnnnnnnnnnn",
"nnnnnnnnnnnnnnnnnnnnnnnnnnnnnnnnnnnnnnnnnnnnnnnnnn",
"nnnnnnnnnnnnnnnnnnnnnnnnnnnnnnnnnnnnnnnnnnnnnnnnnn"
};
