/* XPM */
static char *result[] = {
/* columns rows colors chars-per-pixel */
"50 50 53 1 ",
"  c #3F465A",
". c #40475C",
"X c #42495E",
"o c #454C61",
"O c #484F64",
"+ c #495067",
"@ c #4C536A",
"# c #50576D",
"$ c #52596E",
"% c #505770",
"& c #535A72",
"* c #595F7A",
"= c #596076",
"- c #5C627C",
"; c #61677D",
": c #5F6582",
"> c #616782",
", c #646A82",
"< c #696F86",
"1 c #656B88",
"2 c #6D738C",
"3 c #70778D",
"4 c #72788E",
"5 c #6D7392",
"6 c #707697",
"7 c #747B91",
"8 c #787F95",
"9 c #717798",
"0 c #747A9A",
"q c #787E9C",
"w c #7B819E",
"e c #7D83A1",
"r c #80879D",
"t c #82889F",
"y c #8187A4",
"u c #868CA5",
"i c #888FA6",
"p c #858BA9",
"a c #888EAB",
"s c #8990A7",
"d c #8D93AE",
"f c #9197AF",
"g c #8F95B1",
"h c #9197B2",
"j c #959BB4",
"k c #999FB7",
"l c #999FB8",
"z c #9EA4BC",
"x c #A0A6BE",
"c c #A2A8BF",
"v c #A2A7C0",
"b c #A2A8C0",
"n c None",
/* pixels */
"nnnnnnnnXXX.O;izdww59edzzzxzzzczla01&oXoX.nnnnnnnn",
"nnnnnnnnXXX.@;tkdw660edzzzzzxzxxlaq1&o..Xonnnnnnnn",
"nnnnnnnnXX..O;fkge060eazzczxzxxzja01&o.Xoonnnnnnnn",
"nnnnnnnnXXX.O;szge066edzczzzzzxzlaq1&oXX.onnnnnnnn",
"nnnnnnnnXoX.O;ijge060edzxxzxxzxzjaq1&O ooonnnnnnnn",
"nnnnnnnnXXX.O;izge969eazxxzzzxxzlaq1&o..o.nnnnnnnn",
"nnnnnnnnXXX.O;ijge060edzxxzxzxxxla01&o.o.onnnnnnnn",
"nnnnnnnnXX.X@;ikge660edzxxzxzzxzjaq1&o..o.nnnnnnnn",
"nnnnnnnnXXX +;skge966eazxxxzzzxxla01&o.ooXnnnnnnnn",
"nnnnnnnnXo..@;szge969edzxxzxxzxzjaq1&o oXXnnnnnnnn",
"nnnnnnnnXoX.+;ujge060edzxxzzxzxzlaq1&o..XXnnnnnnnn",
"nnnnnnnnXX..@;tzge969edzxxzzzzxxjaq1&o.ooXnnnnnnnn",
"nnnnnnnnXX. O,ukge060egzxxzzzxxxjaq1&o.XXXnnnnnnnn",
"nnnnnnnnXoX.+,uzhe090egzbcccxxbxldq1&o.XXXnnnnnnnn",
"nnnnnnXXXo..+,szhe090egzbbzccxbbzaq1&oXXXooXnnnnnn",
"nnnnnnXoXXX o;rfpq555wufjzjjjhzjde0>&oXXXXXXnnnnnn",
"nnnnnnXXXX  o%,75:--::277744w4w33<-&+oXXXXoXnnnnnn",
"nnnnnnXoXoo Xo$%%@@@@@%&&&=$$$$$&@@+ooXXXXXXnnnnnn",
"nnnnnnXX oO$$$@+@+@@++++@$$$$$$$$$$$@++oXXXonnnnnn",
"nnnnnnXo o$-22:=-=----*::<3333333432>:&+oXXXnnnnnn",
"nnnnnnoX o=wuaw555555555widzffffhjfsw5:@oXXXnnnnnn",
"nnnnnnoX O-wzjew999qq900efzcccccbbxjp0:%o XXnnnnnn",
"nnnnnnXX.o=izhe09q9990q9ujzcccccbbvja0>%XXXXnnnnnn",
"nnnnnnXX.o=rjze0999q999qefzcczzczxzjy0>&o XXnnnnnn",
"nnnnnnoX.o=tkkew9009006qejzxxxzzxxzjy0>@XXXXnnnnnn",
"nnnnnnXX.o=tzfww99009960ehzxzzzxxxzjp0>&XXXXnnnnnn",
"nnnnnnXX.o=ejfe690000960pgzxxxzxzxzjy0>@oXXXnnnnnn",
"nnnnnnXX O;tkjiw00000000ezzxxcccvbxla0>#XXXonnnnnn",
"nnnnnnXX O-wzje09900000qejzcbxxcxcxjp0>$X.XXnnnnnn",
"nnnnnnXX o=wsaw655555255wifjjhhjjjfsw5:@oXXXnnnnnn",
"nnnnnnXo o$,22:---:-----:<3444444742,-&+oXXXnnnnnn",
"nnnnnnXXo o@$@@++@@+@@+@@$$$$$$$$$$$@@+oXXXXnnnnnn",
"nnnnnnXXXXXXXo+@oo XXo++@+@@++@++oXXXXXXoXXonnnnnn",
"nnnnnnXooXX X+&=%o   o%=--*---:*&@   XXXXXXXnnnnnn",
"nnnnnnoXXXXXo&12:@o o@:5996596991*+XXXXXXXXXnnnnnn",
"nnnnnnXXXXXXo=5w5=%%%-5wepeeyeyeq1&+ooXXoXXonnnnnn",
"nnnnnnnnXXX +-wde5:::2edjhgfhhhfaq1*@oXXXonnnnnnnn",
"nnnnnnnnXXXX+:rzde559wdjzzzzzzzzjp01%o XXonnnnnnnn",
"nnnnnnnnXX. O,izhe99qedzbxbbzbbxlaq1&OXXXXnnnnnnnn",
"nnnnnnnnoXX O,ijgeq6qedzxxzxzxxxlaq1&oXXXonnnnnnnn",
"nnnnnnnnXXX O;izge990edzxxxzzzxzla01&o..XXnnnnnnnn",
"nnnnnnnnXXX O,ijge999eazxxzzxxxzjaq1&oXXoXnnnnnnnn",
"nnnnnnnnoXXX@;izge990egzxxzxzzxxlaq1&OXXXXnnnnnnnn",
"nnnnnnnnXXX O;ujge059egzxxxzzxxzja01&o.XXXnnnnnnnn",
"nnnnnnnnoXXXO,szge999eazxxzzzxxzlaq1&O.XXXnnnnnnnn",
"nnnnnnnnXo  O;tzge999edzxxzzzxxzja01&o.XXonnnnnnnn",
"nnnnnnnnXXX @;uzge960edzxxxzxzxzlaq1&o.XXonnnnnnnn",
"nnnnnnnnoXX O;ifge069egzxxzxzzxxjaq1&o.XXXnnnnnnnn",
"nnnnnnnnoXX +,izdw990edzzzzzxzxzlaq1&oo..onnnnnnnn",
"nnnnnnnnXXX @;tzfw990edzzzzzxzxzjaq1&o ooonnnnnnnn"
};
