/* XPM */
static char *result[] = {
/* columns rows colors chars-per-pixel */
"50 50 53 1 ",
"  c #40475C",
". c #42495E",
"X c #454C61",
"o c #484F64",
"O c #4A5067",
"+ c #4E556B",
"@ c #50576F",
"# c #535A72",
"$ c #585F76",
"% c #595F79",
"& c #5A6177",
"* c #5C627A",
"= c #60677D",
"- c #62687F",
"; c #616783",
": c #646B82",
"> c #686F87",
", c #656C89",
"< c #686E8B",
"1 c #697087",
"2 c #6C738C",
"3 c #70768D",
"4 c #72798F",
"5 c #6C7291",
"6 c #707697",
"7 c #757B95",
"8 c #717798",
"9 c #747A9A",
"0 c #787E9E",
"q c #7C829D",
"w c #7D83A1",
"e c #80879D",
"r c #82899F",
"t c #8187A4",
"y c #868DA5",
"u c #888FA6",
"i c #858AA8",
"p c #888EAB",
"a c #8A90A7",
"s c #8E94AE",
"d c #9096AE",
"f c #9198AF",
"g c #8F95B1",
"h c #9197B2",
"j c #959BB5",
"k c #999FB7",
"l c #989EB8",
"z c #9EA4BC",
"x c #A0A6BE",
"c c #A2A8BF",
"v c #A1A7C0",
"b c #A3A9C1",
"n c None",
/* pixels */
"nnnnnnnn... o-ukfq789wszzzzzzzczlp9>#X X.Xnnnnnnnn",
"nnnnnnnn.X. O-akfq789wszzzczzcczjp0,#X .X nnnnnnnn",
"nnnnnnnn... o-akgw888wpzzzzzzzczlp9,#X  X.nnnnnnnn",
"nnnnnnnn..  o-akgw889qszzcczzzczlp0,#X X..nnnnnnnn",
"nnnnnnnn... o-ukgw888wszxxzxxxczlp0,#X X..nnnnnnnn",
"nnnnnnnn.X. o-ykgw889wpzxxxzzzxzjp7,#X  .Xnnnnnnnn",
"nnnnnnnn....o-ykgw889wszzcxzzzxzlp0,#X X..nnnnnnnn",
"nnnnnnnn.. .O-ykgw889wszczzzxzczlp7,#X  .Xnnnnnnnn",
"nnnnnnnn... o-ajgw888wpzzxzxzzvzjp0,#o XX.nnnnnnnn",
"nnnnnnnn.X  O-azgw888wszxxzxxzvzlp7,#X X..nnnnnnnn",
"nnnnnnnn... o-rzgw889wgzxczzxzczlp0,#X  ..nnnnnnnn",
"nnnnnnnnX.  O-yjgw888wpzxzzzzzxzlp7,#X X.Xnnnnnnnn",
"nnnnnnnn..  o:yzgw888wgzzczxzzvzli0,#X ...nnnnnnnn",
"nnnnnnnnX.  o:ykgw888wgzcvzzxzxxlp7,#X ..Xnnnnnnnn",
"nnnnnnnn... o:yjgw888wszzvxzzzxzlp7,#X .X.nnnnnnnn",
"nnnnnnnn... o:uzgw888wszczzzxzczlp0,#X....nnnnnnnn",
"nnnnnnnn..  o-ukgw888wgzzzczzcczlp9,#XX XXnnnnnnnn",
"nnnnnnnn... o=ukgw889wszzzzzzzczjp0,#o   Xnnnnnnnn",
"nnnnnnnn... o-ukgw889wpzzzzzzzzzlu9,#X  X.nnnnnnnn",
"nnnnnnnn....O-ukgw888qszcczcxzczlp0,#X X..nnnnnnnn",
"nnnnnnnnX...O-akgw888wgzczzzzzczlp0<#X  ..nnnnnnnn",
"nnnnnnnn... O-azgw989wgzvcczczvxlp9,#o X.Xnnnnnnnn",
"nnnnnnnn..  o-uzhw999whzbvzzccbvlp0,#o  ..nnnnnnnn",
"nnnnnnnn..  O-rfsw859wsjzzzzzzzzji7,#X X.Xnnnnnnnn",
"nnnnnnnnX.  X&4q7<,;,27wwtrrrrrrq3>%+.  o.nnnnnnnn",
"nnnnnnoo... .o$**#+@@#&*********&#@OX. X....nnnnnn",
"nnnnnn..X.Xoo+oOoOOOoOOO+++++++++++oOoXX..o.nnnnnn",
"nnnnnn.. .+&--*#########&*------:::=*$+o....nnnnnn",
"nnnnnnXX X$4tw8<,,,<,,,,4qyaauuuuuut7<*+. ..nnnnnn",
"nnnnnn.. X*ezjw989999999tfzccxzxxvzji6;@o...nnnnnn",
"nnnnnnX  X*qzhi099999999yhccccccvbvli9;@. ..nnnnnn",
"nnnnnn.. o*qzhw999999999yhzcxxxxvvzji7:+O...nnnnnn",
"nnnnnn...X*rzjqq89999889whzvxzzczczjt9;@X ..nnnnnn",
"nnnnnn.. X*qjfw789899889ihzvczzzzczhy9;@X  Xnnnnnn",
"nnnnnn.. X*ejjw988989880ygzzzzzzzczji9;@X  Xnnnnnn",
"nnnnnn.. X*ezhy989999889wgzvcxzzzczhi9;@X X nnnnnn",
"nnnnnn.. o*qjjw989999889wjzzzzzczczhy9;@....nnnnnn",
"nnnnnn.. o*qjhw989899980ygzvczzzzczjy9;@....nnnnnn",
"nnnnnnX. o*qjjww88899889wgzzxzzzzczji6;+X...nnnnnn",
"nnnnnn.. .*qzjw989999889igzvxzzczczhi9;+...Xnnnnnn",
"nnnnnn.. o&ekfrq88999889wjzcczzzxvzji9;@....nnnnnn",
"nnnnnn.. .&ezjw999999990yjzbbcccvbvji9;@....nnnnnn",
"nnnnnn.. .*qzjyq89989989wjzcczzzvvzji9;@X...nnnnnn",
"nnnnnn.. o&quwq<<55,55557ydfffdddfdy05*+....nnnnnn",
"nnnnnn.. o@*1>;*&**;***&;>2333333321:%@OX.X.nnnnnn",
"nnnnnn.X..oO++OoOoOOOooO++++++++@@++OOoX....nnnnnn",
"nnnnnno.... . .. X. .....  . .. .   ......X.nnnnnn",
"nnnnnn...... . ... X  .. .          ....X...nnnnnn",
"nnnnnnX......X....X......X.X...X....o...o...nnnnnn",
"nnnnnn...XX...X..X...X.X....X...............nnnnnn"
};
